{"glyphs":{"0":{"ha":833,"x_min":115,"x_max":718,"o":"m 417 -14 q 197 67 278 -14 q 115 285 115 147 l 115 729 q 197 947 115 867 q 417 1028 278 1028 q 637 947 556 1028 q 718 729 718 867 l 718 285 q 637 67 718 149 q 417 -14 556 -14 m 417 83 q 556 139 504 83 q 608 285 608 194 l 608 729 q 556 875 608 819 q 417 931 504 931 q 277 875 329 931 q 225 729 225 819 l 225 285 q 277 139 225 194 q 417 83 329 83 m 417 429 q 359 452 381 429 q 338 511 338 475 q 359 569 338 547 q 417 590 381 590 q 474 569 453 590 q 496 511 496 547 q 474 452 496 475 q 417 429 453 429 z "},"1":{"ha":833,"x_min":129,"x_max":746,"o":"m 129 0 l 129 100 l 407 100 l 407 921 l 132 717 l 132 839 l 368 1014 l 517 1014 l 517 100 l 746 100 l 746 0 l 129 0 z "},"2":{"ha":833,"x_min":104,"x_max":732,"o":"m 129 0 l 129 110 l 453 457 q 567 606 531 539 q 603 738 603 672 q 551 878 603 825 q 410 931 499 931 q 267 877 319 931 q 215 733 215 824 l 104 733 q 190 948 107 868 q 410 1028 272 1028 q 631 949 549 1028 q 713 738 713 871 q 667 575 713 658 q 525 389 622 492 l 254 100 l 732 100 l 732 0 l 129 0 z "},"3":{"ha":833,"x_min":104,"x_max":701,"o":"m 401 -14 q 245 22 313 -14 q 141 123 178 58 q 104 274 104 188 l 215 274 q 265 135 215 185 q 403 85 315 85 q 541 136 492 85 q 590 274 590 188 l 590 351 q 541 490 590 440 q 403 539 492 539 l 303 539 l 303 635 l 550 914 l 144 914 l 144 1014 l 674 1014 l 674 911 l 431 636 q 628 553 556 629 q 701 351 701 476 l 701 274 q 664 123 701 188 q 559 22 626 58 q 401 -14 492 -14 z "},"4":{"ha":833,"x_min":103,"x_max":674,"o":"m 563 0 l 563 226 l 103 226 l 103 407 l 479 1014 l 600 1014 l 213 383 l 213 326 l 563 326 l 563 583 l 674 583 l 674 0 l 563 0 z "},"5":{"ha":833,"x_min":124,"x_max":710,"o":"m 415 -14 q 214 51 292 -14 q 124 225 136 115 l 233 225 q 287 122 240 158 q 415 85 333 85 q 553 135 506 85 q 600 279 600 186 l 600 376 q 553 519 600 468 q 417 569 507 569 q 315 538 357 569 q 254 453 272 507 l 144 453 l 151 1014 l 676 1014 l 676 914 l 258 914 l 254 553 l 257 553 q 322 636 271 606 q 451 667 374 667 q 642 591 574 668 q 710 376 710 514 l 710 279 q 631 65 710 144 q 415 -14 553 -14 z "},"6":{"ha":833,"x_min":94,"x_max":739,"o":"m 418 -14 q 248 26 321 -14 q 135 140 175 67 q 94 308 94 213 q 119 444 94 375 q 185 585 143 513 l 428 1014 l 549 1014 l 271 543 l 276 539 q 349 597 301 574 q 460 619 397 619 q 606 581 543 619 q 704 472 669 542 q 739 311 739 403 q 699 141 739 214 q 586 27 658 68 q 418 -14 514 -14 m 417 85 q 570 146 511 85 q 629 308 629 207 q 570 471 629 408 q 417 533 511 533 q 264 471 322 533 q 204 308 206 408 q 263 146 204 207 q 417 85 321 85 z "},"7":{"ha":833,"x_min":115,"x_max":753,"o":"m 271 0 l 640 911 l 226 911 l 226 736 l 115 736 l 115 1014 l 753 1014 l 753 908 l 393 0 l 271 0 z "},"8":{"ha":833,"x_min":99,"x_max":735,"o":"m 417 -14 q 249 19 321 -14 q 138 113 178 53 q 99 251 99 172 q 155 412 99 339 q 311 529 211 485 q 169 637 217 574 q 122 774 122 700 q 160 906 122 849 q 265 996 199 963 q 417 1029 332 1029 q 569 996 501 1029 q 676 905 638 963 q 715 774 715 847 q 667 638 715 701 q 524 529 618 575 q 679 412 624 485 q 735 251 735 339 q 695 113 735 172 q 584 19 656 53 q 417 -14 513 -14 m 374 590 l 417 572 l 456 589 q 567 665 526 618 q 607 769 607 713 q 553 886 607 842 q 417 931 500 931 q 281 886 333 931 q 229 769 229 842 q 268 664 229 711 q 374 590 307 617 m 417 85 q 569 133 511 85 q 626 263 626 182 q 586 378 626 326 q 474 461 546 431 l 417 485 l 357 460 q 246 378 285 429 q 207 263 207 326 q 265 133 207 182 q 417 85 322 85 z "},"9":{"ha":833,"x_min":97,"x_max":736,"o":"m 283 0 l 560 471 l 554 475 q 483 417 531 440 q 374 393 436 393 q 229 432 292 393 q 132 540 167 471 q 97 701 97 610 q 137 872 97 799 q 249 987 176 946 q 415 1028 321 1028 q 585 988 513 1028 q 697 874 657 947 q 736 706 736 801 q 713 570 736 639 q 649 429 690 501 l 406 0 l 283 0 m 417 481 q 568 542 510 481 q 626 704 626 603 q 569 867 628 806 q 417 929 511 929 q 265 867 322 929 q 207 703 207 806 q 265 542 207 603 q 417 481 322 481 z "},"A":{"ha":833,"x_min":76,"x_max":757,"o":"m 76 0 l 344 1014 l 490 1014 l 757 0 l 646 0 l 575 275 l 258 275 l 189 0 l 76 0 m 281 369 l 551 369 l 465 708 q 432 850 444 793 q 417 925 419 907 q 401 850 414 907 q 368 708 389 793 l 281 369 z "},"Á":{"ha":833,"x_min":76,"x_max":757,"o":"m 76 0 l 344 1014 l 490 1014 l 757 0 l 646 0 l 575 275 l 258 275 l 189 0 l 76 0 m 281 369 l 551 369 l 465 708 q 432 850 444 793 q 417 925 419 907 q 401 850 414 907 q 368 708 389 793 l 281 369 m 344 1125 l 492 1319 l 613 1319 l 457 1125 l 344 1125 z "},"Ă":{"ha":833,"x_min":76,"x_max":757,"o":"m 76 0 l 344 1014 l 490 1014 l 757 0 l 646 0 l 575 275 l 258 275 l 189 0 l 76 0 m 281 369 l 551 369 l 465 708 q 432 850 444 793 q 417 925 419 907 q 401 850 414 907 q 368 708 389 793 l 281 369 m 417 1119 q 259 1174 318 1119 q 200 1319 200 1229 l 289 1319 q 324 1228 289 1263 q 415 1193 358 1193 q 509 1228 474 1193 q 544 1319 544 1263 l 633 1319 q 574 1174 633 1229 q 417 1119 515 1119 z "},"Ắ":{"ha":833,"x_min":76,"x_max":757,"o":"m 338 1249 l 481 1417 l 601 1417 l 449 1249 l 338 1249 m 383 1083 q 244 1132 296 1083 q 193 1263 193 1181 l 281 1263 q 308 1188 281 1215 q 383 1160 336 1160 l 449 1160 q 524 1188 496 1160 q 553 1263 553 1215 l 640 1263 q 588 1132 640 1181 q 449 1083 536 1083 l 383 1083 m 76 0 l 344 1014 l 490 1014 l 757 0 l 646 0 l 575 275 l 258 275 l 189 0 l 76 0 m 281 369 l 551 369 l 465 708 q 432 850 444 793 q 417 925 419 907 q 401 850 414 907 q 368 708 389 793 l 281 369 z "},"Ặ":{"ha":833,"x_min":76,"x_max":757,"o":"m 417 1119 q 259 1174 318 1119 q 200 1319 200 1229 l 289 1319 q 324 1228 289 1263 q 415 1193 358 1193 q 509 1228 474 1193 q 544 1319 544 1263 l 633 1319 q 574 1174 633 1229 q 417 1119 515 1119 m 76 0 l 344 1014 l 490 1014 l 757 0 l 646 0 l 575 275 l 258 275 l 189 0 l 76 0 m 281 369 l 551 369 l 465 708 q 432 850 444 793 q 417 925 419 907 q 401 850 414 907 q 368 708 389 793 l 281 369 m 417 -293 q 348 -270 374 -293 q 322 -208 322 -247 q 348 -145 322 -168 q 417 -122 374 -122 q 485 -145 460 -122 q 511 -208 511 -168 q 485 -270 511 -247 q 417 -293 460 -293 z "},"Ằ":{"ha":833,"x_min":76,"x_max":757,"o":"m 76 0 l 344 1014 l 490 1014 l 757 0 l 646 0 l 575 275 l 258 275 l 189 0 l 76 0 m 281 369 l 551 369 l 465 708 q 432 850 444 793 q 417 925 419 907 q 401 850 414 907 q 368 708 389 793 l 281 369 m 388 1249 l 247 1417 l 367 1417 l 497 1249 l 388 1249 m 383 1083 q 244 1132 296 1083 q 193 1263 193 1181 l 281 1263 q 308 1188 281 1215 q 383 1160 336 1160 l 449 1160 q 524 1188 496 1160 q 553 1263 553 1215 l 640 1263 q 588 1132 640 1181 q 449 1083 536 1083 l 383 1083 z "},"Ẳ":{"ha":833,"x_min":76,"x_max":757,"o":"m 76 0 l 344 1014 l 490 1014 l 757 0 l 646 0 l 575 275 l 258 275 l 189 0 l 76 0 m 281 369 l 551 369 l 465 708 q 432 850 444 793 q 417 925 419 907 q 401 850 414 907 q 368 708 389 793 l 281 369 m 358 1222 l 424 1299 q 438 1328 438 1315 q 417 1343 438 1343 l 315 1343 l 315 1417 l 440 1417 q 500 1399 478 1417 q 522 1350 522 1382 q 515 1312 522 1332 q 496 1276 508 1292 l 451 1222 l 358 1222 m 383 1083 q 244 1132 296 1083 q 193 1263 193 1181 l 281 1263 q 308 1188 281 1215 q 383 1160 336 1160 l 449 1160 q 524 1188 496 1160 q 553 1263 553 1215 l 640 1263 q 588 1132 640 1181 q 449 1083 536 1083 l 383 1083 z "},"Ẵ":{"ha":833,"x_min":76,"x_max":757,"o":"m 76 0 l 344 1014 l 490 1014 l 757 0 l 646 0 l 575 275 l 258 275 l 189 0 l 76 0 m 281 369 l 551 369 l 465 708 q 432 850 444 793 q 417 925 419 907 q 401 850 414 907 q 368 708 389 793 l 281 369 m 522 1278 q 452 1288 481 1278 q 403 1313 424 1299 q 363 1338 382 1328 q 319 1349 343 1349 q 286 1337 299 1349 q 274 1304 274 1325 l 274 1292 l 193 1292 l 193 1304 q 226 1386 193 1356 q 314 1417 258 1417 q 385 1406 357 1417 q 434 1381 414 1396 q 473 1356 454 1367 q 515 1346 492 1346 q 547 1358 535 1346 q 560 1390 560 1369 l 560 1403 l 640 1403 l 640 1390 q 608 1308 640 1339 q 522 1278 576 1278 m 383 1083 q 244 1126 296 1083 q 193 1250 193 1169 l 281 1250 q 308 1182 281 1204 q 383 1160 336 1160 l 449 1160 q 524 1182 496 1160 q 553 1250 553 1204 l 640 1250 q 588 1126 640 1169 q 449 1083 536 1083 l 383 1083 z "},"Ǎ":{"ha":833,"x_min":76,"x_max":757,"o":"m 76 0 l 344 1014 l 490 1014 l 757 0 l 646 0 l 575 275 l 258 275 l 189 0 l 76 0 m 281 369 l 551 369 l 465 708 q 432 850 444 793 q 417 925 419 907 q 401 850 414 907 q 368 708 389 793 l 281 369 m 364 1125 l 176 1319 l 296 1319 l 418 1200 l 536 1319 l 657 1319 l 471 1125 l 364 1125 z "},"Â":{"ha":833,"x_min":76,"x_max":757,"o":"m 76 0 l 344 1014 l 490 1014 l 757 0 l 646 0 l 575 275 l 258 275 l 189 0 l 76 0 m 281 369 l 551 369 l 465 708 q 432 850 444 793 q 417 925 419 907 q 401 850 414 907 q 368 708 389 793 l 281 369 m 176 1125 l 363 1319 l 469 1319 l 657 1125 l 538 1125 l 417 1244 l 299 1125 l 176 1125 z "},"Ấ":{"ha":833,"x_min":76,"x_max":838,"o":"m 76 0 l 344 1014 l 490 1014 l 757 0 l 646 0 l 575 275 l 258 275 l 189 0 l 76 0 m 281 369 l 551 369 l 465 708 q 432 850 444 793 q 417 925 419 907 q 401 850 414 907 q 368 708 389 793 l 281 369 m 565 1249 l 711 1417 l 838 1417 l 683 1249 l 565 1249 m 178 1083 l 363 1278 l 471 1278 l 657 1083 l 536 1083 l 417 1203 l 297 1083 l 178 1083 z "},"Ậ":{"ha":833,"x_min":76,"x_max":757,"o":"m 176 1125 l 363 1319 l 469 1319 l 657 1125 l 538 1125 l 417 1244 l 299 1125 l 176 1125 m 76 0 l 344 1014 l 490 1014 l 757 0 l 646 0 l 575 275 l 258 275 l 189 0 l 76 0 m 281 369 l 551 369 l 465 708 q 432 850 444 793 q 417 925 419 907 q 401 850 414 907 q 368 708 389 793 l 281 369 m 417 -293 q 348 -270 374 -293 q 322 -208 322 -247 q 348 -145 322 -168 q 417 -122 374 -122 q 485 -145 460 -122 q 511 -208 511 -168 q 485 -270 511 -247 q 417 -293 460 -293 z "},"Ầ":{"ha":833,"x_min":76,"x_max":757,"o":"m 76 0 l 344 1014 l 490 1014 l 757 0 l 646 0 l 575 275 l 258 275 l 189 0 l 76 0 m 281 369 l 551 369 l 465 708 q 432 850 444 793 q 417 925 419 907 q 401 850 414 907 q 368 708 389 793 l 281 369 m 618 1249 l 451 1417 l 576 1417 l 733 1249 l 618 1249 m 178 1083 l 363 1278 l 471 1278 l 657 1083 l 536 1083 l 417 1203 l 297 1083 l 178 1083 z "},"Ẩ":{"ha":833,"x_min":76,"x_max":760,"o":"m 76 0 l 344 1014 l 490 1014 l 757 0 l 646 0 l 575 275 l 258 275 l 189 0 l 76 0 m 281 369 l 551 369 l 465 708 q 432 850 444 793 q 417 925 419 907 q 401 850 414 907 q 368 708 389 793 l 281 369 m 589 1222 l 654 1290 q 669 1321 669 1306 q 644 1344 669 1344 l 550 1344 l 550 1417 l 663 1417 q 734 1394 708 1417 q 760 1335 760 1372 q 733 1269 760 1297 l 685 1222 l 589 1222 m 178 1083 l 363 1278 l 471 1278 l 657 1083 l 536 1083 l 417 1203 l 297 1083 l 178 1083 z "},"Ẫ":{"ha":833,"x_min":76,"x_max":757,"o":"m 76 0 l 344 1014 l 490 1014 l 757 0 l 646 0 l 575 275 l 258 275 l 189 0 l 76 0 m 281 369 l 551 369 l 465 708 q 432 850 444 793 q 417 925 419 907 q 401 850 414 907 q 368 708 389 793 l 281 369 m 522 1278 q 452 1288 481 1278 q 403 1313 424 1299 q 363 1338 382 1328 q 319 1349 343 1349 q 286 1337 299 1349 q 274 1304 274 1325 l 274 1292 l 193 1292 l 193 1304 q 226 1386 193 1356 q 314 1417 258 1417 q 385 1406 357 1417 q 434 1381 414 1396 q 473 1356 454 1367 q 515 1346 492 1346 q 547 1358 535 1346 q 560 1390 560 1369 l 560 1403 l 640 1403 l 640 1390 q 608 1308 640 1339 q 522 1278 576 1278 m 178 1083 l 340 1240 l 493 1240 l 656 1083 l 535 1083 l 417 1192 l 297 1083 l 178 1083 z "},"Ä":{"ha":833,"x_min":76,"x_max":757,"o":"m 76 0 l 344 1014 l 490 1014 l 757 0 l 646 0 l 575 275 l 258 275 l 189 0 l 76 0 m 281 369 l 551 369 l 465 708 q 432 850 444 793 q 417 925 419 907 q 401 850 414 907 q 368 708 389 793 l 281 369 m 571 1138 q 509 1160 532 1138 q 486 1222 486 1183 q 509 1285 486 1263 q 571 1308 532 1308 q 633 1285 610 1308 q 656 1222 656 1263 q 633 1160 656 1183 q 571 1138 610 1138 m 265 1138 q 203 1160 226 1138 q 181 1222 181 1183 q 203 1285 181 1263 q 265 1308 226 1308 q 327 1285 304 1308 q 350 1222 350 1263 q 327 1160 350 1183 q 265 1138 304 1138 z "},"Ạ":{"ha":833,"x_min":76,"x_max":757,"o":"m 76 0 l 344 1014 l 490 1014 l 757 0 l 646 0 l 575 275 l 258 275 l 189 0 l 76 0 m 281 369 l 551 369 l 465 708 q 432 850 444 793 q 417 925 419 907 q 401 850 414 907 q 368 708 389 793 l 281 369 m 417 -293 q 348 -270 374 -293 q 322 -208 322 -247 q 348 -145 322 -168 q 417 -122 374 -122 q 485 -145 460 -122 q 511 -208 511 -168 q 485 -270 511 -247 q 417 -293 460 -293 z "},"À":{"ha":833,"x_min":76,"x_max":757,"o":"m 76 0 l 344 1014 l 490 1014 l 757 0 l 646 0 l 575 275 l 258 275 l 189 0 l 76 0 m 281 369 l 551 369 l 465 708 q 432 850 444 793 q 417 925 419 907 q 401 850 414 907 q 368 708 389 793 l 281 369 m 376 1125 l 218 1319 l 343 1319 l 494 1125 l 376 1125 z "},"Ả":{"ha":833,"x_min":76,"x_max":757,"o":"m 76 0 l 344 1014 l 490 1014 l 757 0 l 646 0 l 575 275 l 258 275 l 189 0 l 76 0 m 281 369 l 551 369 l 465 708 q 432 850 444 793 q 417 925 419 907 q 401 850 414 907 q 368 708 389 793 l 281 369 m 364 1111 l 431 1203 q 451 1250 451 1232 q 406 1281 451 1281 l 296 1281 l 296 1360 l 410 1360 q 508 1333 471 1360 q 546 1261 546 1306 q 521 1188 546 1222 l 469 1111 l 364 1111 z "},"Ā":{"ha":833,"x_min":76,"x_max":757,"o":"m 76 0 l 344 1014 l 490 1014 l 757 0 l 646 0 l 575 275 l 258 275 l 189 0 l 76 0 m 281 369 l 551 369 l 465 708 q 432 850 444 793 q 417 925 419 907 q 401 850 414 907 q 368 708 389 793 l 281 369 m 201 1172 l 201 1264 l 632 1264 l 632 1172 l 201 1172 z "},"Ą":{"ha":833,"x_min":76,"x_max":808,"o":"m 76 0 l 344 1014 l 490 1014 l 757 0 l 735 0 q 649 -133 649 -74 q 668 -183 649 -164 q 722 -203 688 -203 l 808 -203 l 808 -279 l 701 -279 q 587 -244 629 -279 q 544 -154 544 -210 q 568 -78 544 -117 q 644 1 592 -39 l 575 275 l 258 275 l 189 0 l 76 0 m 281 369 l 551 369 l 465 708 q 432 850 444 793 q 417 925 419 907 q 401 850 414 907 q 368 708 389 793 l 281 369 z "},"Å":{"ha":833,"x_min":76,"x_max":757,"o":"m 76 0 l 344 1014 l 490 1014 l 757 0 l 646 0 l 575 275 l 258 275 l 189 0 l 76 0 m 281 369 l 551 369 l 465 708 q 432 850 444 793 q 417 925 419 907 q 401 850 414 907 q 368 708 389 793 l 281 369 m 417 1069 q 300 1112 344 1069 q 256 1222 256 1154 q 300 1333 256 1290 q 417 1375 344 1375 q 533 1333 489 1375 q 578 1222 578 1290 q 533 1112 578 1154 q 417 1069 489 1069 m 417 1136 q 478 1160 456 1136 q 501 1222 501 1183 q 478 1285 501 1261 q 417 1310 456 1310 q 355 1285 378 1310 q 332 1222 332 1261 q 355 1160 332 1183 q 417 1136 378 1136 z "},"Ã":{"ha":833,"x_min":76,"x_max":757,"o":"m 76 0 l 344 1014 l 490 1014 l 757 0 l 646 0 l 575 275 l 258 275 l 189 0 l 76 0 m 281 369 l 551 369 l 465 708 q 432 850 444 793 q 417 925 419 907 q 401 850 414 907 q 368 708 389 793 l 281 369 m 515 1132 q 449 1148 475 1132 q 403 1185 422 1164 q 367 1222 385 1206 q 325 1238 349 1238 q 275 1182 275 1238 l 275 1139 l 194 1139 l 194 1182 q 228 1278 194 1244 q 319 1313 263 1313 q 387 1297 361 1313 q 432 1260 413 1281 q 469 1223 451 1239 q 511 1207 486 1207 q 558 1263 558 1207 l 558 1306 l 639 1306 l 639 1263 q 606 1166 639 1200 q 515 1132 572 1132 z "},"Æ":{"ha":833,"x_min":43,"x_max":792,"o":"m 43 0 l 261 1014 l 792 1014 l 792 914 l 529 914 l 529 576 l 753 576 l 753 476 l 529 476 l 529 100 l 792 100 l 792 0 l 422 0 l 422 286 l 215 286 l 154 0 l 43 0 m 235 379 l 422 379 l 422 914 l 346 914 l 235 379 z "},"Ǽ":{"ha":833,"x_min":43,"x_max":792,"o":"m 43 0 l 261 1014 l 792 1014 l 792 914 l 529 914 l 529 576 l 753 576 l 753 476 l 529 476 l 529 100 l 792 100 l 792 0 l 422 0 l 422 286 l 215 286 l 154 0 l 43 0 m 235 379 l 422 379 l 422 914 l 346 914 l 235 379 m 344 1125 l 492 1319 l 613 1319 l 457 1125 l 344 1125 z "},"B":{"ha":833,"x_min":136,"x_max":731,"o":"m 136 0 l 136 1014 l 415 1014 q 629 944 551 1014 q 707 751 707 874 q 666 610 707 668 q 553 532 625 551 q 683 445 636 511 q 731 281 731 379 q 651 76 731 151 q 432 0 571 0 l 136 0 m 243 574 l 415 574 q 549 619 500 574 q 597 744 597 665 q 549 869 597 824 q 415 914 500 914 l 243 914 l 243 574 m 243 100 l 422 100 q 569 149 515 100 q 622 283 622 199 q 569 424 622 371 q 422 478 515 478 l 243 478 l 243 100 z "},"C":{"ha":833,"x_min":129,"x_max":717,"o":"m 424 -14 q 208 63 288 -14 q 129 274 129 140 l 129 740 q 208 951 129 874 q 424 1028 288 1028 q 637 949 557 1028 q 717 736 717 871 l 607 736 q 558 878 607 828 q 424 929 508 929 q 288 880 336 929 q 239 740 239 831 l 239 274 q 288 134 239 183 q 424 85 336 85 q 558 135 510 85 q 607 278 607 186 l 717 278 q 637 65 717 143 q 424 -14 557 -14 z "},"Ć":{"ha":833,"x_min":129,"x_max":717,"o":"m 424 -14 q 208 63 288 -14 q 129 274 129 140 l 129 740 q 208 951 129 874 q 424 1028 288 1028 q 637 949 557 1028 q 717 736 717 871 l 607 736 q 558 878 607 828 q 424 929 508 929 q 288 880 336 929 q 239 740 239 831 l 239 274 q 288 134 239 183 q 424 85 336 85 q 558 135 510 85 q 607 278 607 186 l 717 278 q 637 65 717 143 q 424 -14 557 -14 m 351 1125 l 499 1319 l 619 1319 l 464 1125 l 351 1125 z "},"Č":{"ha":833,"x_min":129,"x_max":717,"o":"m 424 -14 q 208 63 288 -14 q 129 274 129 140 l 129 740 q 208 951 129 874 q 424 1028 288 1028 q 637 949 557 1028 q 717 736 717 871 l 607 736 q 558 878 607 828 q 424 929 508 929 q 288 880 336 929 q 239 740 239 831 l 239 274 q 288 134 239 183 q 424 85 336 85 q 558 135 510 85 q 607 278 607 186 l 717 278 q 637 65 717 143 q 424 -14 557 -14 m 371 1125 l 183 1319 l 303 1319 l 425 1200 l 543 1319 l 664 1319 l 478 1125 l 371 1125 z "},"Ç":{"ha":833,"x_min":129,"x_max":717,"o":"m 303 -279 l 303 -210 l 404 -210 q 454 -194 435 -210 q 474 -158 474 -178 q 434 -113 474 -132 q 324 -94 394 -94 l 356 -8 q 190 84 250 10 q 129 274 129 158 l 129 740 q 208 951 129 874 q 424 1028 288 1028 q 637 949 557 1028 q 717 736 717 871 l 607 736 q 558 878 607 828 q 424 929 508 929 q 288 880 336 929 q 239 740 239 831 l 239 274 q 288 134 239 183 q 424 85 336 85 q 558 135 510 85 q 607 278 607 186 l 717 278 q 638 65 717 143 q 428 -14 558 -14 l 415 -49 q 488 -65 450 -51 q 552 -104 526 -79 q 578 -165 578 -129 q 534 -246 578 -212 q 419 -279 490 -279 l 303 -279 z "},"Ĉ":{"ha":833,"x_min":129,"x_max":717,"o":"m 424 -14 q 208 63 288 -14 q 129 274 129 140 l 129 740 q 208 951 129 874 q 424 1028 288 1028 q 637 949 557 1028 q 717 736 717 871 l 607 736 q 558 878 607 828 q 424 929 508 929 q 288 880 336 929 q 239 740 239 831 l 239 274 q 288 134 239 183 q 424 85 336 85 q 558 135 510 85 q 607 278 607 186 l 717 278 q 637 65 717 143 q 424 -14 557 -14 m 183 1125 l 369 1319 l 476 1319 l 664 1125 l 544 1125 l 424 1244 l 306 1125 l 183 1125 z "},"Ċ":{"ha":833,"x_min":129,"x_max":717,"o":"m 424 -14 q 208 63 288 -14 q 129 274 129 140 l 129 740 q 208 951 129 874 q 424 1028 288 1028 q 637 949 557 1028 q 717 736 717 871 l 607 736 q 558 878 607 828 q 424 929 508 929 q 288 880 336 929 q 239 740 239 831 l 239 274 q 288 134 239 183 q 424 85 336 85 q 558 135 510 85 q 607 278 607 186 l 717 278 q 637 65 717 143 q 424 -14 557 -14 m 424 1136 q 355 1160 381 1136 q 329 1222 329 1183 q 355 1285 329 1261 q 424 1308 381 1308 q 492 1285 467 1308 q 518 1222 518 1261 q 492 1160 518 1183 q 424 1136 467 1136 z "},"D":{"ha":833,"x_min":135,"x_max":704,"o":"m 135 0 l 135 1014 l 386 1014 q 555 976 483 1014 q 665 870 626 939 q 704 710 704 801 l 704 306 q 665 144 704 213 q 555 38 626 75 q 386 0 483 0 l 135 0 m 244 99 l 386 99 q 538 154 482 99 q 594 306 594 210 l 594 710 q 538 860 594 804 q 386 915 482 915 l 244 915 l 244 99 z "},"Ð":{"ha":833,"x_min":14,"x_max":704,"o":"m 135 0 l 135 471 l 14 471 l 14 564 l 135 564 l 135 1014 l 386 1014 q 555 976 483 1014 q 665 870 626 939 q 704 710 704 801 l 704 306 q 665 144 704 213 q 555 38 626 75 q 386 0 483 0 l 135 0 m 244 99 l 386 99 q 538 154 482 99 q 594 306 594 210 l 594 710 q 538 860 594 804 q 386 915 482 915 l 244 915 l 244 564 l 403 564 l 403 471 l 244 471 l 244 99 z "},"Ď":{"ha":833,"x_min":135,"x_max":704,"o":"m 135 0 l 135 1014 l 386 1014 q 555 976 483 1014 q 665 870 626 939 q 704 710 704 801 l 704 306 q 665 144 704 213 q 555 38 626 75 q 386 0 483 0 l 135 0 m 244 99 l 386 99 q 538 154 482 99 q 594 306 594 210 l 594 710 q 538 860 594 804 q 386 915 482 915 l 244 915 l 244 99 m 364 1125 l 176 1319 l 296 1319 l 418 1200 l 536 1319 l 657 1319 l 471 1125 l 364 1125 z "},"Đ":{"ha":833,"x_min":14,"x_max":704,"o":"m 135 0 l 135 471 l 14 471 l 14 564 l 135 564 l 135 1014 l 386 1014 q 555 976 483 1014 q 665 870 626 939 q 704 710 704 801 l 704 306 q 665 144 704 213 q 555 38 626 75 q 386 0 483 0 l 135 0 m 244 99 l 386 99 q 538 154 482 99 q 594 306 594 210 l 594 710 q 538 860 594 804 q 386 915 482 915 l 244 915 l 244 564 l 403 564 l 403 471 l 244 471 l 244 99 z "},"E":{"ha":833,"x_min":146,"x_max":718,"o":"m 146 0 l 146 1014 l 718 1014 l 718 914 l 256 914 l 256 579 l 669 579 l 669 481 l 256 481 l 256 100 l 718 100 l 718 0 l 146 0 z "},"É":{"ha":833,"x_min":146,"x_max":718,"o":"m 146 0 l 146 1014 l 718 1014 l 718 914 l 256 914 l 256 579 l 669 579 l 669 481 l 256 481 l 256 100 l 718 100 l 718 0 l 146 0 m 372 1125 l 519 1319 l 640 1319 l 485 1125 l 372 1125 z "},"Ĕ":{"ha":833,"x_min":146,"x_max":718,"o":"m 146 0 l 146 1014 l 718 1014 l 718 914 l 256 914 l 256 579 l 669 579 l 669 481 l 256 481 l 256 100 l 718 100 l 718 0 l 146 0 m 444 1119 q 287 1174 346 1119 q 228 1319 228 1229 l 317 1319 q 351 1228 317 1263 q 443 1193 386 1193 q 537 1228 501 1193 q 572 1319 572 1263 l 661 1319 q 602 1174 661 1229 q 444 1119 543 1119 z "},"Ě":{"ha":833,"x_min":146,"x_max":718,"o":"m 146 0 l 146 1014 l 718 1014 l 718 914 l 256 914 l 256 579 l 669 579 l 669 481 l 256 481 l 256 100 l 718 100 l 718 0 l 146 0 m 392 1125 l 204 1319 l 324 1319 l 446 1200 l 564 1319 l 685 1319 l 499 1125 l 392 1125 z "},"Ê":{"ha":833,"x_min":146,"x_max":718,"o":"m 146 0 l 146 1014 l 718 1014 l 718 914 l 256 914 l 256 579 l 669 579 l 669 481 l 256 481 l 256 100 l 718 100 l 718 0 l 146 0 m 204 1125 l 390 1319 l 497 1319 l 685 1125 l 565 1125 l 444 1244 l 326 1125 l 204 1125 z "},"Ế":{"ha":833,"x_min":146,"x_max":865,"o":"m 146 0 l 146 1014 l 718 1014 l 718 914 l 256 914 l 256 579 l 669 579 l 669 481 l 256 481 l 256 100 l 718 100 l 718 0 l 146 0 m 593 1249 l 739 1417 l 865 1417 l 711 1249 l 593 1249 m 206 1083 l 390 1278 l 499 1278 l 685 1083 l 564 1083 l 444 1203 l 325 1083 l 206 1083 z "},"Ệ":{"ha":833,"x_min":146,"x_max":718,"o":"m 146 0 l 146 1014 l 718 1014 l 718 914 l 256 914 l 256 579 l 669 579 l 669 481 l 256 481 l 256 100 l 718 100 l 718 0 l 146 0 m 444 -293 q 376 -270 401 -293 q 350 -208 350 -247 q 376 -145 350 -168 q 444 -122 401 -122 q 513 -145 488 -122 q 539 -208 539 -168 q 513 -270 539 -247 q 444 -293 488 -293 m 204 1125 l 390 1319 l 497 1319 l 685 1125 l 565 1125 l 444 1244 l 326 1125 l 204 1125 z "},"Ề":{"ha":833,"x_min":146,"x_max":761,"o":"m 146 0 l 146 1014 l 718 1014 l 718 914 l 256 914 l 256 579 l 669 579 l 669 481 l 256 481 l 256 100 l 718 100 l 718 0 l 146 0 m 646 1249 l 479 1417 l 604 1417 l 761 1249 l 646 1249 m 206 1083 l 390 1278 l 499 1278 l 685 1083 l 564 1083 l 444 1203 l 325 1083 l 206 1083 z "},"Ể":{"ha":833,"x_min":146,"x_max":788,"o":"m 146 0 l 146 1014 l 718 1014 l 718 914 l 256 914 l 256 579 l 669 579 l 669 481 l 256 481 l 256 100 l 718 100 l 718 0 l 146 0 m 617 1222 l 682 1290 q 697 1321 697 1306 q 672 1344 697 1344 l 578 1344 l 578 1417 l 690 1417 q 762 1394 736 1417 q 788 1335 788 1372 q 761 1269 788 1297 l 713 1222 l 617 1222 m 206 1083 l 390 1278 l 499 1278 l 685 1083 l 564 1083 l 444 1203 l 325 1083 l 206 1083 z "},"Ễ":{"ha":833,"x_min":146,"x_max":718,"o":"m 146 0 l 146 1014 l 718 1014 l 718 914 l 256 914 l 256 579 l 669 579 l 669 481 l 256 481 l 256 100 l 718 100 l 718 0 l 146 0 m 550 1278 q 480 1288 508 1278 q 431 1313 451 1299 q 390 1338 410 1328 q 347 1349 371 1349 q 314 1337 326 1349 q 301 1304 301 1325 l 301 1292 l 221 1292 l 221 1304 q 253 1386 221 1356 q 342 1417 286 1417 q 413 1406 385 1417 q 462 1381 442 1396 q 501 1356 482 1367 q 543 1346 519 1346 q 575 1358 563 1346 q 588 1390 588 1369 l 588 1403 l 668 1403 l 668 1390 q 636 1308 668 1339 q 550 1278 604 1278 m 206 1083 l 368 1240 l 521 1240 l 683 1083 l 563 1083 l 444 1192 l 325 1083 l 206 1083 z "},"Ë":{"ha":833,"x_min":146,"x_max":718,"o":"m 146 0 l 146 1014 l 718 1014 l 718 914 l 256 914 l 256 579 l 669 579 l 669 481 l 256 481 l 256 100 l 718 100 l 718 0 l 146 0 m 599 1138 q 537 1160 560 1138 q 514 1222 514 1183 q 537 1285 514 1263 q 599 1308 560 1308 q 660 1285 638 1308 q 683 1222 683 1263 q 660 1160 683 1183 q 599 1138 638 1138 m 293 1138 q 231 1160 254 1138 q 208 1222 208 1183 q 231 1285 208 1263 q 293 1308 254 1308 q 355 1285 332 1308 q 378 1222 378 1263 q 355 1160 378 1183 q 293 1138 332 1138 z "},"Ė":{"ha":833,"x_min":146,"x_max":718,"o":"m 146 0 l 146 1014 l 718 1014 l 718 914 l 256 914 l 256 579 l 669 579 l 669 481 l 256 481 l 256 100 l 718 100 l 718 0 l 146 0 m 444 1136 q 376 1160 401 1136 q 350 1222 350 1183 q 376 1285 350 1261 q 444 1308 401 1308 q 513 1285 488 1308 q 539 1222 539 1261 q 513 1160 539 1183 q 444 1136 488 1136 z "},"Ẹ":{"ha":833,"x_min":146,"x_max":718,"o":"m 146 0 l 146 1014 l 718 1014 l 718 914 l 256 914 l 256 579 l 669 579 l 669 481 l 256 481 l 256 100 l 718 100 l 718 0 l 146 0 m 444 -293 q 376 -270 401 -293 q 350 -208 350 -247 q 376 -145 350 -168 q 444 -122 401 -122 q 513 -145 488 -122 q 539 -208 539 -168 q 513 -270 539 -247 q 444 -293 488 -293 z "},"È":{"ha":833,"x_min":146,"x_max":718,"o":"m 146 0 l 146 1014 l 718 1014 l 718 914 l 256 914 l 256 579 l 669 579 l 669 481 l 256 481 l 256 100 l 718 100 l 718 0 l 146 0 m 404 1125 l 246 1319 l 371 1319 l 522 1125 l 404 1125 z "},"Ẻ":{"ha":833,"x_min":146,"x_max":718,"o":"m 146 0 l 146 1014 l 718 1014 l 718 914 l 256 914 l 256 579 l 669 579 l 669 481 l 256 481 l 256 100 l 718 100 l 718 0 l 146 0 m 392 1111 l 458 1203 q 479 1250 479 1232 q 433 1281 479 1281 l 324 1281 l 324 1360 l 438 1360 q 536 1333 499 1360 q 574 1261 574 1306 q 549 1188 574 1222 l 497 1111 l 392 1111 z "},"Ē":{"ha":833,"x_min":146,"x_max":718,"o":"m 146 0 l 146 1014 l 718 1014 l 718 914 l 256 914 l 256 579 l 669 579 l 669 481 l 256 481 l 256 100 l 718 100 l 718 0 l 146 0 m 229 1172 l 229 1264 l 660 1264 l 660 1172 l 229 1172 z "},"Ę":{"ha":833,"x_min":146,"x_max":725,"o":"m 146 0 l 146 1014 l 718 1014 l 718 914 l 256 914 l 256 579 l 669 579 l 669 481 l 256 481 l 256 100 l 718 100 l 718 0 l 653 0 q 565 -133 565 -74 q 585 -183 565 -164 q 640 -203 606 -203 l 725 -203 l 725 -279 l 619 -279 q 504 -244 547 -279 q 461 -154 461 -210 q 485 -79 461 -118 q 560 0 508 -40 l 146 0 z "},"Ɛ":{"ha":833,"x_min":103,"x_max":754,"o":"m 432 -14 q 600 22 528 -14 q 713 120 672 57 q 754 267 754 183 l 644 267 q 584 135 643 185 q 432 85 525 85 q 274 138 333 85 q 214 281 214 192 q 274 422 214 368 q 432 476 333 476 l 551 476 l 551 575 l 435 575 q 291 624 346 575 q 236 753 236 674 q 291 881 236 832 q 435 931 346 931 q 578 880 524 931 q 633 747 633 829 l 743 747 q 704 894 743 832 q 595 992 665 957 q 432 1028 525 1028 q 272 994 340 1028 q 165 900 203 961 q 126 758 126 839 q 172 611 126 671 q 296 533 217 551 q 155 449 207 515 q 103 282 103 382 q 144 126 103 193 q 259 23 185 60 q 432 -14 333 -14 z "},"Ẽ":{"ha":833,"x_min":146,"x_max":718,"o":"m 146 0 l 146 1014 l 718 1014 l 718 914 l 256 914 l 256 579 l 669 579 l 669 481 l 256 481 l 256 100 l 718 100 l 718 0 l 146 0 m 543 1132 q 476 1148 503 1132 q 431 1185 450 1164 q 394 1222 413 1206 q 353 1238 376 1238 q 303 1182 303 1238 l 303 1139 l 222 1139 l 222 1182 q 256 1278 222 1244 q 347 1313 290 1313 q 415 1297 389 1313 q 460 1260 440 1281 q 497 1223 479 1239 q 539 1207 514 1207 q 586 1263 586 1207 l 586 1306 l 667 1306 l 667 1263 q 633 1166 667 1200 q 543 1132 600 1132 z "},"F":{"ha":833,"x_min":139,"x_max":729,"o":"m 139 0 l 139 1014 l 729 1014 l 729 914 l 247 914 l 247 558 l 690 558 l 690 458 l 250 458 l 250 0 l 139 0 z "},"G":{"ha":833,"x_min":129,"x_max":717,"o":"m 424 -14 q 208 63 288 -14 q 129 274 129 140 l 129 740 q 208 951 129 874 q 424 1028 288 1028 q 637 949 557 1028 q 717 736 717 871 l 607 736 q 558 878 607 828 q 424 929 508 929 q 288 880 336 929 q 239 740 239 831 l 239 274 q 288 134 239 183 q 424 85 336 85 q 558 135 510 85 q 607 278 607 186 l 607 410 l 392 410 l 392 511 l 717 511 l 717 278 q 637 65 717 143 q 424 -14 557 -14 z "},"Ǵ":{"ha":833,"x_min":129,"x_max":717,"o":"m 424 -14 q 208 63 288 -14 q 129 274 129 140 l 129 740 q 208 951 129 874 q 424 1028 288 1028 q 637 949 557 1028 q 717 736 717 871 l 607 736 q 558 878 607 828 q 424 929 508 929 q 288 880 336 929 q 239 740 239 831 l 239 274 q 288 134 239 183 q 424 85 336 85 q 558 135 510 85 q 607 278 607 186 l 607 410 l 392 410 l 392 511 l 717 511 l 717 278 q 637 65 717 143 q 424 -14 557 -14 m 347 1125 l 494 1319 l 615 1319 l 460 1125 l 347 1125 z "},"Ğ":{"ha":833,"x_min":129,"x_max":717,"o":"m 424 -14 q 208 63 288 -14 q 129 274 129 140 l 129 740 q 208 951 129 874 q 424 1028 288 1028 q 637 949 557 1028 q 717 736 717 871 l 607 736 q 558 878 607 828 q 424 929 508 929 q 288 880 336 929 q 239 740 239 831 l 239 274 q 288 134 239 183 q 424 85 336 85 q 558 135 510 85 q 607 278 607 186 l 607 410 l 392 410 l 392 511 l 717 511 l 717 278 q 637 65 717 143 q 424 -14 557 -14 m 419 1119 q 262 1174 321 1119 q 203 1319 203 1229 l 292 1319 q 326 1228 292 1263 q 418 1193 361 1193 q 512 1228 476 1193 q 547 1319 547 1263 l 636 1319 q 577 1174 636 1229 q 419 1119 518 1119 z "},"Ǧ":{"ha":833,"x_min":129,"x_max":717,"o":"m 424 -14 q 208 63 288 -14 q 129 274 129 140 l 129 740 q 208 951 129 874 q 424 1028 288 1028 q 637 949 557 1028 q 717 736 717 871 l 607 736 q 558 878 607 828 q 424 929 508 929 q 288 880 336 929 q 239 740 239 831 l 239 274 q 288 134 239 183 q 424 85 336 85 q 558 135 510 85 q 607 278 607 186 l 607 410 l 392 410 l 392 511 l 717 511 l 717 278 q 637 65 717 143 q 424 -14 557 -14 m 367 1125 l 179 1319 l 299 1319 l 421 1200 l 539 1319 l 660 1319 l 474 1125 l 367 1125 z "},"Ĝ":{"ha":833,"x_min":129,"x_max":717,"o":"m 424 -14 q 208 63 288 -14 q 129 274 129 140 l 129 740 q 208 951 129 874 q 424 1028 288 1028 q 637 949 557 1028 q 717 736 717 871 l 607 736 q 558 878 607 828 q 424 929 508 929 q 288 880 336 929 q 239 740 239 831 l 239 274 q 288 134 239 183 q 424 85 336 85 q 558 135 510 85 q 607 278 607 186 l 607 410 l 392 410 l 392 511 l 717 511 l 717 278 q 637 65 717 143 q 424 -14 557 -14 m 179 1125 l 365 1319 l 472 1319 l 660 1125 l 540 1125 l 419 1244 l 301 1125 l 179 1125 z "},"Ģ":{"ha":833,"x_min":129,"x_max":717,"o":"m 424 -14 q 208 63 288 -14 q 129 274 129 140 l 129 740 q 208 951 129 874 q 424 1028 288 1028 q 637 949 557 1028 q 717 736 717 871 l 607 736 q 558 878 607 828 q 424 929 508 929 q 288 880 336 929 q 239 740 239 831 l 239 274 q 288 134 239 183 q 424 85 336 85 q 558 135 510 85 q 607 278 607 186 l 607 410 l 392 410 l 392 511 l 717 511 l 717 278 q 637 65 717 143 q 424 -14 557 -14 m 281 -333 l 410 -132 l 542 -132 l 396 -333 l 281 -333 z "},"Ġ":{"ha":833,"x_min":129,"x_max":717,"o":"m 424 -14 q 208 63 288 -14 q 129 274 129 140 l 129 740 q 208 951 129 874 q 424 1028 288 1028 q 637 949 557 1028 q 717 736 717 871 l 607 736 q 558 878 607 828 q 424 929 508 929 q 288 880 336 929 q 239 740 239 831 l 239 274 q 288 134 239 183 q 424 85 336 85 q 558 135 510 85 q 607 278 607 186 l 607 410 l 392 410 l 392 511 l 717 511 l 717 278 q 637 65 717 143 q 424 -14 557 -14 m 419 1136 q 351 1160 376 1136 q 325 1222 325 1183 q 351 1285 325 1261 q 419 1308 376 1308 q 488 1285 463 1308 q 514 1222 514 1261 q 488 1160 514 1183 q 419 1136 463 1136 z "},"H":{"ha":833,"x_min":136,"x_max":697,"o":"m 136 0 l 136 1014 l 246 1014 l 246 575 l 588 575 l 588 1014 l 697 1014 l 697 0 l 588 0 l 588 474 l 246 474 l 246 0 l 136 0 z "},"Ħ":{"ha":833,"x_min":14,"x_max":819,"o":"m 136 0 l 136 735 l 14 735 l 14 828 l 136 828 l 136 1014 l 246 1014 l 246 828 l 588 828 l 588 1014 l 697 1014 l 697 828 l 819 828 l 819 735 l 697 735 l 697 0 l 588 0 l 588 474 l 246 474 l 246 0 l 136 0 m 246 575 l 588 575 l 588 735 l 246 735 l 246 575 z "},"Ĥ":{"ha":833,"x_min":136,"x_max":697,"o":"m 136 0 l 136 1014 l 246 1014 l 246 575 l 588 575 l 588 1014 l 697 1014 l 697 0 l 588 0 l 588 474 l 246 474 l 246 0 l 136 0 m 176 1125 l 363 1319 l 469 1319 l 657 1125 l 538 1125 l 417 1244 l 299 1125 l 176 1125 z "},"I":{"ha":833,"x_min":151,"x_max":682,"o":"m 151 0 l 151 100 l 361 100 l 361 914 l 151 914 l 151 1014 l 682 1014 l 682 914 l 474 914 l 474 100 l 682 100 l 682 0 l 151 0 z "},"Í":{"ha":833,"x_min":151,"x_max":682,"o":"m 151 0 l 151 100 l 361 100 l 361 914 l 151 914 l 151 1014 l 682 1014 l 682 914 l 474 914 l 474 100 l 682 100 l 682 0 l 151 0 m 344 1125 l 492 1319 l 613 1319 l 457 1125 l 344 1125 z "},"Ĭ":{"ha":833,"x_min":151,"x_max":682,"o":"m 151 0 l 151 100 l 361 100 l 361 914 l 151 914 l 151 1014 l 682 1014 l 682 914 l 474 914 l 474 100 l 682 100 l 682 0 l 151 0 m 417 1119 q 259 1174 318 1119 q 200 1319 200 1229 l 289 1319 q 324 1228 289 1263 q 415 1193 358 1193 q 509 1228 474 1193 q 544 1319 544 1263 l 633 1319 q 574 1174 633 1229 q 417 1119 515 1119 z "},"Î":{"ha":833,"x_min":151,"x_max":682,"o":"m 151 0 l 151 100 l 361 100 l 361 914 l 151 914 l 151 1014 l 682 1014 l 682 914 l 474 914 l 474 100 l 682 100 l 682 0 l 151 0 m 176 1125 l 363 1319 l 469 1319 l 657 1125 l 538 1125 l 417 1244 l 299 1125 l 176 1125 z "},"Ï":{"ha":833,"x_min":151,"x_max":682,"o":"m 151 0 l 151 100 l 361 100 l 361 914 l 151 914 l 151 1014 l 682 1014 l 682 914 l 474 914 l 474 100 l 682 100 l 682 0 l 151 0 m 571 1138 q 509 1160 532 1138 q 486 1222 486 1183 q 509 1285 486 1263 q 571 1308 532 1308 q 633 1285 610 1308 q 656 1222 656 1263 q 633 1160 656 1183 q 571 1138 610 1138 m 265 1138 q 203 1160 226 1138 q 181 1222 181 1183 q 203 1285 181 1263 q 265 1308 226 1308 q 327 1285 304 1308 q 350 1222 350 1263 q 327 1160 350 1183 q 265 1138 304 1138 z "},"İ":{"ha":833,"x_min":151,"x_max":682,"o":"m 151 0 l 151 100 l 361 100 l 361 914 l 151 914 l 151 1014 l 682 1014 l 682 914 l 474 914 l 474 100 l 682 100 l 682 0 l 151 0 m 417 1136 q 348 1160 374 1136 q 322 1222 322 1183 q 348 1285 322 1261 q 417 1308 374 1308 q 485 1285 460 1308 q 511 1222 511 1261 q 485 1160 511 1183 q 417 1136 460 1136 z "},"Ị":{"ha":833,"x_min":151,"x_max":682,"o":"m 151 0 l 151 100 l 361 100 l 361 914 l 151 914 l 151 1014 l 682 1014 l 682 914 l 474 914 l 474 100 l 682 100 l 682 0 l 151 0 m 417 -293 q 348 -270 374 -293 q 322 -208 322 -247 q 348 -145 322 -168 q 417 -122 374 -122 q 485 -145 460 -122 q 511 -208 511 -168 q 485 -270 511 -247 q 417 -293 460 -293 z "},"Ì":{"ha":833,"x_min":151,"x_max":682,"o":"m 151 0 l 151 100 l 361 100 l 361 914 l 151 914 l 151 1014 l 682 1014 l 682 914 l 474 914 l 474 100 l 682 100 l 682 0 l 151 0 m 376 1125 l 218 1319 l 343 1319 l 494 1125 l 376 1125 z "},"Ỉ":{"ha":833,"x_min":151,"x_max":682,"o":"m 151 0 l 151 100 l 361 100 l 361 914 l 151 914 l 151 1014 l 682 1014 l 682 914 l 474 914 l 474 100 l 682 100 l 682 0 l 151 0 m 364 1111 l 431 1203 q 451 1250 451 1232 q 406 1281 451 1281 l 296 1281 l 296 1360 l 410 1360 q 508 1333 471 1360 q 546 1261 546 1306 q 521 1188 546 1222 l 469 1111 l 364 1111 z "},"Ī":{"ha":833,"x_min":151,"x_max":682,"o":"m 151 0 l 151 100 l 361 100 l 361 914 l 151 914 l 151 1014 l 682 1014 l 682 914 l 474 914 l 474 100 l 682 100 l 682 0 l 151 0 m 201 1172 l 201 1264 l 632 1264 l 632 1172 l 201 1172 z "},"Į":{"ha":833,"x_min":151,"x_max":682,"o":"m 151 0 l 151 100 l 361 100 l 361 914 l 151 914 l 151 1014 l 682 1014 l 682 914 l 474 914 l 474 100 l 682 100 l 682 0 l 458 0 q 371 -133 371 -74 q 391 -183 371 -164 q 446 -203 411 -203 l 531 -203 l 531 -279 l 425 -279 q 310 -244 353 -279 q 267 -154 267 -210 q 290 -79 267 -118 q 365 0 314 -40 l 151 0 z "},"Ĩ":{"ha":833,"x_min":151,"x_max":682,"o":"m 151 0 l 151 100 l 361 100 l 361 914 l 151 914 l 151 1014 l 682 1014 l 682 914 l 474 914 l 474 100 l 682 100 l 682 0 l 151 0 m 515 1132 q 449 1148 475 1132 q 403 1185 422 1164 q 367 1222 385 1206 q 325 1238 349 1238 q 275 1182 275 1238 l 275 1139 l 194 1139 l 194 1182 q 228 1278 194 1244 q 319 1313 263 1313 q 387 1297 361 1313 q 432 1260 413 1281 q 469 1223 451 1239 q 511 1207 486 1207 q 558 1263 558 1207 l 558 1306 l 639 1306 l 639 1263 q 606 1166 639 1200 q 515 1132 572 1132 z "},"J":{"ha":833,"x_min":72,"x_max":682,"o":"m 376 -14 q 153 67 235 -14 q 72 288 72 147 l 182 288 q 233 138 182 192 q 376 85 285 85 q 520 138 468 85 q 572 288 572 192 l 572 913 l 279 913 l 279 1014 l 682 1014 l 682 288 q 600 67 682 147 q 376 -14 518 -14 z "},"Ĵ":{"ha":833,"x_min":72,"x_max":740,"o":"m 376 -14 q 153 67 235 -14 q 72 288 72 147 l 182 288 q 233 138 182 192 q 376 85 285 85 q 520 138 468 85 q 572 288 572 192 l 572 913 l 279 913 l 279 1014 l 682 1014 l 682 288 q 600 67 682 147 q 376 -14 518 -14 m 260 1125 l 446 1319 l 553 1319 l 740 1125 l 621 1125 l 500 1244 l 382 1125 l 260 1125 z "},"K":{"ha":833,"x_min":135,"x_max":771,"o":"m 135 0 l 135 1014 l 244 1014 l 244 574 l 411 574 l 636 1014 l 757 1014 l 508 528 l 771 0 l 643 0 l 408 476 l 244 476 l 244 0 l 135 0 z "},"Ķ":{"ha":833,"x_min":135,"x_max":771,"o":"m 135 0 l 135 1014 l 244 1014 l 244 574 l 411 574 l 636 1014 l 757 1014 l 508 528 l 771 0 l 643 0 l 408 476 l 244 476 l 244 0 l 135 0 m 274 -333 l 403 -132 l 535 -132 l 389 -333 l 274 -333 z "},"L":{"ha":833,"x_min":185,"x_max":763,"o":"m 185 0 l 185 1014 l 294 1014 l 294 100 l 763 100 l 763 0 l 185 0 z "},"Ĺ":{"ha":833,"x_min":168,"x_max":763,"o":"m 185 0 l 185 1014 l 294 1014 l 294 100 l 763 100 l 763 0 l 185 0 m 168 1125 l 315 1319 l 436 1319 l 281 1125 l 168 1125 z "},"Ľ":{"ha":833,"x_min":185,"x_max":953,"o":"m 185 0 l 185 1014 l 294 1014 l 294 100 l 763 100 l 763 0 l 185 0 m 833 1014 l 847 1264 l 953 1264 l 925 1014 l 833 1014 z "},"Ļ":{"ha":833,"x_min":185,"x_max":763,"o":"m 185 0 l 185 1014 l 294 1014 l 294 100 l 763 100 l 763 0 l 185 0 m 329 -333 l 458 -132 l 590 -132 l 444 -333 l 329 -333 z "},"Ŀ":{"ha":833,"x_min":185,"x_max":763,"o":"m 185 0 l 185 1014 l 294 1014 l 294 100 l 763 100 l 763 0 l 185 0 m 617 368 q 535 398 565 368 q 506 478 506 428 q 535 561 506 531 q 617 592 565 592 q 698 561 668 592 q 728 478 728 531 q 698 398 728 428 q 617 368 668 368 z "},"Ł":{"ha":833,"x_min":28,"x_max":765,"o":"m 188 0 l 188 432 l 28 324 l 28 425 l 188 533 l 188 1014 l 299 1014 l 299 608 l 542 774 l 542 672 l 299 507 l 299 100 l 765 100 l 765 0 l 188 0 z "},"M":{"ha":833,"x_min":111,"x_max":722,"o":"m 111 0 l 111 1014 l 260 1014 l 376 669 q 402 588 390 629 q 419 522 414 546 q 436 588 425 546 q 461 671 447 629 l 574 1014 l 722 1014 l 722 0 l 614 0 l 614 514 q 622 749 614 633 q 643 958 631 864 l 471 446 l 363 446 l 189 958 q 210 755 201 867 q 219 514 219 643 l 219 0 l 111 0 z "},"N":{"ha":833,"x_min":132,"x_max":701,"o":"m 132 0 l 132 1014 l 279 1014 l 606 128 q 601 206 604 160 q 597 300 599 251 q 594 389 594 349 l 594 1014 l 701 1014 l 701 0 l 553 0 l 229 886 q 235 769 232 844 q 239 625 239 694 l 239 0 l 132 0 z "},"Ń":{"ha":833,"x_min":132,"x_max":701,"o":"m 132 0 l 132 1014 l 279 1014 l 606 128 q 601 206 604 160 q 597 300 599 251 q 594 389 594 349 l 594 1014 l 701 1014 l 701 0 l 553 0 l 229 886 q 235 769 232 844 q 239 625 239 694 l 239 0 l 132 0 m 344 1125 l 492 1319 l 613 1319 l 457 1125 l 344 1125 z "},"Ň":{"ha":833,"x_min":132,"x_max":701,"o":"m 132 0 l 132 1014 l 279 1014 l 606 128 q 601 206 604 160 q 597 300 599 251 q 594 389 594 349 l 594 1014 l 701 1014 l 701 0 l 553 0 l 229 886 q 235 769 232 844 q 239 625 239 694 l 239 0 l 132 0 m 364 1125 l 176 1319 l 296 1319 l 418 1200 l 536 1319 l 657 1319 l 471 1125 l 364 1125 z "},"Ņ":{"ha":833,"x_min":132,"x_max":701,"o":"m 132 0 l 132 1014 l 279 1014 l 606 128 q 601 206 604 160 q 597 300 599 251 q 594 389 594 349 l 594 1014 l 701 1014 l 701 0 l 553 0 l 229 886 q 235 769 232 844 q 239 625 239 694 l 239 0 l 132 0 m 274 -333 l 403 -132 l 535 -132 l 389 -333 l 274 -333 z "},"Ŋ":{"ha":833,"x_min":132,"x_max":701,"o":"m 329 -250 l 329 -150 l 425 -150 q 547 -106 503 -150 q 592 15 592 -62 l 229 886 q 235 769 232 844 q 239 625 239 694 l 239 0 l 132 0 l 132 1014 l 279 1014 l 607 219 q 599 340 603 264 q 594 486 594 415 l 594 1014 l 701 1014 l 701 15 q 626 -178 701 -107 q 425 -250 551 -250 l 329 -250 z "},"Ñ":{"ha":833,"x_min":132,"x_max":701,"o":"m 132 0 l 132 1014 l 279 1014 l 606 128 q 601 206 604 160 q 597 300 599 251 q 594 389 594 349 l 594 1014 l 701 1014 l 701 0 l 553 0 l 229 886 q 235 769 232 844 q 239 625 239 694 l 239 0 l 132 0 m 515 1132 q 449 1148 475 1132 q 403 1185 422 1164 q 367 1222 385 1206 q 325 1238 349 1238 q 275 1182 275 1238 l 275 1139 l 194 1139 l 194 1182 q 228 1278 194 1244 q 319 1313 263 1313 q 387 1297 361 1313 q 432 1260 413 1281 q 469 1223 451 1239 q 511 1207 486 1207 q 558 1263 558 1207 l 558 1306 l 639 1306 l 639 1263 q 606 1166 639 1200 q 515 1132 572 1132 z "},"O":{"ha":833,"x_min":129,"x_max":704,"o":"m 417 -14 q 206 63 283 -14 q 129 274 129 140 l 129 740 q 206 951 129 874 q 417 1028 283 1028 q 627 951 550 1028 q 704 740 704 874 l 704 274 q 627 63 704 140 q 417 -14 550 -14 m 417 85 q 548 134 501 85 q 594 274 594 183 l 594 740 q 548 880 594 831 q 417 929 501 929 q 285 880 332 929 q 239 740 239 831 l 239 274 q 285 134 239 183 q 417 85 332 85 z "},"Ó":{"ha":833,"x_min":129,"x_max":704,"o":"m 417 -14 q 206 63 283 -14 q 129 274 129 140 l 129 740 q 206 951 129 874 q 417 1028 283 1028 q 627 951 550 1028 q 704 740 704 874 l 704 274 q 627 63 704 140 q 417 -14 550 -14 m 417 85 q 548 134 501 85 q 594 274 594 183 l 594 740 q 548 880 594 831 q 417 929 501 929 q 285 880 332 929 q 239 740 239 831 l 239 274 q 285 134 239 183 q 417 85 332 85 m 344 1125 l 492 1319 l 613 1319 l 457 1125 l 344 1125 z "},"Ŏ":{"ha":833,"x_min":129,"x_max":704,"o":"m 417 -14 q 206 63 283 -14 q 129 274 129 140 l 129 740 q 206 951 129 874 q 417 1028 283 1028 q 627 951 550 1028 q 704 740 704 874 l 704 274 q 627 63 704 140 q 417 -14 550 -14 m 417 85 q 548 134 501 85 q 594 274 594 183 l 594 740 q 548 880 594 831 q 417 929 501 929 q 285 880 332 929 q 239 740 239 831 l 239 274 q 285 134 239 183 q 417 85 332 85 m 417 1119 q 259 1174 318 1119 q 200 1319 200 1229 l 289 1319 q 324 1228 289 1263 q 415 1193 358 1193 q 509 1228 474 1193 q 544 1319 544 1263 l 633 1319 q 574 1174 633 1229 q 417 1119 515 1119 z "},"Ô":{"ha":833,"x_min":129,"x_max":704,"o":"m 417 -14 q 206 63 283 -14 q 129 274 129 140 l 129 740 q 206 951 129 874 q 417 1028 283 1028 q 627 951 550 1028 q 704 740 704 874 l 704 274 q 627 63 704 140 q 417 -14 550 -14 m 417 85 q 548 134 501 85 q 594 274 594 183 l 594 740 q 548 880 594 831 q 417 929 501 929 q 285 880 332 929 q 239 740 239 831 l 239 274 q 285 134 239 183 q 417 85 332 85 m 176 1125 l 363 1319 l 469 1319 l 657 1125 l 538 1125 l 417 1244 l 299 1125 l 176 1125 z "},"Ố":{"ha":833,"x_min":129,"x_max":838,"o":"m 417 -14 q 206 63 283 -14 q 129 274 129 140 l 129 740 q 206 951 129 874 q 417 1028 283 1028 q 627 951 550 1028 q 704 740 704 874 l 704 274 q 627 63 704 140 q 417 -14 550 -14 m 417 85 q 548 134 501 85 q 594 274 594 183 l 594 740 q 548 880 594 831 q 417 929 501 929 q 285 880 332 929 q 239 740 239 831 l 239 274 q 285 134 239 183 q 417 85 332 85 m 565 1249 l 711 1417 l 838 1417 l 683 1249 l 565 1249 m 178 1083 l 363 1278 l 471 1278 l 657 1083 l 536 1083 l 417 1203 l 297 1083 l 178 1083 z "},"Ộ":{"ha":833,"x_min":129,"x_max":704,"o":"m 417 -14 q 206 63 283 -14 q 129 274 129 140 l 129 740 q 206 951 129 874 q 417 1028 283 1028 q 627 951 550 1028 q 704 740 704 874 l 704 274 q 627 63 704 140 q 417 -14 550 -14 m 417 85 q 548 134 501 85 q 594 274 594 183 l 594 740 q 548 880 594 831 q 417 929 501 929 q 285 880 332 929 q 239 740 239 831 l 239 274 q 285 134 239 183 q 417 85 332 85 m 417 -293 q 348 -270 374 -293 q 322 -208 322 -247 q 348 -145 322 -168 q 417 -122 374 -122 q 485 -145 460 -122 q 511 -208 511 -168 q 485 -270 511 -247 q 417 -293 460 -293 m 176 1125 l 363 1319 l 469 1319 l 657 1125 l 538 1125 l 417 1244 l 299 1125 l 176 1125 z "},"Ồ":{"ha":833,"x_min":129,"x_max":733,"o":"m 417 -14 q 206 63 283 -14 q 129 274 129 140 l 129 740 q 206 951 129 874 q 417 1028 283 1028 q 627 951 550 1028 q 704 740 704 874 l 704 274 q 627 63 704 140 q 417 -14 550 -14 m 417 85 q 548 134 501 85 q 594 274 594 183 l 594 740 q 548 880 594 831 q 417 929 501 929 q 285 880 332 929 q 239 740 239 831 l 239 274 q 285 134 239 183 q 417 85 332 85 m 618 1249 l 451 1417 l 576 1417 l 733 1249 l 618 1249 m 178 1083 l 363 1278 l 471 1278 l 657 1083 l 536 1083 l 417 1203 l 297 1083 l 178 1083 z "},"Ổ":{"ha":833,"x_min":129,"x_max":760,"o":"m 417 -14 q 206 63 283 -14 q 129 274 129 140 l 129 740 q 206 951 129 874 q 417 1028 283 1028 q 627 951 550 1028 q 704 740 704 874 l 704 274 q 627 63 704 140 q 417 -14 550 -14 m 417 85 q 548 134 501 85 q 594 274 594 183 l 594 740 q 548 880 594 831 q 417 929 501 929 q 285 880 332 929 q 239 740 239 831 l 239 274 q 285 134 239 183 q 417 85 332 85 m 589 1222 l 654 1290 q 669 1321 669 1306 q 644 1344 669 1344 l 550 1344 l 550 1417 l 663 1417 q 734 1394 708 1417 q 760 1335 760 1372 q 733 1269 760 1297 l 685 1222 l 589 1222 m 178 1083 l 363 1278 l 471 1278 l 657 1083 l 536 1083 l 417 1203 l 297 1083 l 178 1083 z "},"Ỗ":{"ha":833,"x_min":129,"x_max":704,"o":"m 417 -14 q 206 63 283 -14 q 129 274 129 140 l 129 740 q 206 951 129 874 q 417 1028 283 1028 q 627 951 550 1028 q 704 740 704 874 l 704 274 q 627 63 704 140 q 417 -14 550 -14 m 417 85 q 548 134 501 85 q 594 274 594 183 l 594 740 q 548 880 594 831 q 417 929 501 929 q 285 880 332 929 q 239 740 239 831 l 239 274 q 285 134 239 183 q 417 85 332 85 m 522 1278 q 452 1288 481 1278 q 403 1313 424 1299 q 363 1338 382 1328 q 319 1349 343 1349 q 286 1337 299 1349 q 274 1304 274 1325 l 274 1292 l 193 1292 l 193 1304 q 226 1386 193 1356 q 314 1417 258 1417 q 385 1406 357 1417 q 434 1381 414 1396 q 473 1356 454 1367 q 515 1346 492 1346 q 547 1358 535 1346 q 560 1390 560 1369 l 560 1403 l 640 1403 l 640 1390 q 608 1308 640 1339 q 522 1278 576 1278 m 178 1083 l 340 1240 l 493 1240 l 656 1083 l 535 1083 l 417 1192 l 297 1083 l 178 1083 z "},"Ö":{"ha":833,"x_min":129,"x_max":704,"o":"m 417 -14 q 206 63 283 -14 q 129 274 129 140 l 129 740 q 206 951 129 874 q 417 1028 283 1028 q 627 951 550 1028 q 704 740 704 874 l 704 274 q 627 63 704 140 q 417 -14 550 -14 m 417 85 q 548 134 501 85 q 594 274 594 183 l 594 740 q 548 880 594 831 q 417 929 501 929 q 285 880 332 929 q 239 740 239 831 l 239 274 q 285 134 239 183 q 417 85 332 85 m 571 1138 q 509 1160 532 1138 q 486 1222 486 1183 q 509 1285 486 1263 q 571 1308 532 1308 q 633 1285 610 1308 q 656 1222 656 1263 q 633 1160 656 1183 q 571 1138 610 1138 m 265 1138 q 203 1160 226 1138 q 181 1222 181 1183 q 203 1285 181 1263 q 265 1308 226 1308 q 327 1285 304 1308 q 350 1222 350 1263 q 327 1160 350 1183 q 265 1138 304 1138 z "},"Ọ":{"ha":833,"x_min":129,"x_max":704,"o":"m 417 -14 q 206 63 283 -14 q 129 274 129 140 l 129 740 q 206 951 129 874 q 417 1028 283 1028 q 627 951 550 1028 q 704 740 704 874 l 704 274 q 627 63 704 140 q 417 -14 550 -14 m 417 85 q 548 134 501 85 q 594 274 594 183 l 594 740 q 548 880 594 831 q 417 929 501 929 q 285 880 332 929 q 239 740 239 831 l 239 274 q 285 134 239 183 q 417 85 332 85 m 417 -293 q 348 -270 374 -293 q 322 -208 322 -247 q 348 -145 322 -168 q 417 -122 374 -122 q 485 -145 460 -122 q 511 -208 511 -168 q 485 -270 511 -247 q 417 -293 460 -293 z "},"Ò":{"ha":833,"x_min":129,"x_max":704,"o":"m 417 -14 q 206 63 283 -14 q 129 274 129 140 l 129 740 q 206 951 129 874 q 417 1028 283 1028 q 627 951 550 1028 q 704 740 704 874 l 704 274 q 627 63 704 140 q 417 -14 550 -14 m 417 85 q 548 134 501 85 q 594 274 594 183 l 594 740 q 548 880 594 831 q 417 929 501 929 q 285 880 332 929 q 239 740 239 831 l 239 274 q 285 134 239 183 q 417 85 332 85 m 376 1125 l 218 1319 l 343 1319 l 494 1125 l 376 1125 z "},"Ỏ":{"ha":833,"x_min":129,"x_max":704,"o":"m 417 -14 q 206 63 283 -14 q 129 274 129 140 l 129 740 q 206 951 129 874 q 417 1028 283 1028 q 627 951 550 1028 q 704 740 704 874 l 704 274 q 627 63 704 140 q 417 -14 550 -14 m 417 85 q 548 134 501 85 q 594 274 594 183 l 594 740 q 548 880 594 831 q 417 929 501 929 q 285 880 332 929 q 239 740 239 831 l 239 274 q 285 134 239 183 q 417 85 332 85 m 364 1111 l 431 1203 q 451 1250 451 1232 q 406 1281 451 1281 l 296 1281 l 296 1360 l 410 1360 q 508 1333 471 1360 q 546 1261 546 1306 q 521 1188 546 1222 l 469 1111 l 364 1111 z "},"Ơ":{"ha":833,"x_min":129,"x_max":740,"o":"m 417 -14 q 206 63 283 -14 q 129 274 129 140 l 129 740 q 206 951 129 874 q 417 1028 283 1028 q 601 972 528 1028 q 636 990 624 975 q 649 1026 649 1004 l 649 1125 l 740 1125 l 740 1021 q 720 949 740 979 q 664 904 700 918 q 704 740 704 836 l 704 274 q 627 63 704 140 q 417 -14 550 -14 m 417 85 q 548 134 501 85 q 594 274 594 183 l 594 740 q 548 880 594 831 q 417 929 501 929 q 285 880 332 929 q 239 740 239 831 l 239 274 q 285 134 239 183 q 417 85 332 85 z "},"Ớ":{"ha":833,"x_min":129,"x_max":740,"o":"m 417 -14 q 206 63 283 -14 q 129 274 129 140 l 129 740 q 206 951 129 874 q 417 1028 283 1028 q 601 972 528 1028 q 636 990 624 975 q 649 1026 649 1004 l 649 1125 l 740 1125 l 740 1021 q 720 949 740 979 q 664 904 700 918 q 704 740 704 836 l 704 274 q 627 63 704 140 q 417 -14 550 -14 m 417 85 q 548 134 501 85 q 594 274 594 183 l 594 740 q 548 880 594 831 q 417 929 501 929 q 285 880 332 929 q 239 740 239 831 l 239 274 q 285 134 239 183 q 417 85 332 85 m 331 1125 l 478 1319 l 599 1319 l 443 1125 l 331 1125 z "},"Ợ":{"ha":833,"x_min":129,"x_max":740,"o":"m 417 -14 q 206 63 283 -14 q 129 274 129 140 l 129 740 q 206 951 129 874 q 417 1028 283 1028 q 601 972 528 1028 q 636 990 624 975 q 649 1026 649 1004 l 649 1125 l 740 1125 l 740 1021 q 720 949 740 979 q 664 904 700 918 q 704 740 704 836 l 704 274 q 627 63 704 140 q 417 -14 550 -14 m 417 85 q 548 134 501 85 q 594 274 594 183 l 594 740 q 548 880 594 831 q 417 929 501 929 q 285 880 332 929 q 239 740 239 831 l 239 274 q 285 134 239 183 q 417 85 332 85 m 417 -293 q 348 -270 374 -293 q 322 -208 322 -247 q 348 -145 322 -168 q 417 -122 374 -122 q 485 -145 460 -122 q 511 -208 511 -168 q 485 -270 511 -247 q 417 -293 460 -293 z "},"Ờ":{"ha":833,"x_min":129,"x_max":740,"o":"m 417 -14 q 206 63 283 -14 q 129 274 129 140 l 129 740 q 206 951 129 874 q 417 1028 283 1028 q 601 972 528 1028 q 636 990 624 975 q 649 1026 649 1004 l 649 1125 l 740 1125 l 740 1021 q 720 949 740 979 q 664 904 700 918 q 704 740 704 836 l 704 274 q 627 63 704 140 q 417 -14 550 -14 m 417 85 q 548 134 501 85 q 594 274 594 183 l 594 740 q 548 880 594 831 q 417 929 501 929 q 285 880 332 929 q 239 740 239 831 l 239 274 q 285 134 239 183 q 417 85 332 85 m 363 1125 l 204 1319 l 329 1319 l 481 1125 l 363 1125 z "},"Ở":{"ha":833,"x_min":129,"x_max":740,"o":"m 417 -14 q 206 63 283 -14 q 129 274 129 140 l 129 740 q 206 951 129 874 q 417 1028 283 1028 q 601 972 528 1028 q 636 990 624 975 q 649 1026 649 1004 l 649 1125 l 740 1125 l 740 1021 q 720 949 740 979 q 664 904 700 918 q 704 740 704 836 l 704 274 q 627 63 704 140 q 417 -14 550 -14 m 417 85 q 548 134 501 85 q 594 274 594 183 l 594 740 q 548 880 594 831 q 417 929 501 929 q 285 880 332 929 q 239 740 239 831 l 239 274 q 285 134 239 183 q 417 85 332 85 m 350 1111 l 417 1203 q 438 1250 438 1232 q 392 1281 438 1281 l 282 1281 l 282 1360 l 396 1360 q 494 1333 457 1360 q 532 1261 532 1306 q 507 1188 532 1222 l 456 1111 l 350 1111 z "},"Ỡ":{"ha":833,"x_min":129,"x_max":740,"o":"m 417 -14 q 206 63 283 -14 q 129 274 129 140 l 129 740 q 206 951 129 874 q 417 1028 283 1028 q 601 972 528 1028 q 636 990 624 975 q 649 1026 649 1004 l 649 1125 l 740 1125 l 740 1021 q 720 949 740 979 q 664 904 700 918 q 704 740 704 836 l 704 274 q 627 63 704 140 q 417 -14 550 -14 m 417 85 q 548 134 501 85 q 594 274 594 183 l 594 740 q 548 880 594 831 q 417 929 501 929 q 285 880 332 929 q 239 740 239 831 l 239 274 q 285 134 239 183 q 417 85 332 85 m 501 1132 q 435 1148 461 1132 q 390 1185 408 1164 q 353 1222 371 1206 q 311 1238 335 1238 q 261 1182 261 1238 l 261 1139 l 181 1139 l 181 1182 q 215 1278 181 1244 q 306 1313 249 1313 q 373 1297 347 1313 q 418 1260 399 1281 q 455 1223 438 1239 q 497 1207 472 1207 q 544 1263 544 1207 l 544 1306 l 625 1306 l 625 1263 q 592 1166 625 1200 q 501 1132 558 1132 z "},"Ő":{"ha":833,"x_min":129,"x_max":722,"o":"m 417 -14 q 206 63 283 -14 q 129 274 129 140 l 129 740 q 206 951 129 874 q 417 1028 283 1028 q 627 951 550 1028 q 704 740 704 874 l 704 274 q 627 63 704 140 q 417 -14 550 -14 m 417 85 q 548 134 501 85 q 594 274 594 183 l 594 740 q 548 880 594 831 q 417 929 501 929 q 285 880 332 929 q 239 740 239 831 l 239 274 q 285 134 239 183 q 417 85 332 85 m 456 1125 l 607 1319 l 722 1319 l 564 1125 l 456 1125 m 215 1125 l 367 1319 l 482 1319 l 322 1125 l 215 1125 z "},"Ō":{"ha":833,"x_min":129,"x_max":704,"o":"m 417 -14 q 206 63 283 -14 q 129 274 129 140 l 129 740 q 206 951 129 874 q 417 1028 283 1028 q 627 951 550 1028 q 704 740 704 874 l 704 274 q 627 63 704 140 q 417 -14 550 -14 m 417 85 q 548 134 501 85 q 594 274 594 183 l 594 740 q 548 880 594 831 q 417 929 501 929 q 285 880 332 929 q 239 740 239 831 l 239 274 q 285 134 239 183 q 417 85 332 85 m 201 1172 l 201 1264 l 632 1264 l 632 1172 l 201 1172 z "},"Ǫ":{"ha":833,"x_min":129,"x_max":704,"o":"m 522 -279 q 408 -244 451 -279 q 365 -154 365 -210 q 444 -12 365 -87 q 431 -14 439 -14 q 417 -14 422 -14 q 206 63 283 -14 q 129 274 129 140 l 129 740 q 206 951 129 874 q 417 1028 283 1028 q 627 951 550 1028 q 704 740 704 874 l 704 274 q 673 128 704 190 q 585 29 642 65 l 553 1 q 489 -70 508 -36 q 469 -133 469 -104 q 490 -183 469 -164 q 544 -203 510 -203 l 629 -203 l 629 -279 l 522 -279 m 417 85 q 548 134 501 85 q 594 274 594 183 l 594 740 q 548 880 594 831 q 417 929 501 929 q 285 880 332 929 q 239 740 239 831 l 239 274 q 285 134 239 183 q 417 85 332 85 z "},"Ø":{"ha":833,"x_min":54,"x_max":779,"o":"m 54 -56 l 158 129 q 129 274 129 192 l 129 740 q 206 951 129 874 q 417 1028 283 1028 q 625 953 549 1028 l 676 1042 l 779 1042 l 682 869 q 704 740 704 813 l 704 274 q 627 63 704 140 q 417 -14 550 -14 q 218 51 294 -14 l 157 -56 l 54 -56 m 239 274 q 239 271 239 274 l 568 853 q 417 929 524 929 q 285 880 332 929 q 239 740 239 831 l 239 274 m 417 85 q 548 134 501 85 q 594 274 594 183 l 594 715 l 274 149 q 417 85 319 85 z "},"Ǿ":{"ha":833,"x_min":54,"x_max":779,"o":"m 54 -56 l 158 129 q 129 274 129 192 l 129 740 q 206 951 129 874 q 417 1028 283 1028 q 625 953 549 1028 l 676 1042 l 779 1042 l 682 869 q 704 740 704 813 l 704 274 q 627 63 704 140 q 417 -14 550 -14 q 218 51 294 -14 l 157 -56 l 54 -56 m 239 274 q 239 271 239 274 l 568 853 q 417 929 524 929 q 285 880 332 929 q 239 740 239 831 l 239 274 m 417 85 q 548 134 501 85 q 594 274 594 183 l 594 715 l 274 149 q 417 85 319 85 m 344 1125 l 492 1319 l 613 1319 l 457 1125 l 344 1125 z "},"Õ":{"ha":833,"x_min":129,"x_max":704,"o":"m 417 -14 q 206 63 283 -14 q 129 274 129 140 l 129 740 q 206 951 129 874 q 417 1028 283 1028 q 627 951 550 1028 q 704 740 704 874 l 704 274 q 627 63 704 140 q 417 -14 550 -14 m 417 85 q 548 134 501 85 q 594 274 594 183 l 594 740 q 548 880 594 831 q 417 929 501 929 q 285 880 332 929 q 239 740 239 831 l 239 274 q 285 134 239 183 q 417 85 332 85 m 515 1132 q 449 1148 475 1132 q 403 1185 422 1164 q 367 1222 385 1206 q 325 1238 349 1238 q 275 1182 275 1238 l 275 1139 l 194 1139 l 194 1182 q 228 1278 194 1244 q 319 1313 263 1313 q 387 1297 361 1313 q 432 1260 413 1281 q 469 1223 451 1239 q 511 1207 486 1207 q 558 1263 558 1207 l 558 1306 l 639 1306 l 639 1263 q 606 1166 639 1200 q 515 1132 572 1132 z "},"Œ":{"ha":833,"x_min":56,"x_max":796,"o":"m 271 -14 q 114 57 172 -14 q 56 247 56 128 l 56 767 q 114 957 56 886 q 271 1028 172 1028 q 352 1008 319 1028 q 403 959 385 988 q 428 903 422 931 l 435 903 l 435 1014 l 796 1014 l 796 913 l 544 913 l 544 575 l 757 575 l 757 472 l 544 472 l 544 101 l 796 101 l 796 0 l 435 0 l 435 111 l 428 111 q 403 56 422 85 q 352 6 385 26 q 271 -14 319 -14 m 301 86 q 399 130 363 86 q 435 247 435 174 l 435 767 q 399 884 435 840 q 301 928 363 928 q 203 884 239 928 q 168 767 168 840 l 168 247 q 203 130 168 174 q 301 86 239 86 z "},"P":{"ha":833,"x_min":135,"x_max":758,"o":"m 135 0 l 135 1014 l 453 1014 q 676 934 593 1014 q 758 719 758 854 q 676 506 758 586 q 453 425 593 425 l 244 425 l 244 0 l 135 0 m 244 525 l 453 525 q 592 578 540 525 q 644 719 644 631 q 593 862 644 810 q 453 914 542 914 l 244 914 l 244 525 z "},"Þ":{"ha":833,"x_min":131,"x_max":757,"o":"m 131 0 l 131 1014 l 240 1014 l 240 800 l 463 800 q 676 726 596 800 q 757 528 757 651 q 677 329 757 403 q 463 256 597 256 l 240 256 l 240 0 l 131 0 m 240 354 l 463 354 q 595 401 547 354 q 643 528 643 447 q 594 655 643 608 q 463 701 546 701 l 240 701 l 240 354 z "},"Q":{"ha":833,"x_min":121,"x_max":725,"o":"m 596 -250 l 451 -12 q 435 -13 444 -12 q 417 -14 426 -14 q 201 66 281 -14 q 121 279 121 146 l 121 735 q 201 948 121 868 q 417 1028 281 1028 q 633 947 553 1028 q 713 735 713 867 l 713 279 q 674 119 713 188 q 563 17 635 50 l 725 -250 l 596 -250 m 417 85 q 553 137 503 85 q 603 279 603 189 l 603 735 q 553 877 603 825 q 417 929 503 929 q 281 877 331 929 q 231 735 231 825 l 231 279 q 281 137 231 189 q 417 85 331 85 z "},"R":{"ha":833,"x_min":135,"x_max":751,"o":"m 135 0 l 135 1014 l 440 1014 q 598 978 531 1014 q 702 877 665 942 q 739 725 739 813 q 683 547 739 619 q 532 449 628 474 l 751 0 l 621 0 l 418 438 l 244 438 l 244 0 l 135 0 m 244 538 l 440 538 q 576 589 525 538 q 626 726 626 640 q 575 863 626 811 q 440 914 524 914 l 244 914 l 244 538 z "},"Ŕ":{"ha":833,"x_min":135,"x_max":751,"o":"m 135 0 l 135 1014 l 440 1014 q 598 978 531 1014 q 702 877 665 942 q 739 725 739 813 q 683 547 739 619 q 532 449 628 474 l 751 0 l 621 0 l 418 438 l 244 438 l 244 0 l 135 0 m 244 538 l 440 538 q 576 589 525 538 q 626 726 626 640 q 575 863 626 811 q 440 914 524 914 l 244 914 l 244 538 m 344 1125 l 492 1319 l 613 1319 l 457 1125 l 344 1125 z "},"Ř":{"ha":833,"x_min":135,"x_max":751,"o":"m 135 0 l 135 1014 l 440 1014 q 598 978 531 1014 q 702 877 665 942 q 739 725 739 813 q 683 547 739 619 q 532 449 628 474 l 751 0 l 621 0 l 418 438 l 244 438 l 244 0 l 135 0 m 244 538 l 440 538 q 576 589 525 538 q 626 726 626 640 q 575 863 626 811 q 440 914 524 914 l 244 914 l 244 538 m 364 1125 l 176 1319 l 296 1319 l 418 1200 l 536 1319 l 657 1319 l 471 1125 l 364 1125 z "},"Ŗ":{"ha":833,"x_min":135,"x_max":751,"o":"m 135 0 l 135 1014 l 440 1014 q 598 978 531 1014 q 702 877 665 942 q 739 725 739 813 q 683 547 739 619 q 532 449 628 474 l 751 0 l 621 0 l 418 438 l 244 438 l 244 0 l 135 0 m 244 538 l 440 538 q 576 589 525 538 q 626 726 626 640 q 575 863 626 811 q 440 914 524 914 l 244 914 l 244 538 m 274 -333 l 403 -132 l 535 -132 l 389 -333 l 274 -333 z "},"S":{"ha":833,"x_min":104,"x_max":729,"o":"m 422 -14 q 191 62 278 -14 q 104 264 104 138 l 215 264 q 272 134 215 183 q 422 85 328 85 q 567 133 514 85 q 621 261 621 181 q 585 376 621 326 q 489 443 550 425 l 349 488 q 190 591 247 518 q 132 763 132 664 q 212 956 132 883 q 425 1028 292 1028 q 636 955 557 1028 q 715 758 715 882 l 606 758 q 556 883 606 836 q 425 929 507 929 q 290 885 340 929 q 240 765 240 840 q 275 660 240 704 q 371 596 310 615 l 517 550 q 672 441 614 518 q 729 263 729 364 q 646 61 729 136 q 422 -14 563 -14 z "},"Ś":{"ha":833,"x_min":104,"x_max":729,"o":"m 422 -14 q 191 62 278 -14 q 104 264 104 138 l 215 264 q 272 134 215 183 q 422 85 328 85 q 567 133 514 85 q 621 261 621 181 q 585 376 621 326 q 489 443 550 425 l 349 488 q 190 591 247 518 q 132 763 132 664 q 212 956 132 883 q 425 1028 292 1028 q 636 955 557 1028 q 715 758 715 882 l 606 758 q 556 883 606 836 q 425 929 507 929 q 290 885 340 929 q 240 765 240 840 q 275 660 240 704 q 371 596 310 615 l 517 550 q 672 441 614 518 q 729 263 729 364 q 646 61 729 136 q 422 -14 563 -14 m 344 1125 l 492 1319 l 613 1319 l 457 1125 l 344 1125 z "},"Š":{"ha":833,"x_min":104,"x_max":729,"o":"m 422 -14 q 191 62 278 -14 q 104 264 104 138 l 215 264 q 272 134 215 183 q 422 85 328 85 q 567 133 514 85 q 621 261 621 181 q 585 376 621 326 q 489 443 550 425 l 349 488 q 190 591 247 518 q 132 763 132 664 q 212 956 132 883 q 425 1028 292 1028 q 636 955 557 1028 q 715 758 715 882 l 606 758 q 556 883 606 836 q 425 929 507 929 q 290 885 340 929 q 240 765 240 840 q 275 660 240 704 q 371 596 310 615 l 517 550 q 672 441 614 518 q 729 263 729 364 q 646 61 729 136 q 422 -14 563 -14 m 364 1125 l 176 1319 l 296 1319 l 418 1200 l 536 1319 l 657 1319 l 471 1125 l 364 1125 z "},"Ş":{"ha":833,"x_min":104,"x_max":729,"o":"m 296 -279 l 296 -210 l 397 -210 q 447 -194 428 -210 q 467 -158 467 -178 q 427 -113 467 -132 q 317 -94 388 -94 l 349 -8 q 169 82 235 10 q 104 264 104 154 l 215 264 q 272 134 215 183 q 422 85 328 85 q 567 133 514 85 q 621 261 621 181 q 585 376 621 326 q 489 443 550 425 l 349 488 q 190 591 247 518 q 132 763 132 664 q 212 956 132 883 q 425 1028 292 1028 q 636 955 557 1028 q 715 758 715 882 l 606 758 q 556 883 606 836 q 425 929 507 929 q 290 885 340 929 q 240 765 240 840 q 275 660 240 704 q 371 596 310 615 l 517 550 q 672 441 614 518 q 729 263 729 364 q 646 61 729 136 q 422 -14 563 -14 l 421 -14 l 408 -49 q 481 -65 443 -51 q 545 -104 519 -79 q 571 -165 571 -129 q 527 -246 571 -212 q 413 -279 483 -279 l 296 -279 z "},"Ŝ":{"ha":833,"x_min":104,"x_max":729,"o":"m 422 -14 q 191 62 278 -14 q 104 264 104 138 l 215 264 q 272 134 215 183 q 422 85 328 85 q 567 133 514 85 q 621 261 621 181 q 585 376 621 326 q 489 443 550 425 l 349 488 q 190 591 247 518 q 132 763 132 664 q 212 956 132 883 q 425 1028 292 1028 q 636 955 557 1028 q 715 758 715 882 l 606 758 q 556 883 606 836 q 425 929 507 929 q 290 885 340 929 q 240 765 240 840 q 275 660 240 704 q 371 596 310 615 l 517 550 q 672 441 614 518 q 729 263 729 364 q 646 61 729 136 q 422 -14 563 -14 m 176 1125 l 363 1319 l 469 1319 l 657 1125 l 538 1125 l 417 1244 l 299 1125 l 176 1125 z "},"Ș":{"ha":833,"x_min":104,"x_max":729,"o":"m 422 -14 q 191 62 278 -14 q 104 264 104 138 l 215 264 q 272 134 215 183 q 422 85 328 85 q 567 133 514 85 q 621 261 621 181 q 585 376 621 326 q 489 443 550 425 l 349 488 q 190 591 247 518 q 132 763 132 664 q 212 956 132 883 q 425 1028 292 1028 q 636 955 557 1028 q 715 758 715 882 l 606 758 q 556 883 606 836 q 425 929 507 929 q 290 885 340 929 q 240 765 240 840 q 275 660 240 704 q 371 596 310 615 l 517 550 q 672 441 614 518 q 729 263 729 364 q 646 61 729 136 q 422 -14 563 -14 m 274 -333 l 403 -132 l 535 -132 l 389 -333 l 274 -333 z "},"ẞ":{"ha":833,"x_min":135,"x_max":743,"o":"m 135 0 l 135 735 q 170 882 135 819 q 270 979 206 944 q 421 1014 335 1014 l 731 1014 l 731 907 l 490 582 q 674 499 606 576 q 743 297 743 422 q 706 140 743 207 q 601 37 668 74 q 446 0 535 0 l 354 0 l 354 100 l 436 100 q 576 153 524 100 q 628 296 628 206 q 576 436 628 385 q 436 488 524 488 l 375 488 l 375 583 l 615 914 l 421 914 q 292 866 340 914 q 244 735 244 818 l 244 0 l 135 0 z "},"Ə":{"ha":833,"x_min":131,"x_max":703,"o":"m 417 -14 q 207 65 283 -14 q 131 274 131 143 l 131 547 l 593 547 l 593 740 q 548 880 593 831 q 417 929 503 929 q 285 878 331 929 q 240 736 240 828 l 131 736 q 206 949 131 871 q 417 1028 282 1028 q 627 951 551 1028 q 703 740 703 874 l 703 274 q 626 65 703 143 q 417 -14 550 -14 m 417 79 q 549 130 506 79 q 593 274 593 181 l 593 460 l 240 460 l 240 274 q 284 130 240 181 q 417 79 328 79 z "},"T":{"ha":833,"x_min":78,"x_max":756,"o":"m 363 0 l 363 914 l 78 914 l 78 1014 l 756 1014 l 756 914 l 472 914 l 472 0 l 363 0 z "},"Ŧ":{"ha":833,"x_min":78,"x_max":756,"o":"m 363 0 l 363 415 l 157 415 l 157 508 l 363 508 l 363 914 l 78 914 l 78 1014 l 756 1014 l 756 914 l 472 914 l 472 508 l 676 508 l 676 415 l 472 415 l 472 0 l 363 0 z "},"Ť":{"ha":833,"x_min":78,"x_max":756,"o":"m 363 0 l 363 914 l 78 914 l 78 1014 l 756 1014 l 756 914 l 472 914 l 472 0 l 363 0 m 364 1125 l 176 1319 l 296 1319 l 418 1200 l 536 1319 l 657 1319 l 471 1125 l 364 1125 z "},"Ţ":{"ha":833,"x_min":78,"x_max":756,"o":"m 363 0 l 363 914 l 78 914 l 78 1014 l 756 1014 l 756 914 l 472 914 l 472 0 l 456 -49 q 528 -65 490 -51 q 592 -104 565 -79 q 618 -165 618 -129 q 574 -246 618 -212 q 458 -279 531 -279 l 343 -279 l 343 -210 l 443 -210 q 494 -194 475 -210 q 514 -158 514 -178 q 474 -113 514 -132 q 363 -94 433 -94 l 397 0 l 363 0 z "},"Ț":{"ha":833,"x_min":78,"x_max":756,"o":"m 363 0 l 363 914 l 78 914 l 78 1014 l 756 1014 l 756 914 l 472 914 l 472 0 l 363 0 m 274 -333 l 403 -132 l 535 -132 l 389 -333 l 274 -333 z "},"U":{"ha":833,"x_min":132,"x_max":701,"o":"m 417 -14 q 206 64 281 -14 q 132 274 132 142 l 132 1014 l 242 1014 l 242 274 q 286 135 242 186 q 417 85 331 85 q 547 135 503 85 q 592 274 592 186 l 592 1014 l 701 1014 l 701 274 q 628 63 701 140 q 417 -14 554 -14 z "},"Ú":{"ha":833,"x_min":132,"x_max":701,"o":"m 417 -14 q 206 64 281 -14 q 132 274 132 142 l 132 1014 l 242 1014 l 242 274 q 286 135 242 186 q 417 85 331 85 q 547 135 503 85 q 592 274 592 186 l 592 1014 l 701 1014 l 701 274 q 628 63 701 140 q 417 -14 554 -14 m 344 1125 l 492 1319 l 613 1319 l 457 1125 l 344 1125 z "},"Ŭ":{"ha":833,"x_min":132,"x_max":701,"o":"m 417 -14 q 206 64 281 -14 q 132 274 132 142 l 132 1014 l 242 1014 l 242 274 q 286 135 242 186 q 417 85 331 85 q 547 135 503 85 q 592 274 592 186 l 592 1014 l 701 1014 l 701 274 q 628 63 701 140 q 417 -14 554 -14 m 417 1119 q 259 1174 318 1119 q 200 1319 200 1229 l 289 1319 q 324 1228 289 1263 q 415 1193 358 1193 q 509 1228 474 1193 q 544 1319 544 1263 l 633 1319 q 574 1174 633 1229 q 417 1119 515 1119 z "},"Û":{"ha":833,"x_min":132,"x_max":701,"o":"m 417 -14 q 206 64 281 -14 q 132 274 132 142 l 132 1014 l 242 1014 l 242 274 q 286 135 242 186 q 417 85 331 85 q 547 135 503 85 q 592 274 592 186 l 592 1014 l 701 1014 l 701 274 q 628 63 701 140 q 417 -14 554 -14 m 176 1125 l 363 1319 l 469 1319 l 657 1125 l 538 1125 l 417 1244 l 299 1125 l 176 1125 z "},"Ü":{"ha":833,"x_min":132,"x_max":701,"o":"m 417 -14 q 206 64 281 -14 q 132 274 132 142 l 132 1014 l 242 1014 l 242 274 q 286 135 242 186 q 417 85 331 85 q 547 135 503 85 q 592 274 592 186 l 592 1014 l 701 1014 l 701 274 q 628 63 701 140 q 417 -14 554 -14 m 571 1138 q 509 1160 532 1138 q 486 1222 486 1183 q 509 1285 486 1263 q 571 1308 532 1308 q 633 1285 610 1308 q 656 1222 656 1263 q 633 1160 656 1183 q 571 1138 610 1138 m 265 1138 q 203 1160 226 1138 q 181 1222 181 1183 q 203 1285 181 1263 q 265 1308 226 1308 q 327 1285 304 1308 q 350 1222 350 1263 q 327 1160 350 1183 q 265 1138 304 1138 z "},"Ụ":{"ha":833,"x_min":132,"x_max":701,"o":"m 417 -14 q 206 64 281 -14 q 132 274 132 142 l 132 1014 l 242 1014 l 242 274 q 286 135 242 186 q 417 85 331 85 q 547 135 503 85 q 592 274 592 186 l 592 1014 l 701 1014 l 701 274 q 628 63 701 140 q 417 -14 554 -14 m 417 -293 q 348 -270 374 -293 q 322 -208 322 -247 q 348 -145 322 -168 q 417 -122 374 -122 q 485 -145 460 -122 q 511 -208 511 -168 q 485 -270 511 -247 q 417 -293 460 -293 z "},"Ù":{"ha":833,"x_min":132,"x_max":701,"o":"m 417 -14 q 206 64 281 -14 q 132 274 132 142 l 132 1014 l 242 1014 l 242 274 q 286 135 242 186 q 417 85 331 85 q 547 135 503 85 q 592 274 592 186 l 592 1014 l 701 1014 l 701 274 q 628 63 701 140 q 417 -14 554 -14 m 376 1125 l 218 1319 l 343 1319 l 494 1125 l 376 1125 z "},"Ủ":{"ha":833,"x_min":132,"x_max":701,"o":"m 417 -14 q 206 64 281 -14 q 132 274 132 142 l 132 1014 l 242 1014 l 242 274 q 286 135 242 186 q 417 85 331 85 q 547 135 503 85 q 592 274 592 186 l 592 1014 l 701 1014 l 701 274 q 628 63 701 140 q 417 -14 554 -14 m 364 1111 l 431 1203 q 451 1250 451 1232 q 406 1281 451 1281 l 296 1281 l 296 1360 l 410 1360 q 508 1333 471 1360 q 546 1261 546 1306 q 521 1188 546 1222 l 469 1111 l 364 1111 z "},"Ư":{"ha":833,"x_min":132,"x_max":833,"o":"m 417 -14 q 206 64 281 -14 q 132 274 132 142 l 132 1014 l 242 1014 l 242 274 q 286 135 242 186 q 417 85 331 85 q 547 135 503 85 q 592 274 592 186 l 592 1014 l 689 1014 q 727 1028 713 1014 q 742 1068 742 1043 l 742 1167 l 833 1167 l 833 1063 q 797 969 833 1004 q 701 935 760 935 l 701 274 q 628 63 701 140 q 417 -14 554 -14 z "},"Ứ":{"ha":833,"x_min":132,"x_max":833,"o":"m 417 -14 q 206 64 281 -14 q 132 274 132 142 l 132 1014 l 242 1014 l 242 274 q 286 135 242 186 q 417 85 331 85 q 547 135 503 85 q 592 274 592 186 l 592 1014 l 689 1014 q 727 1028 713 1014 q 742 1068 742 1043 l 742 1167 l 833 1167 l 833 1063 q 797 969 833 1004 q 701 935 760 935 l 701 274 q 628 63 701 140 q 417 -14 554 -14 m 344 1125 l 492 1319 l 613 1319 l 457 1125 l 344 1125 z "},"Ự":{"ha":833,"x_min":132,"x_max":833,"o":"m 417 -14 q 206 64 281 -14 q 132 274 132 142 l 132 1014 l 242 1014 l 242 274 q 286 135 242 186 q 417 85 331 85 q 547 135 503 85 q 592 274 592 186 l 592 1014 l 689 1014 q 727 1028 713 1014 q 742 1068 742 1043 l 742 1167 l 833 1167 l 833 1063 q 797 969 833 1004 q 701 935 760 935 l 701 274 q 628 63 701 140 q 417 -14 554 -14 m 417 -293 q 348 -270 374 -293 q 322 -208 322 -247 q 348 -145 322 -168 q 417 -122 374 -122 q 485 -145 460 -122 q 511 -208 511 -168 q 485 -270 511 -247 q 417 -293 460 -293 z "},"Ừ":{"ha":833,"x_min":132,"x_max":833,"o":"m 417 -14 q 206 64 281 -14 q 132 274 132 142 l 132 1014 l 242 1014 l 242 274 q 286 135 242 186 q 417 85 331 85 q 547 135 503 85 q 592 274 592 186 l 592 1014 l 689 1014 q 727 1028 713 1014 q 742 1068 742 1043 l 742 1167 l 833 1167 l 833 1063 q 797 969 833 1004 q 701 935 760 935 l 701 274 q 628 63 701 140 q 417 -14 554 -14 m 376 1125 l 218 1319 l 343 1319 l 494 1125 l 376 1125 z "},"Ử":{"ha":833,"x_min":132,"x_max":833,"o":"m 417 -14 q 206 64 281 -14 q 132 274 132 142 l 132 1014 l 242 1014 l 242 274 q 286 135 242 186 q 417 85 331 85 q 547 135 503 85 q 592 274 592 186 l 592 1014 l 689 1014 q 727 1028 713 1014 q 742 1068 742 1043 l 742 1167 l 833 1167 l 833 1063 q 797 969 833 1004 q 701 935 760 935 l 701 274 q 628 63 701 140 q 417 -14 554 -14 m 364 1111 l 431 1203 q 451 1250 451 1232 q 406 1281 451 1281 l 296 1281 l 296 1360 l 410 1360 q 508 1333 471 1360 q 546 1261 546 1306 q 521 1188 546 1222 l 469 1111 l 364 1111 z "},"Ữ":{"ha":833,"x_min":132,"x_max":833,"o":"m 417 -14 q 206 64 281 -14 q 132 274 132 142 l 132 1014 l 242 1014 l 242 274 q 286 135 242 186 q 417 85 331 85 q 547 135 503 85 q 592 274 592 186 l 592 1014 l 689 1014 q 727 1028 713 1014 q 742 1068 742 1043 l 742 1167 l 833 1167 l 833 1063 q 797 969 833 1004 q 701 935 760 935 l 701 274 q 628 63 701 140 q 417 -14 554 -14 m 515 1132 q 449 1148 475 1132 q 403 1185 422 1164 q 367 1222 385 1206 q 325 1238 349 1238 q 275 1182 275 1238 l 275 1139 l 194 1139 l 194 1182 q 228 1278 194 1244 q 319 1313 263 1313 q 387 1297 361 1313 q 432 1260 413 1281 q 469 1223 451 1239 q 511 1207 486 1207 q 558 1263 558 1207 l 558 1306 l 639 1306 l 639 1263 q 606 1166 639 1200 q 515 1132 572 1132 z "},"Ű":{"ha":833,"x_min":132,"x_max":722,"o":"m 417 -14 q 206 64 281 -14 q 132 274 132 142 l 132 1014 l 242 1014 l 242 274 q 286 135 242 186 q 417 85 331 85 q 547 135 503 85 q 592 274 592 186 l 592 1014 l 701 1014 l 701 274 q 628 63 701 140 q 417 -14 554 -14 m 456 1125 l 607 1319 l 722 1319 l 564 1125 l 456 1125 m 215 1125 l 367 1319 l 482 1319 l 322 1125 l 215 1125 z "},"Ū":{"ha":833,"x_min":132,"x_max":701,"o":"m 417 -14 q 206 64 281 -14 q 132 274 132 142 l 132 1014 l 242 1014 l 242 274 q 286 135 242 186 q 417 85 331 85 q 547 135 503 85 q 592 274 592 186 l 592 1014 l 701 1014 l 701 274 q 628 63 701 140 q 417 -14 554 -14 m 201 1172 l 201 1264 l 632 1264 l 632 1172 l 201 1172 z "},"Ų":{"ha":833,"x_min":132,"x_max":701,"o":"m 522 -279 q 408 -244 451 -279 q 365 -154 365 -210 q 444 -12 365 -87 q 431 -14 439 -14 q 417 -14 422 -14 q 208 63 283 -14 q 132 274 132 140 l 132 1014 l 242 1014 l 242 274 q 287 134 242 183 q 417 85 332 85 q 547 134 501 85 q 592 274 592 183 l 592 1014 l 701 1014 l 701 274 q 585 29 701 104 l 553 1 q 489 -70 508 -36 q 469 -133 469 -104 q 490 -183 469 -164 q 544 -203 510 -203 l 629 -203 l 629 -279 l 522 -279 z "},"Ů":{"ha":833,"x_min":132,"x_max":701,"o":"m 417 -14 q 206 64 281 -14 q 132 274 132 142 l 132 1014 l 242 1014 l 242 274 q 286 135 242 186 q 417 85 331 85 q 547 135 503 85 q 592 274 592 186 l 592 1014 l 701 1014 l 701 274 q 628 63 701 140 q 417 -14 554 -14 m 417 1069 q 300 1112 344 1069 q 256 1222 256 1154 q 300 1333 256 1290 q 417 1375 344 1375 q 533 1333 489 1375 q 578 1222 578 1290 q 533 1112 578 1154 q 417 1069 489 1069 m 417 1136 q 478 1160 456 1136 q 501 1222 501 1183 q 478 1285 501 1261 q 417 1310 456 1310 q 355 1285 378 1310 q 332 1222 332 1261 q 355 1160 332 1183 q 417 1136 378 1136 z "},"Ũ":{"ha":833,"x_min":132,"x_max":701,"o":"m 417 -14 q 206 64 281 -14 q 132 274 132 142 l 132 1014 l 242 1014 l 242 274 q 286 135 242 186 q 417 85 331 85 q 547 135 503 85 q 592 274 592 186 l 592 1014 l 701 1014 l 701 274 q 628 63 701 140 q 417 -14 554 -14 m 515 1132 q 449 1148 475 1132 q 403 1185 422 1164 q 367 1222 385 1206 q 325 1238 349 1238 q 275 1182 275 1238 l 275 1139 l 194 1139 l 194 1182 q 228 1278 194 1244 q 319 1313 263 1313 q 387 1297 361 1313 q 432 1260 413 1281 q 469 1223 451 1239 q 511 1207 486 1207 q 558 1263 558 1207 l 558 1306 l 639 1306 l 639 1263 q 606 1166 639 1200 q 515 1132 572 1132 z "},"V":{"ha":833,"x_min":76,"x_max":757,"o":"m 342 0 l 76 1014 l 189 1014 l 372 304 q 401 176 389 235 q 418 86 413 117 q 437 176 424 117 q 467 306 450 236 l 644 1014 l 757 1014 l 490 0 l 342 0 z "},"W":{"ha":833,"x_min":40,"x_max":793,"o":"m 160 0 l 40 1014 l 144 1014 l 226 264 q 235 167 231 221 q 242 79 240 113 q 251 167 246 113 q 264 264 257 221 l 361 1014 l 479 1014 l 569 264 q 581 167 575 221 q 592 79 588 113 q 601 167 596 113 q 611 264 606 221 l 692 1014 l 793 1014 l 672 0 l 531 0 l 440 757 q 428 856 435 806 q 419 935 422 906 q 410 856 415 906 q 399 757 404 806 l 300 0 l 160 0 z "},"Ẃ":{"ha":833,"x_min":40,"x_max":793,"o":"m 160 0 l 40 1014 l 144 1014 l 226 264 q 235 167 231 221 q 242 79 240 113 q 251 167 246 113 q 264 264 257 221 l 361 1014 l 479 1014 l 569 264 q 581 167 575 221 q 592 79 588 113 q 601 167 596 113 q 611 264 606 221 l 692 1014 l 793 1014 l 672 0 l 531 0 l 440 757 q 428 856 435 806 q 419 935 422 906 q 410 856 415 906 q 399 757 404 806 l 300 0 l 160 0 m 344 1125 l 492 1319 l 613 1319 l 457 1125 l 344 1125 z "},"Ŵ":{"ha":833,"x_min":40,"x_max":793,"o":"m 160 0 l 40 1014 l 144 1014 l 226 264 q 235 167 231 221 q 242 79 240 113 q 251 167 246 113 q 264 264 257 221 l 361 1014 l 479 1014 l 569 264 q 581 167 575 221 q 592 79 588 113 q 601 167 596 113 q 611 264 606 221 l 692 1014 l 793 1014 l 672 0 l 531 0 l 440 757 q 428 856 435 806 q 419 935 422 906 q 410 856 415 906 q 399 757 404 806 l 300 0 l 160 0 m 176 1125 l 363 1319 l 469 1319 l 657 1125 l 538 1125 l 417 1244 l 299 1125 l 176 1125 z "},"Ẅ":{"ha":833,"x_min":40,"x_max":793,"o":"m 160 0 l 40 1014 l 144 1014 l 226 264 q 235 167 231 221 q 242 79 240 113 q 251 167 246 113 q 264 264 257 221 l 361 1014 l 479 1014 l 569 264 q 581 167 575 221 q 592 79 588 113 q 601 167 596 113 q 611 264 606 221 l 692 1014 l 793 1014 l 672 0 l 531 0 l 440 757 q 428 856 435 806 q 419 935 422 906 q 410 856 415 906 q 399 757 404 806 l 300 0 l 160 0 m 571 1138 q 509 1160 532 1138 q 486 1222 486 1183 q 509 1285 486 1263 q 571 1308 532 1308 q 633 1285 610 1308 q 656 1222 656 1263 q 633 1160 656 1183 q 571 1138 610 1138 m 265 1138 q 203 1160 226 1138 q 181 1222 181 1183 q 203 1285 181 1263 q 265 1308 226 1308 q 327 1285 304 1308 q 350 1222 350 1263 q 327 1160 350 1183 q 265 1138 304 1138 z "},"Ẁ":{"ha":833,"x_min":40,"x_max":793,"o":"m 160 0 l 40 1014 l 144 1014 l 226 264 q 235 167 231 221 q 242 79 240 113 q 251 167 246 113 q 264 264 257 221 l 361 1014 l 479 1014 l 569 264 q 581 167 575 221 q 592 79 588 113 q 601 167 596 113 q 611 264 606 221 l 692 1014 l 793 1014 l 672 0 l 531 0 l 440 757 q 428 856 435 806 q 419 935 422 906 q 410 856 415 906 q 399 757 404 806 l 300 0 l 160 0 m 376 1125 l 218 1319 l 343 1319 l 494 1125 l 376 1125 z "},"X":{"ha":833,"x_min":60,"x_max":774,"o":"m 60 0 l 354 518 l 78 1014 l 204 1014 l 364 711 q 392 658 376 688 q 418 608 408 628 q 444 658 428 628 q 472 711 460 688 l 635 1014 l 756 1014 l 479 525 l 774 0 l 647 0 l 469 329 q 442 383 457 353 q 417 433 426 414 q 390 383 406 414 q 363 331 375 353 l 182 0 l 60 0 z "},"Y":{"ha":833,"x_min":54,"x_max":779,"o":"m 361 0 l 361 382 l 54 1014 l 168 1014 l 376 586 q 403 528 393 553 q 418 490 414 503 q 433 527 422 501 q 460 586 444 553 l 665 1014 l 779 1014 l 472 382 l 472 0 l 361 0 z "},"Ý":{"ha":833,"x_min":54,"x_max":779,"o":"m 361 0 l 361 382 l 54 1014 l 168 1014 l 376 586 q 403 528 393 553 q 418 490 414 503 q 433 527 422 501 q 460 586 444 553 l 665 1014 l 779 1014 l 472 382 l 472 0 l 361 0 m 344 1125 l 492 1319 l 613 1319 l 457 1125 l 344 1125 z "},"Ŷ":{"ha":833,"x_min":54,"x_max":779,"o":"m 361 0 l 361 382 l 54 1014 l 168 1014 l 376 586 q 403 528 393 553 q 418 490 414 503 q 433 527 422 501 q 460 586 444 553 l 665 1014 l 779 1014 l 472 382 l 472 0 l 361 0 m 176 1125 l 363 1319 l 469 1319 l 657 1125 l 538 1125 l 417 1244 l 299 1125 l 176 1125 z "},"Ÿ":{"ha":833,"x_min":54,"x_max":779,"o":"m 361 0 l 361 382 l 54 1014 l 168 1014 l 376 586 q 403 528 393 553 q 418 490 414 503 q 433 527 422 501 q 460 586 444 553 l 665 1014 l 779 1014 l 472 382 l 472 0 l 361 0 m 571 1138 q 509 1160 532 1138 q 486 1222 486 1183 q 509 1285 486 1263 q 571 1308 532 1308 q 633 1285 610 1308 q 656 1222 656 1263 q 633 1160 656 1183 q 571 1138 610 1138 m 265 1138 q 203 1160 226 1138 q 181 1222 181 1183 q 203 1285 181 1263 q 265 1308 226 1308 q 327 1285 304 1308 q 350 1222 350 1263 q 327 1160 350 1183 q 265 1138 304 1138 z "},"Ỵ":{"ha":833,"x_min":54,"x_max":779,"o":"m 361 0 l 361 382 l 54 1014 l 168 1014 l 376 586 q 403 528 393 553 q 418 490 414 503 q 433 527 422 501 q 460 586 444 553 l 665 1014 l 779 1014 l 472 382 l 472 0 l 361 0 m 417 -293 q 348 -270 374 -293 q 322 -208 322 -247 q 348 -145 322 -168 q 417 -122 374 -122 q 485 -145 460 -122 q 511 -208 511 -168 q 485 -270 511 -247 q 417 -293 460 -293 z "},"Ỳ":{"ha":833,"x_min":54,"x_max":779,"o":"m 361 0 l 361 382 l 54 1014 l 168 1014 l 376 586 q 403 528 393 553 q 418 490 414 503 q 433 527 422 501 q 460 586 444 553 l 665 1014 l 779 1014 l 472 382 l 472 0 l 361 0 m 376 1125 l 218 1319 l 343 1319 l 494 1125 l 376 1125 z "},"Ỷ":{"ha":833,"x_min":54,"x_max":779,"o":"m 361 0 l 361 382 l 54 1014 l 168 1014 l 376 586 q 403 528 393 553 q 418 490 414 503 q 433 527 422 501 q 460 586 444 553 l 665 1014 l 779 1014 l 472 382 l 472 0 l 361 0 m 364 1111 l 431 1203 q 451 1250 451 1232 q 406 1281 451 1281 l 296 1281 l 296 1360 l 410 1360 q 508 1333 471 1360 q 546 1261 546 1306 q 521 1188 546 1222 l 469 1111 l 364 1111 z "},"Ȳ":{"ha":833,"x_min":54,"x_max":779,"o":"m 361 0 l 361 382 l 54 1014 l 168 1014 l 376 586 q 403 528 393 553 q 418 490 414 503 q 433 527 422 501 q 460 586 444 553 l 665 1014 l 779 1014 l 472 382 l 472 0 l 361 0 m 201 1172 l 201 1264 l 632 1264 l 632 1172 l 201 1172 z "},"Ỹ":{"ha":833,"x_min":54,"x_max":779,"o":"m 361 0 l 361 382 l 54 1014 l 168 1014 l 376 586 q 403 528 393 553 q 418 490 414 503 q 433 527 422 501 q 460 586 444 553 l 665 1014 l 779 1014 l 472 382 l 472 0 l 361 0 m 515 1132 q 449 1148 475 1132 q 403 1185 422 1164 q 367 1222 385 1206 q 325 1238 349 1238 q 275 1182 275 1238 l 275 1139 l 194 1139 l 194 1182 q 228 1278 194 1244 q 319 1313 263 1313 q 387 1297 361 1313 q 432 1260 413 1281 q 469 1223 451 1239 q 511 1207 486 1207 q 558 1263 558 1207 l 558 1306 l 639 1306 l 639 1263 q 606 1166 639 1200 q 515 1132 572 1132 z "},"Z":{"ha":833,"x_min":119,"x_max":714,"o":"m 119 0 l 119 110 l 588 914 l 126 914 l 126 1014 l 699 1014 l 699 901 l 232 100 l 714 100 l 714 0 l 119 0 z "},"Ź":{"ha":833,"x_min":119,"x_max":714,"o":"m 119 0 l 119 110 l 588 914 l 126 914 l 126 1014 l 699 1014 l 699 901 l 232 100 l 714 100 l 714 0 l 119 0 m 344 1125 l 492 1319 l 613 1319 l 457 1125 l 344 1125 z "},"Ž":{"ha":833,"x_min":119,"x_max":714,"o":"m 119 0 l 119 110 l 588 914 l 126 914 l 126 1014 l 699 1014 l 699 901 l 232 100 l 714 100 l 714 0 l 119 0 m 364 1125 l 176 1319 l 296 1319 l 418 1200 l 536 1319 l 657 1319 l 471 1125 l 364 1125 z "},"Ż":{"ha":833,"x_min":119,"x_max":714,"o":"m 119 0 l 119 110 l 588 914 l 126 914 l 126 1014 l 699 1014 l 699 901 l 232 100 l 714 100 l 714 0 l 119 0 m 417 1136 q 348 1160 374 1136 q 322 1222 322 1183 q 348 1285 322 1261 q 417 1308 374 1308 q 485 1285 460 1308 q 511 1222 511 1261 q 485 1160 511 1183 q 417 1136 460 1136 z "},"a":{"ha":833,"x_min":97,"x_max":701,"o":"m 357 -14 q 167 48 236 -14 q 97 215 97 110 q 165 380 97 319 q 349 440 233 440 l 592 440 l 592 521 q 547 638 592 596 q 424 681 503 681 q 304 648 353 681 q 246 563 256 615 l 135 563 q 182 675 143 626 q 283 751 221 724 q 424 778 346 778 q 626 709 551 778 q 701 524 701 640 l 701 0 l 593 0 l 593 140 q 518 27 582 68 q 357 -14 454 -14 m 383 75 q 533 121 475 75 q 592 240 592 167 l 592 356 l 350 356 q 246 319 285 356 q 207 221 207 283 q 254 115 207 154 q 383 75 301 75 z "},"á":{"ha":833,"x_min":97,"x_max":701,"o":"m 357 -14 q 167 48 236 -14 q 97 215 97 110 q 165 380 97 319 q 349 440 233 440 l 592 440 l 592 521 q 547 638 592 596 q 424 681 503 681 q 304 648 353 681 q 246 563 256 615 l 135 563 q 182 675 143 626 q 283 751 221 724 q 424 778 346 778 q 626 709 551 778 q 701 524 701 640 l 701 0 l 593 0 l 593 140 q 518 27 582 68 q 357 -14 454 -14 m 383 75 q 533 121 475 75 q 592 240 592 167 l 592 356 l 350 356 q 246 319 285 356 q 207 221 207 283 q 254 115 207 154 q 383 75 301 75 m 356 896 l 503 1090 l 624 1090 l 468 896 l 356 896 z "},"ă":{"ha":833,"x_min":97,"x_max":701,"o":"m 357 -14 q 167 48 236 -14 q 97 215 97 110 q 165 380 97 319 q 349 440 233 440 l 592 440 l 592 521 q 547 638 592 596 q 424 681 503 681 q 304 648 353 681 q 246 563 256 615 l 135 563 q 182 675 143 626 q 283 751 221 724 q 424 778 346 778 q 626 709 551 778 q 701 524 701 640 l 701 0 l 593 0 l 593 140 q 518 27 582 68 q 357 -14 454 -14 m 383 75 q 533 121 475 75 q 592 240 592 167 l 592 356 l 350 356 q 246 319 285 356 q 207 221 207 283 q 254 115 207 154 q 383 75 301 75 m 424 890 q 266 945 325 890 q 207 1090 207 1000 l 296 1090 q 331 999 296 1033 q 422 964 365 964 q 516 999 481 964 q 551 1090 551 1033 l 640 1090 q 581 945 640 1000 q 424 890 522 890 z "},"ắ":{"ha":833,"x_min":97,"x_max":701,"o":"m 357 -14 q 167 48 236 -14 q 97 215 97 110 q 165 380 97 319 q 349 440 233 440 l 592 440 l 592 521 q 547 638 592 596 q 424 681 503 681 q 304 648 353 681 q 246 563 256 615 l 135 563 q 182 675 143 626 q 283 751 221 724 q 424 778 346 778 q 626 709 551 778 q 701 524 701 640 l 701 0 l 593 0 l 593 140 q 518 27 582 68 q 357 -14 454 -14 m 383 75 q 533 121 475 75 q 592 240 592 167 l 592 356 l 350 356 q 246 319 285 356 q 207 221 207 283 q 254 115 207 154 q 383 75 301 75 m 344 1056 l 501 1236 l 622 1236 l 456 1056 l 344 1056 m 424 890 q 258 940 321 890 q 194 1069 194 989 l 283 1069 q 322 995 283 1024 q 424 967 360 967 q 526 995 488 967 q 564 1069 564 1024 l 653 1069 q 590 940 653 989 q 424 890 526 890 z "},"ặ":{"ha":833,"x_min":97,"x_max":701,"o":"m 357 -14 q 167 48 236 -14 q 97 215 97 110 q 165 380 97 319 q 349 440 233 440 l 592 440 l 592 521 q 547 638 592 596 q 424 681 503 681 q 304 648 353 681 q 246 563 256 615 l 135 563 q 182 675 143 626 q 283 751 221 724 q 424 778 346 778 q 626 709 551 778 q 701 524 701 640 l 701 0 l 593 0 l 593 140 q 518 27 582 68 q 357 -14 454 -14 m 383 75 q 533 121 475 75 q 592 240 592 167 l 592 356 l 350 356 q 246 319 285 356 q 207 221 207 283 q 254 115 207 154 q 383 75 301 75 m 424 -293 q 355 -270 381 -293 q 329 -208 329 -247 q 355 -145 329 -168 q 424 -122 381 -122 q 492 -145 467 -122 q 518 -208 518 -168 q 492 -270 518 -247 q 424 -293 467 -293 m 424 890 q 266 945 325 890 q 207 1090 207 1000 l 296 1090 q 331 999 296 1033 q 422 964 365 964 q 516 999 481 964 q 551 1090 551 1033 l 640 1090 q 581 945 640 1000 q 424 890 522 890 z "},"ằ":{"ha":833,"x_min":97,"x_max":701,"o":"m 357 -14 q 167 48 236 -14 q 97 215 97 110 q 165 380 97 319 q 349 440 233 440 l 592 440 l 592 521 q 547 638 592 596 q 424 681 503 681 q 304 648 353 681 q 246 563 256 615 l 135 563 q 182 675 143 626 q 283 751 221 724 q 424 778 346 778 q 626 709 551 778 q 701 524 701 640 l 701 0 l 593 0 l 593 140 q 518 27 582 68 q 357 -14 454 -14 m 383 75 q 533 121 475 75 q 592 240 592 167 l 592 356 l 350 356 q 246 319 285 356 q 207 221 207 283 q 254 115 207 154 q 383 75 301 75 m 393 1056 l 226 1236 l 346 1236 l 504 1056 l 393 1056 m 424 890 q 258 940 321 890 q 194 1069 194 989 l 283 1069 q 322 995 283 1024 q 424 967 360 967 q 526 995 488 967 q 564 1069 564 1024 l 653 1069 q 590 940 653 989 q 424 890 526 890 z "},"ẳ":{"ha":833,"x_min":97,"x_max":701,"o":"m 357 -14 q 167 48 236 -14 q 97 215 97 110 q 165 380 97 319 q 349 440 233 440 l 592 440 l 592 521 q 547 638 592 596 q 424 681 503 681 q 304 648 353 681 q 246 563 256 615 l 135 563 q 182 675 143 626 q 283 751 221 724 q 424 778 346 778 q 626 709 551 778 q 701 524 701 640 l 701 0 l 593 0 l 593 140 q 518 27 582 68 q 357 -14 454 -14 m 383 75 q 533 121 475 75 q 592 240 592 167 l 592 356 l 350 356 q 246 319 285 356 q 207 221 207 283 q 254 115 207 154 q 383 75 301 75 m 364 1056 l 429 1142 q 444 1182 444 1163 q 404 1217 444 1217 l 321 1217 l 321 1290 l 414 1290 q 504 1264 471 1290 q 538 1197 538 1238 q 530 1159 538 1178 q 511 1124 522 1140 l 461 1056 l 364 1056 m 424 890 q 258 940 321 890 q 194 1069 194 989 l 283 1069 q 322 995 283 1024 q 424 967 360 967 q 526 995 488 967 q 564 1069 564 1024 l 653 1069 q 590 940 653 989 q 424 890 526 890 z "},"ẵ":{"ha":833,"x_min":97,"x_max":701,"o":"m 357 -14 q 167 48 236 -14 q 97 215 97 110 q 165 380 97 319 q 349 440 233 440 l 592 440 l 592 521 q 547 638 592 596 q 424 681 503 681 q 304 648 353 681 q 246 563 256 615 l 135 563 q 182 675 143 626 q 283 751 221 724 q 424 778 346 778 q 626 709 551 778 q 701 524 701 640 l 701 0 l 593 0 l 593 140 q 518 27 582 68 q 357 -14 454 -14 m 383 75 q 533 121 475 75 q 592 240 592 167 l 592 356 l 350 356 q 246 319 285 356 q 207 221 207 283 q 254 115 207 154 q 383 75 301 75 m 517 1129 q 449 1142 474 1129 q 407 1174 424 1156 q 374 1206 390 1192 q 333 1219 357 1219 q 288 1174 288 1219 l 288 1139 l 207 1139 l 207 1168 q 241 1256 207 1224 q 332 1288 275 1288 q 401 1274 375 1288 q 443 1243 426 1261 q 476 1211 460 1225 q 515 1197 492 1197 q 560 1243 560 1197 l 560 1278 l 640 1278 l 640 1249 q 607 1161 640 1193 q 517 1129 574 1129 m 424 896 q 265 945 325 896 q 206 1075 206 994 l 288 1075 q 325 999 288 1028 q 422 971 363 971 q 522 999 483 971 q 560 1075 560 1028 l 642 1075 q 582 945 642 994 q 424 896 522 896 z "},"ǎ":{"ha":833,"x_min":97,"x_max":701,"o":"m 357 -14 q 167 48 236 -14 q 97 215 97 110 q 165 380 97 319 q 349 440 233 440 l 592 440 l 592 521 q 547 638 592 596 q 424 681 503 681 q 304 648 353 681 q 246 563 256 615 l 135 563 q 182 675 143 626 q 283 751 221 724 q 424 778 346 778 q 626 709 551 778 q 701 524 701 640 l 701 0 l 593 0 l 593 140 q 518 27 582 68 q 357 -14 454 -14 m 383 75 q 533 121 475 75 q 592 240 592 167 l 592 356 l 350 356 q 246 319 285 356 q 207 221 207 283 q 254 115 207 154 q 383 75 301 75 m 371 896 l 183 1090 l 303 1090 l 425 971 l 543 1090 l 664 1090 l 478 896 l 371 896 z "},"â":{"ha":833,"x_min":97,"x_max":701,"o":"m 357 -14 q 167 48 236 -14 q 97 215 97 110 q 165 380 97 319 q 349 440 233 440 l 592 440 l 592 521 q 547 638 592 596 q 424 681 503 681 q 304 648 353 681 q 246 563 256 615 l 135 563 q 182 675 143 626 q 283 751 221 724 q 424 778 346 778 q 626 709 551 778 q 701 524 701 640 l 701 0 l 593 0 l 593 140 q 518 27 582 68 q 357 -14 454 -14 m 383 75 q 533 121 475 75 q 592 240 592 167 l 592 356 l 350 356 q 246 319 285 356 q 207 221 207 283 q 254 115 207 154 q 383 75 301 75 m 183 896 l 369 1090 l 476 1090 l 664 896 l 544 896 l 424 1015 l 306 896 l 183 896 z "},"ấ":{"ha":833,"x_min":97,"x_max":858,"o":"m 357 -14 q 167 48 236 -14 q 97 215 97 110 q 165 380 97 319 q 349 440 233 440 l 592 440 l 592 521 q 547 638 592 596 q 424 681 503 681 q 304 648 353 681 q 246 563 256 615 l 135 563 q 182 675 143 626 q 283 751 221 724 q 424 778 346 778 q 626 709 551 778 q 701 524 701 640 l 701 0 l 593 0 l 593 140 q 518 27 582 68 q 357 -14 454 -14 m 383 75 q 533 121 475 75 q 592 240 592 167 l 592 356 l 350 356 q 246 319 285 356 q 207 221 207 283 q 254 115 207 154 q 383 75 301 75 m 575 1056 l 735 1250 l 858 1250 l 690 1056 l 575 1056 m 185 896 l 369 1090 l 478 1090 l 664 896 l 543 896 l 424 1015 l 304 896 l 185 896 z "},"ậ":{"ha":833,"x_min":97,"x_max":701,"o":"m 357 -14 q 167 48 236 -14 q 97 215 97 110 q 165 380 97 319 q 349 440 233 440 l 592 440 l 592 521 q 547 638 592 596 q 424 681 503 681 q 304 648 353 681 q 246 563 256 615 l 135 563 q 182 675 143 626 q 283 751 221 724 q 424 778 346 778 q 626 709 551 778 q 701 524 701 640 l 701 0 l 593 0 l 593 140 q 518 27 582 68 q 357 -14 454 -14 m 383 75 q 533 121 475 75 q 592 240 592 167 l 592 356 l 350 356 q 246 319 285 356 q 207 221 207 283 q 254 115 207 154 q 383 75 301 75 m 424 -293 q 355 -270 381 -293 q 329 -208 329 -247 q 355 -145 329 -168 q 424 -122 381 -122 q 492 -145 467 -122 q 518 -208 518 -168 q 492 -270 518 -247 q 424 -293 467 -293 m 183 896 l 369 1090 l 476 1090 l 664 896 l 544 896 l 424 1015 l 306 896 l 183 896 z "},"ầ":{"ha":833,"x_min":97,"x_max":749,"o":"m 357 -14 q 167 48 236 -14 q 97 215 97 110 q 165 380 97 319 q 349 440 233 440 l 592 440 l 592 521 q 547 638 592 596 q 424 681 503 681 q 304 648 353 681 q 246 563 256 615 l 135 563 q 182 675 143 626 q 283 751 221 724 q 424 778 346 778 q 626 709 551 778 q 701 524 701 640 l 701 0 l 593 0 l 593 140 q 518 27 582 68 q 357 -14 454 -14 m 383 75 q 533 121 475 75 q 592 240 592 167 l 592 356 l 350 356 q 246 319 285 356 q 207 221 207 283 q 254 115 207 154 q 383 75 301 75 m 633 1056 l 454 1250 l 578 1250 l 749 1056 l 633 1056 m 185 896 l 369 1090 l 478 1090 l 664 896 l 543 896 l 424 1015 l 304 896 l 185 896 z "},"ẩ":{"ha":833,"x_min":97,"x_max":764,"o":"m 357 -14 q 167 48 236 -14 q 97 215 97 110 q 165 380 97 319 q 349 440 233 440 l 592 440 l 592 521 q 547 638 592 596 q 424 681 503 681 q 304 648 353 681 q 246 563 256 615 l 135 563 q 182 675 143 626 q 283 751 221 724 q 424 778 346 778 q 626 709 551 778 q 701 524 701 640 l 701 0 l 593 0 l 593 140 q 518 27 582 68 q 357 -14 454 -14 m 383 75 q 533 121 475 75 q 592 240 592 167 l 592 356 l 350 356 q 246 319 285 356 q 207 221 207 283 q 254 115 207 154 q 383 75 301 75 m 594 1056 l 658 1142 q 675 1181 675 1164 q 629 1217 675 1217 l 550 1217 l 550 1290 l 633 1290 q 728 1264 693 1290 q 764 1193 764 1238 q 736 1124 764 1161 l 688 1056 l 594 1056 m 185 896 l 369 1090 l 478 1090 l 664 896 l 543 896 l 424 1015 l 304 896 l 185 896 z "},"ẫ":{"ha":833,"x_min":97,"x_max":701,"o":"m 357 -14 q 167 48 236 -14 q 97 215 97 110 q 165 380 97 319 q 349 440 233 440 l 592 440 l 592 521 q 547 638 592 596 q 424 681 503 681 q 304 648 353 681 q 246 563 256 615 l 135 563 q 182 675 143 626 q 283 751 221 724 q 424 778 346 778 q 626 709 551 778 q 701 524 701 640 l 701 0 l 593 0 l 593 140 q 518 27 582 68 q 357 -14 454 -14 m 383 75 q 533 121 475 75 q 592 240 592 167 l 592 356 l 350 356 q 246 319 285 356 q 207 221 207 283 q 254 115 207 154 q 383 75 301 75 m 517 1129 q 449 1142 474 1129 q 407 1174 424 1156 q 374 1206 390 1192 q 333 1219 357 1219 q 288 1174 288 1219 l 288 1139 l 207 1139 l 207 1168 q 241 1256 207 1224 q 332 1288 275 1288 q 401 1274 375 1288 q 443 1243 426 1261 q 476 1211 460 1225 q 515 1197 492 1197 q 560 1243 560 1197 l 560 1278 l 640 1278 l 640 1249 q 607 1161 640 1193 q 517 1129 574 1129 m 185 896 l 369 1090 l 478 1090 l 664 896 l 543 896 l 424 1015 l 304 896 l 185 896 z "},"ä":{"ha":833,"x_min":97,"x_max":701,"o":"m 357 -14 q 167 48 236 -14 q 97 215 97 110 q 165 380 97 319 q 349 440 233 440 l 592 440 l 592 521 q 547 638 592 596 q 424 681 503 681 q 304 648 353 681 q 246 563 256 615 l 135 563 q 182 675 143 626 q 283 751 221 724 q 424 778 346 778 q 626 709 551 778 q 701 524 701 640 l 701 0 l 593 0 l 593 140 q 518 27 582 68 q 357 -14 454 -14 m 383 75 q 533 121 475 75 q 592 240 592 167 l 592 356 l 350 356 q 246 319 285 356 q 207 221 207 283 q 254 115 207 154 q 383 75 301 75 m 576 904 q 515 926 538 904 q 492 988 492 949 q 515 1051 492 1028 q 576 1075 538 1075 q 638 1051 615 1075 q 661 988 661 1028 q 638 926 661 949 q 576 904 615 904 m 271 904 q 209 926 232 904 q 186 988 186 949 q 209 1051 186 1028 q 271 1075 232 1075 q 333 1051 310 1075 q 356 988 356 1028 q 333 926 356 949 q 271 904 310 904 z "},"ạ":{"ha":833,"x_min":97,"x_max":701,"o":"m 357 -14 q 167 48 236 -14 q 97 215 97 110 q 165 380 97 319 q 349 440 233 440 l 592 440 l 592 521 q 547 638 592 596 q 424 681 503 681 q 304 648 353 681 q 246 563 256 615 l 135 563 q 182 675 143 626 q 283 751 221 724 q 424 778 346 778 q 626 709 551 778 q 701 524 701 640 l 701 0 l 593 0 l 593 140 q 518 27 582 68 q 357 -14 454 -14 m 383 75 q 533 121 475 75 q 592 240 592 167 l 592 356 l 350 356 q 246 319 285 356 q 207 221 207 283 q 254 115 207 154 q 383 75 301 75 m 424 -293 q 355 -270 381 -293 q 329 -208 329 -247 q 355 -145 329 -168 q 424 -122 381 -122 q 492 -145 467 -122 q 518 -208 518 -168 q 492 -270 518 -247 q 424 -293 467 -293 z "},"à":{"ha":833,"x_min":97,"x_max":701,"o":"m 357 -14 q 167 48 236 -14 q 97 215 97 110 q 165 380 97 319 q 349 440 233 440 l 592 440 l 592 521 q 547 638 592 596 q 424 681 503 681 q 304 648 353 681 q 246 563 256 615 l 135 563 q 182 675 143 626 q 283 751 221 724 q 424 778 346 778 q 626 709 551 778 q 701 524 701 640 l 701 0 l 593 0 l 593 140 q 518 27 582 68 q 357 -14 454 -14 m 383 75 q 533 121 475 75 q 592 240 592 167 l 592 356 l 350 356 q 246 319 285 356 q 207 221 207 283 q 254 115 207 154 q 383 75 301 75 m 383 896 l 225 1090 l 350 1090 l 501 896 l 383 896 z "},"ả":{"ha":833,"x_min":97,"x_max":701,"o":"m 357 -14 q 167 48 236 -14 q 97 215 97 110 q 165 380 97 319 q 349 440 233 440 l 592 440 l 592 521 q 547 638 592 596 q 424 681 503 681 q 304 648 353 681 q 246 563 256 615 l 135 563 q 182 675 143 626 q 283 751 221 724 q 424 778 346 778 q 626 709 551 778 q 701 524 701 640 l 701 0 l 593 0 l 593 140 q 518 27 582 68 q 357 -14 454 -14 m 383 75 q 533 121 475 75 q 592 240 592 167 l 592 356 l 350 356 q 246 319 285 356 q 207 221 207 283 q 254 115 207 154 q 383 75 301 75 m 371 896 l 443 988 q 464 1035 464 1015 q 417 1065 464 1065 l 303 1065 l 303 1144 l 443 1144 q 526 1118 494 1144 q 558 1047 558 1092 q 533 972 558 1004 l 476 896 l 371 896 z "},"ā":{"ha":833,"x_min":97,"x_max":701,"o":"m 357 -14 q 167 48 236 -14 q 97 215 97 110 q 165 380 97 319 q 349 440 233 440 l 592 440 l 592 521 q 547 638 592 596 q 424 681 503 681 q 304 648 353 681 q 246 563 256 615 l 135 563 q 182 675 143 626 q 283 751 221 724 q 424 778 346 778 q 626 709 551 778 q 701 524 701 640 l 701 0 l 593 0 l 593 140 q 518 27 582 68 q 357 -14 454 -14 m 383 75 q 533 121 475 75 q 592 240 592 167 l 592 356 l 350 356 q 246 319 285 356 q 207 221 207 283 q 254 115 207 154 q 383 75 301 75 m 208 936 l 208 1028 l 639 1028 l 639 936 l 208 936 z "},"ą":{"ha":833,"x_min":97,"x_max":774,"o":"m 357 -14 q 167 48 236 -14 q 97 215 97 110 q 165 380 97 319 q 349 440 233 440 l 592 440 l 592 521 q 547 638 592 596 q 424 681 503 681 q 304 648 353 681 q 246 563 256 615 l 135 563 q 182 675 143 626 q 283 751 221 724 q 424 778 346 778 q 626 709 551 778 q 701 524 701 640 l 701 0 q 614 -133 614 -75 q 634 -183 614 -164 q 689 -203 654 -203 l 774 -203 l 774 -279 l 667 -279 q 553 -244 596 -279 q 510 -154 510 -210 q 533 -79 510 -118 q 608 0 556 -40 l 593 0 l 593 140 q 518 27 582 68 q 357 -14 454 -14 m 383 75 q 533 121 475 75 q 592 240 592 167 l 592 356 l 350 356 q 246 319 285 356 q 207 221 207 283 q 254 115 207 154 q 383 75 301 75 z "},"å":{"ha":833,"x_min":97,"x_max":701,"o":"m 357 -14 q 167 48 236 -14 q 97 215 97 110 q 165 380 97 319 q 349 440 233 440 l 592 440 l 592 521 q 547 638 592 596 q 424 681 503 681 q 304 648 353 681 q 246 563 256 615 l 135 563 q 182 675 143 626 q 283 751 221 724 q 424 778 346 778 q 626 709 551 778 q 701 524 701 640 l 701 0 l 593 0 l 593 140 q 518 27 582 68 q 357 -14 454 -14 m 383 75 q 533 121 475 75 q 592 240 592 167 l 592 356 l 350 356 q 246 319 285 356 q 207 221 207 283 q 254 115 207 154 q 383 75 301 75 m 424 847 q 307 890 351 847 q 263 1000 263 932 q 307 1111 263 1069 q 424 1153 351 1153 q 540 1111 496 1153 q 585 1000 585 1069 q 540 890 585 932 q 424 847 496 847 m 424 914 q 485 938 463 914 q 508 1000 508 961 q 485 1063 508 1039 q 424 1088 463 1088 q 362 1063 385 1088 q 339 1000 339 1039 q 362 938 339 961 q 424 914 385 914 z "},"ã":{"ha":833,"x_min":97,"x_max":701,"o":"m 357 -14 q 167 48 236 -14 q 97 215 97 110 q 165 380 97 319 q 349 440 233 440 l 592 440 l 592 521 q 547 638 592 596 q 424 681 503 681 q 304 648 353 681 q 246 563 256 615 l 135 563 q 182 675 143 626 q 283 751 221 724 q 424 778 346 778 q 626 709 551 778 q 701 524 701 640 l 701 0 l 593 0 l 593 140 q 518 27 582 68 q 357 -14 454 -14 m 383 75 q 533 121 475 75 q 592 240 592 167 l 592 356 l 350 356 q 246 319 285 356 q 207 221 207 283 q 254 115 207 154 q 383 75 301 75 m 522 903 q 456 919 482 903 q 410 956 429 935 q 374 992 392 976 q 332 1008 356 1008 q 282 953 282 1008 l 282 910 l 201 910 l 201 953 q 235 1049 201 1015 q 326 1083 269 1083 q 394 1067 368 1083 q 439 1031 419 1051 q 476 994 458 1010 q 518 978 493 978 q 565 1033 565 978 l 565 1076 l 646 1076 l 646 1033 q 613 937 646 971 q 522 903 579 903 z "},"æ":{"ha":833,"x_min":50,"x_max":783,"o":"m 238 -14 q 101 40 151 -14 q 50 183 50 93 l 50 263 q 106 397 50 346 q 254 447 161 447 l 369 447 l 369 558 q 267 683 369 683 q 197 656 224 683 q 168 585 169 629 l 63 585 q 116 725 65 672 q 250 778 167 778 q 340 760 304 778 q 394 715 375 742 q 418 664 414 689 l 424 664 q 447 715 428 689 q 499 760 465 742 q 585 778 533 778 q 730 719 676 778 q 783 560 783 660 l 783 358 l 471 358 l 471 204 q 499 115 471 150 q 574 81 528 81 q 649 108 622 81 q 678 179 676 135 l 783 179 q 728 39 782 92 q 586 -14 675 -14 q 499 4 533 -14 q 446 49 464 22 q 424 99 428 75 l 418 99 q 393 49 414 75 q 334 4 372 22 q 238 -14 296 -14 m 471 447 l 678 447 l 678 560 q 650 649 678 614 q 574 683 622 683 q 499 649 526 683 q 471 560 471 614 l 471 447 m 261 81 q 340 115 310 81 q 369 204 369 149 l 369 358 l 257 358 q 187 332 213 358 q 161 263 161 306 l 161 183 q 188 109 161 138 q 261 81 215 81 z "},"ǽ":{"ha":833,"x_min":50,"x_max":783,"o":"m 238 -14 q 101 40 151 -14 q 50 183 50 93 l 50 263 q 106 397 50 346 q 254 447 161 447 l 369 447 l 369 558 q 267 683 369 683 q 197 656 224 683 q 168 585 169 629 l 63 585 q 116 725 65 672 q 250 778 167 778 q 340 760 304 778 q 394 715 375 742 q 418 664 414 689 l 424 664 q 447 715 428 689 q 499 760 465 742 q 585 778 533 778 q 730 719 676 778 q 783 560 783 660 l 783 358 l 471 358 l 471 204 q 499 115 471 150 q 574 81 528 81 q 649 108 622 81 q 678 179 676 135 l 783 179 q 728 39 782 92 q 586 -14 675 -14 q 499 4 533 -14 q 446 49 464 22 q 424 99 428 75 l 418 99 q 393 49 414 75 q 334 4 372 22 q 238 -14 296 -14 m 471 447 l 678 447 l 678 560 q 650 649 678 614 q 574 683 622 683 q 499 649 526 683 q 471 560 471 614 l 471 447 m 261 81 q 340 115 310 81 q 369 204 369 149 l 369 358 l 257 358 q 187 332 213 358 q 161 263 161 306 l 161 183 q 188 109 161 138 q 261 81 215 81 m 349 896 l 496 1090 l 617 1090 l 461 896 l 349 896 z "},"b":{"ha":833,"x_min":135,"x_max":708,"o":"m 454 -14 q 315 26 371 -14 q 246 135 260 65 l 244 135 l 244 0 l 135 0 l 135 1014 l 244 1014 l 244 796 l 243 629 l 246 629 q 316 738 260 699 q 454 778 372 778 q 639 701 569 778 q 708 494 708 625 l 708 268 q 638 62 708 138 q 454 -14 568 -14 m 419 82 q 550 132 503 82 q 597 274 597 182 l 597 490 q 550 632 597 582 q 419 682 503 682 q 291 631 338 682 q 244 490 244 581 l 244 274 q 292 133 244 183 q 419 82 339 82 z "},"c":{"ha":833,"x_min":125,"x_max":713,"o":"m 421 -14 q 206 63 286 -14 q 125 274 125 140 l 125 490 q 206 701 125 624 q 421 778 286 778 q 631 707 553 778 q 713 514 710 636 l 603 514 q 552 635 600 592 q 421 679 504 679 q 286 630 336 679 q 236 490 236 581 l 236 274 q 286 134 236 183 q 421 85 336 85 q 552 128 504 85 q 603 250 600 172 l 713 250 q 631 57 710 128 q 421 -14 553 -14 z "},"ć":{"ha":833,"x_min":125,"x_max":713,"o":"m 421 -14 q 206 63 286 -14 q 125 274 125 140 l 125 490 q 206 701 125 624 q 421 778 286 778 q 631 707 553 778 q 713 514 710 636 l 603 514 q 552 635 600 592 q 421 679 504 679 q 286 630 336 679 q 236 490 236 581 l 236 274 q 286 134 236 183 q 421 85 336 85 q 552 128 504 85 q 603 250 600 172 l 713 250 q 631 57 710 128 q 421 -14 553 -14 m 353 896 l 500 1090 l 621 1090 l 465 896 l 353 896 z "},"č":{"ha":833,"x_min":125,"x_max":713,"o":"m 421 -14 q 206 63 286 -14 q 125 274 125 140 l 125 490 q 206 701 125 624 q 421 778 286 778 q 631 707 553 778 q 713 514 710 636 l 603 514 q 552 635 600 592 q 421 679 504 679 q 286 630 336 679 q 236 490 236 581 l 236 274 q 286 134 236 183 q 421 85 336 85 q 552 128 504 85 q 603 250 600 172 l 713 250 q 631 57 710 128 q 421 -14 553 -14 m 368 896 l 181 1090 l 300 1090 l 422 971 l 540 1090 l 661 1090 l 475 896 l 368 896 z "},"ç":{"ha":833,"x_min":125,"x_max":713,"o":"m 292 -279 l 292 -210 l 392 -210 q 443 -194 424 -210 q 463 -158 463 -178 q 422 -113 463 -132 q 311 -94 382 -94 l 344 -7 q 184 87 243 14 q 125 274 125 160 l 125 490 q 206 701 125 624 q 421 778 286 778 q 631 707 553 778 q 713 514 710 636 l 603 514 q 552 635 600 592 q 421 679 504 679 q 286 630 336 679 q 236 490 236 581 l 236 274 q 286 134 236 183 q 421 85 336 85 q 552 128 504 85 q 603 250 600 172 l 713 250 q 631 57 710 128 q 421 -14 553 -14 q 417 -14 418 -14 l 404 -49 q 477 -65 439 -51 q 541 -104 515 -79 q 567 -165 567 -129 q 523 -246 567 -212 q 407 -279 479 -279 l 292 -279 z "},"ĉ":{"ha":833,"x_min":125,"x_max":713,"o":"m 421 -14 q 206 63 286 -14 q 125 274 125 140 l 125 490 q 206 701 125 624 q 421 778 286 778 q 631 707 553 778 q 713 514 710 636 l 603 514 q 552 635 600 592 q 421 679 504 679 q 286 630 336 679 q 236 490 236 581 l 236 274 q 286 134 236 183 q 421 85 336 85 q 552 128 504 85 q 603 250 600 172 l 713 250 q 631 57 710 128 q 421 -14 553 -14 m 181 896 l 367 1090 l 474 1090 l 661 896 l 542 896 l 421 1015 l 303 896 l 181 896 z "},"ċ":{"ha":833,"x_min":125,"x_max":713,"o":"m 421 -14 q 206 63 286 -14 q 125 274 125 140 l 125 490 q 206 701 125 624 q 421 778 286 778 q 631 707 553 778 q 713 514 710 636 l 603 514 q 552 635 600 592 q 421 679 504 679 q 286 630 336 679 q 236 490 236 581 l 236 274 q 286 134 236 183 q 421 85 336 85 q 552 128 504 85 q 603 250 600 172 l 713 250 q 631 57 710 128 q 421 -14 553 -14 m 421 904 q 352 926 378 904 q 326 988 326 949 q 352 1051 326 1028 q 421 1075 378 1075 q 490 1051 464 1075 q 515 988 515 1028 q 490 926 515 949 q 421 904 464 904 z "},"d":{"ha":833,"x_min":125,"x_max":699,"o":"m 379 -14 q 195 62 265 -14 q 125 268 125 138 l 125 494 q 194 701 125 625 q 379 778 264 778 q 517 738 461 778 q 588 629 574 699 l 590 629 l 589 796 l 589 1014 l 699 1014 l 699 0 l 589 0 l 589 135 l 588 135 q 518 26 574 65 q 379 -14 463 -14 m 414 82 q 542 133 494 82 q 589 274 589 183 l 589 490 q 542 631 589 581 q 414 682 496 682 q 283 632 331 682 q 236 490 236 582 l 236 274 q 283 132 236 182 q 414 82 331 82 z "},"ð":{"ha":833,"x_min":101,"x_max":732,"o":"m 415 -14 q 250 25 321 -14 q 140 134 179 64 q 101 299 101 204 q 138 460 101 392 q 240 567 174 529 q 393 606 306 606 q 503 575 458 606 q 567 515 549 544 l 582 515 q 551 572 575 531 q 483 671 526 613 l 390 801 l 163 694 l 163 792 l 339 874 l 236 1014 l 367 1014 l 433 917 l 640 1014 l 640 917 l 485 844 l 589 693 q 694 497 657 597 q 732 306 732 396 q 693 138 732 210 q 583 26 654 65 q 415 -14 511 -14 m 415 86 q 565 144 508 86 q 621 299 621 203 q 564 453 621 394 q 415 511 507 511 q 268 453 324 511 q 213 299 213 394 q 268 144 213 203 q 415 86 324 86 z "},"ď":{"ha":833,"x_min":97,"x_max":822,"o":"m 708 764 l 713 1014 l 822 1014 l 807 764 l 708 764 m 329 -14 q 160 61 224 -14 q 97 263 97 136 l 97 500 q 160 703 97 628 q 329 778 224 778 q 457 738 407 778 q 519 629 507 699 l 522 629 l 519 796 l 519 1014 l 631 1014 l 631 0 l 519 0 l 519 135 l 519 135 q 457 26 507 65 q 329 -14 407 -14 m 364 82 q 478 131 436 82 q 519 268 519 181 l 519 494 q 478 633 519 583 q 364 682 436 682 q 249 633 290 682 q 208 494 208 583 l 208 268 q 249 131 208 181 q 364 82 290 82 z "},"đ":{"ha":833,"x_min":131,"x_max":829,"o":"m 379 -14 q 198 62 265 -14 q 131 268 131 138 l 131 411 q 197 618 131 542 q 379 694 264 694 q 517 655 461 694 q 586 546 572 615 l 589 546 l 586 713 l 586 797 l 351 797 l 351 890 l 586 890 l 586 1014 l 697 1014 l 697 890 l 829 890 l 829 797 l 697 797 l 697 0 l 586 0 l 586 135 l 586 135 q 517 26 572 65 q 379 -14 463 -14 m 414 82 q 540 133 494 82 q 586 274 586 183 l 586 407 q 541 548 586 497 q 414 599 496 599 q 285 549 331 599 q 240 407 240 499 l 240 274 q 285 132 240 182 q 414 82 331 82 z "},"e":{"ha":833,"x_min":125,"x_max":708,"o":"m 417 -14 q 204 65 283 -14 q 125 274 125 143 l 125 490 q 204 699 125 621 q 417 778 283 778 q 629 699 550 778 q 708 490 708 621 l 708 356 l 233 356 l 233 274 q 281 130 233 181 q 417 79 329 79 q 536 108 490 79 q 596 193 582 138 l 706 193 q 613 42 690 97 q 417 -14 535 -14 m 233 442 l 600 442 l 600 490 q 553 634 600 583 q 417 685 506 685 q 281 634 328 685 q 233 490 233 583 l 233 442 z "},"é":{"ha":833,"x_min":125,"x_max":708,"o":"m 417 -14 q 204 65 283 -14 q 125 274 125 143 l 125 490 q 204 699 125 621 q 417 778 283 778 q 629 699 550 778 q 708 490 708 621 l 708 356 l 233 356 l 233 274 q 281 130 233 181 q 417 79 329 79 q 536 108 490 79 q 596 193 582 138 l 706 193 q 613 42 690 97 q 417 -14 535 -14 m 233 442 l 600 442 l 600 490 q 553 634 600 583 q 417 685 506 685 q 281 634 328 685 q 233 490 233 583 l 233 442 m 349 896 l 496 1090 l 617 1090 l 461 896 l 349 896 z "},"ĕ":{"ha":833,"x_min":125,"x_max":708,"o":"m 417 -14 q 204 65 283 -14 q 125 274 125 143 l 125 490 q 204 699 125 621 q 417 778 283 778 q 629 699 550 778 q 708 490 708 621 l 708 356 l 233 356 l 233 274 q 281 130 233 181 q 417 79 329 79 q 536 108 490 79 q 596 193 582 138 l 706 193 q 613 42 690 97 q 417 -14 535 -14 m 233 442 l 600 442 l 600 490 q 553 634 600 583 q 417 685 506 685 q 281 634 328 685 q 233 490 233 583 l 233 442 m 417 890 q 259 945 318 890 q 200 1090 200 1000 l 289 1090 q 324 999 289 1033 q 415 964 358 964 q 509 999 474 964 q 544 1090 544 1033 l 633 1090 q 574 945 633 1000 q 417 890 515 890 z "},"ě":{"ha":833,"x_min":125,"x_max":708,"o":"m 417 -14 q 204 65 283 -14 q 125 274 125 143 l 125 490 q 204 699 125 621 q 417 778 283 778 q 629 699 550 778 q 708 490 708 621 l 708 356 l 233 356 l 233 274 q 281 130 233 181 q 417 79 329 79 q 536 108 490 79 q 596 193 582 138 l 706 193 q 613 42 690 97 q 417 -14 535 -14 m 233 442 l 600 442 l 600 490 q 553 634 600 583 q 417 685 506 685 q 281 634 328 685 q 233 490 233 583 l 233 442 m 364 896 l 176 1090 l 296 1090 l 418 971 l 536 1090 l 657 1090 l 471 896 l 364 896 z "},"ê":{"ha":833,"x_min":125,"x_max":708,"o":"m 417 -14 q 204 65 283 -14 q 125 274 125 143 l 125 490 q 204 699 125 621 q 417 778 283 778 q 629 699 550 778 q 708 490 708 621 l 708 356 l 233 356 l 233 274 q 281 130 233 181 q 417 79 329 79 q 536 108 490 79 q 596 193 582 138 l 706 193 q 613 42 690 97 q 417 -14 535 -14 m 233 442 l 600 442 l 600 490 q 553 634 600 583 q 417 685 506 685 q 281 634 328 685 q 233 490 233 583 l 233 442 m 176 896 l 363 1090 l 469 1090 l 657 896 l 538 896 l 417 1015 l 299 896 l 176 896 z "},"ế":{"ha":833,"x_min":125,"x_max":851,"o":"m 417 -14 q 204 65 283 -14 q 125 274 125 143 l 125 490 q 204 699 125 621 q 417 778 283 778 q 629 699 550 778 q 708 490 708 621 l 708 356 l 233 356 l 233 274 q 281 130 233 181 q 417 79 329 79 q 536 108 490 79 q 596 193 582 138 l 706 193 q 613 42 690 97 q 417 -14 535 -14 m 233 442 l 600 442 l 600 490 q 553 634 600 583 q 417 685 506 685 q 281 634 328 685 q 233 490 233 583 l 233 442 m 568 1056 l 728 1250 l 851 1250 l 683 1056 l 568 1056 m 178 896 l 363 1090 l 471 1090 l 657 896 l 536 896 l 417 1015 l 297 896 l 178 896 z "},"ệ":{"ha":833,"x_min":125,"x_max":708,"o":"m 417 -14 q 204 65 283 -14 q 125 274 125 143 l 125 490 q 204 699 125 621 q 417 778 283 778 q 629 699 550 778 q 708 490 708 621 l 708 356 l 233 356 l 233 274 q 281 130 233 181 q 417 79 329 79 q 536 108 490 79 q 596 193 582 138 l 706 193 q 613 42 690 97 q 417 -14 535 -14 m 233 442 l 600 442 l 600 490 q 553 634 600 583 q 417 685 506 685 q 281 634 328 685 q 233 490 233 583 l 233 442 m 417 -293 q 348 -270 374 -293 q 322 -208 322 -247 q 348 -145 322 -168 q 417 -122 374 -122 q 485 -145 460 -122 q 511 -208 511 -168 q 485 -270 511 -247 q 417 -293 460 -293 m 176 896 l 363 1090 l 469 1090 l 657 896 l 538 896 l 417 1015 l 299 896 l 176 896 z "},"ề":{"ha":833,"x_min":125,"x_max":742,"o":"m 417 -14 q 204 65 283 -14 q 125 274 125 143 l 125 490 q 204 699 125 621 q 417 778 283 778 q 629 699 550 778 q 708 490 708 621 l 708 356 l 233 356 l 233 274 q 281 130 233 181 q 417 79 329 79 q 536 108 490 79 q 596 193 582 138 l 706 193 q 613 42 690 97 q 417 -14 535 -14 m 233 442 l 600 442 l 600 490 q 553 634 600 583 q 417 685 506 685 q 281 634 328 685 q 233 490 233 583 l 233 442 m 626 1056 l 447 1250 l 571 1250 l 742 1056 l 626 1056 m 178 896 l 363 1090 l 471 1090 l 657 896 l 536 896 l 417 1015 l 297 896 l 178 896 z "},"ể":{"ha":833,"x_min":125,"x_max":757,"o":"m 417 -14 q 204 65 283 -14 q 125 274 125 143 l 125 490 q 204 699 125 621 q 417 778 283 778 q 629 699 550 778 q 708 490 708 621 l 708 356 l 233 356 l 233 274 q 281 130 233 181 q 417 79 329 79 q 536 108 490 79 q 596 193 582 138 l 706 193 q 613 42 690 97 q 417 -14 535 -14 m 233 442 l 600 442 l 600 490 q 553 634 600 583 q 417 685 506 685 q 281 634 328 685 q 233 490 233 583 l 233 442 m 588 1056 l 651 1142 q 668 1181 668 1164 q 622 1217 668 1217 l 543 1217 l 543 1290 l 626 1290 q 722 1264 686 1290 q 757 1193 757 1238 q 729 1124 757 1161 l 681 1056 l 588 1056 m 178 896 l 363 1090 l 471 1090 l 657 896 l 536 896 l 417 1015 l 297 896 l 178 896 z "},"ễ":{"ha":833,"x_min":125,"x_max":708,"o":"m 417 -14 q 204 65 283 -14 q 125 274 125 143 l 125 490 q 204 699 125 621 q 417 778 283 778 q 629 699 550 778 q 708 490 708 621 l 708 356 l 233 356 l 233 274 q 281 130 233 181 q 417 79 329 79 q 536 108 490 79 q 596 193 582 138 l 706 193 q 613 42 690 97 q 417 -14 535 -14 m 233 442 l 600 442 l 600 490 q 553 634 600 583 q 417 685 506 685 q 281 634 328 685 q 233 490 233 583 l 233 442 m 510 1129 q 442 1142 467 1129 q 400 1174 417 1156 q 367 1206 383 1192 q 326 1219 350 1219 q 281 1174 281 1219 l 281 1139 l 200 1139 l 200 1168 q 234 1256 200 1224 q 325 1288 268 1288 q 394 1274 368 1288 q 436 1243 419 1261 q 469 1211 453 1225 q 508 1197 485 1197 q 553 1243 553 1197 l 553 1278 l 633 1278 l 633 1249 q 600 1161 633 1193 q 510 1129 567 1129 m 178 896 l 363 1090 l 471 1090 l 657 896 l 536 896 l 417 1015 l 297 896 l 178 896 z "},"ë":{"ha":833,"x_min":125,"x_max":708,"o":"m 417 -14 q 204 65 283 -14 q 125 274 125 143 l 125 490 q 204 699 125 621 q 417 778 283 778 q 629 699 550 778 q 708 490 708 621 l 708 356 l 233 356 l 233 274 q 281 130 233 181 q 417 79 329 79 q 536 108 490 79 q 596 193 582 138 l 706 193 q 613 42 690 97 q 417 -14 535 -14 m 233 442 l 600 442 l 600 490 q 553 634 600 583 q 417 685 506 685 q 281 634 328 685 q 233 490 233 583 l 233 442 m 569 904 q 508 926 531 904 q 485 988 485 949 q 508 1051 485 1028 q 569 1075 531 1075 q 631 1051 608 1075 q 654 988 654 1028 q 631 926 654 949 q 569 904 608 904 m 264 904 q 202 926 225 904 q 179 988 179 949 q 202 1051 179 1028 q 264 1075 225 1075 q 326 1051 303 1075 q 349 988 349 1028 q 326 926 349 949 q 264 904 303 904 z "},"ė":{"ha":833,"x_min":125,"x_max":708,"o":"m 417 -14 q 204 65 283 -14 q 125 274 125 143 l 125 490 q 204 699 125 621 q 417 778 283 778 q 629 699 550 778 q 708 490 708 621 l 708 356 l 233 356 l 233 274 q 281 130 233 181 q 417 79 329 79 q 536 108 490 79 q 596 193 582 138 l 706 193 q 613 42 690 97 q 417 -14 535 -14 m 233 442 l 600 442 l 600 490 q 553 634 600 583 q 417 685 506 685 q 281 634 328 685 q 233 490 233 583 l 233 442 m 417 904 q 348 926 374 904 q 322 988 322 949 q 348 1051 322 1028 q 417 1075 374 1075 q 485 1051 460 1075 q 511 988 511 1028 q 485 926 511 949 q 417 904 460 904 z "},"ẹ":{"ha":833,"x_min":125,"x_max":708,"o":"m 417 -14 q 204 65 283 -14 q 125 274 125 143 l 125 490 q 204 699 125 621 q 417 778 283 778 q 629 699 550 778 q 708 490 708 621 l 708 356 l 233 356 l 233 274 q 281 130 233 181 q 417 79 329 79 q 536 108 490 79 q 596 193 582 138 l 706 193 q 613 42 690 97 q 417 -14 535 -14 m 233 442 l 600 442 l 600 490 q 553 634 600 583 q 417 685 506 685 q 281 634 328 685 q 233 490 233 583 l 233 442 m 417 -293 q 348 -270 374 -293 q 322 -208 322 -247 q 348 -145 322 -168 q 417 -122 374 -122 q 485 -145 460 -122 q 511 -208 511 -168 q 485 -270 511 -247 q 417 -293 460 -293 z "},"è":{"ha":833,"x_min":125,"x_max":708,"o":"m 417 -14 q 204 65 283 -14 q 125 274 125 143 l 125 490 q 204 699 125 621 q 417 778 283 778 q 629 699 550 778 q 708 490 708 621 l 708 356 l 233 356 l 233 274 q 281 130 233 181 q 417 79 329 79 q 536 108 490 79 q 596 193 582 138 l 706 193 q 613 42 690 97 q 417 -14 535 -14 m 233 442 l 600 442 l 600 490 q 553 634 600 583 q 417 685 506 685 q 281 634 328 685 q 233 490 233 583 l 233 442 m 376 896 l 218 1090 l 343 1090 l 494 896 l 376 896 z "},"ẻ":{"ha":833,"x_min":125,"x_max":708,"o":"m 417 -14 q 204 65 283 -14 q 125 274 125 143 l 125 490 q 204 699 125 621 q 417 778 283 778 q 629 699 550 778 q 708 490 708 621 l 708 356 l 233 356 l 233 274 q 281 130 233 181 q 417 79 329 79 q 536 108 490 79 q 596 193 582 138 l 706 193 q 613 42 690 97 q 417 -14 535 -14 m 233 442 l 600 442 l 600 490 q 553 634 600 583 q 417 685 506 685 q 281 634 328 685 q 233 490 233 583 l 233 442 m 364 896 l 436 988 q 457 1035 457 1015 q 410 1065 457 1065 l 296 1065 l 296 1144 l 436 1144 q 519 1118 488 1144 q 551 1047 551 1092 q 526 972 551 1004 l 469 896 l 364 896 z "},"ē":{"ha":833,"x_min":125,"x_max":708,"o":"m 417 -14 q 204 65 283 -14 q 125 274 125 143 l 125 490 q 204 699 125 621 q 417 778 283 778 q 629 699 550 778 q 708 490 708 621 l 708 356 l 233 356 l 233 274 q 281 130 233 181 q 417 79 329 79 q 536 108 490 79 q 596 193 582 138 l 706 193 q 613 42 690 97 q 417 -14 535 -14 m 233 442 l 600 442 l 600 490 q 553 634 600 583 q 417 685 506 685 q 281 634 328 685 q 233 490 233 583 l 233 442 m 201 936 l 201 1028 l 632 1028 l 632 936 l 201 936 z "},"ę":{"ha":833,"x_min":129,"x_max":704,"o":"m 519 -279 q 405 -244 447 -279 q 363 -154 363 -210 q 446 -12 363 -89 q 417 -14 431 -14 q 206 65 283 -14 q 129 274 129 143 l 129 490 q 206 699 129 621 q 417 778 283 778 q 627 699 550 778 q 704 490 704 621 l 704 356 l 236 356 l 236 274 q 283 130 236 181 q 417 79 329 79 q 592 193 565 79 l 703 193 q 663 93 694 136 q 581 24 631 50 l 554 1 q 465 -133 465 -74 q 485 -183 465 -164 q 540 -203 506 -203 l 625 -203 l 625 -279 l 519 -279 m 236 442 l 597 442 l 597 490 q 551 634 597 583 q 417 685 506 685 q 282 634 328 685 q 236 490 236 583 l 236 442 z "},"ẽ":{"ha":833,"x_min":125,"x_max":708,"o":"m 417 -14 q 204 65 283 -14 q 125 274 125 143 l 125 490 q 204 699 125 621 q 417 778 283 778 q 629 699 550 778 q 708 490 708 621 l 708 356 l 233 356 l 233 274 q 281 130 233 181 q 417 79 329 79 q 536 108 490 79 q 596 193 582 138 l 706 193 q 613 42 690 97 q 417 -14 535 -14 m 233 442 l 600 442 l 600 490 q 553 634 600 583 q 417 685 506 685 q 281 634 328 685 q 233 490 233 583 l 233 442 m 515 903 q 449 919 475 903 q 403 956 422 935 q 367 992 385 976 q 325 1008 349 1008 q 275 953 275 1008 l 275 910 l 194 910 l 194 953 q 228 1049 194 1015 q 319 1083 263 1083 q 387 1067 361 1083 q 432 1031 413 1051 q 469 994 451 1010 q 511 978 486 978 q 558 1033 558 978 l 558 1076 l 639 1076 l 639 1033 q 606 937 639 971 q 515 903 572 903 z "},"ə":{"ha":833,"x_min":131,"x_max":703,"o":"m 417 -14 q 207 65 283 -14 q 131 274 131 143 l 131 408 l 594 408 l 594 490 q 549 634 594 583 q 417 685 504 685 q 243 571 269 685 l 133 571 q 223 722 147 667 q 417 778 299 778 q 626 699 550 778 q 703 490 703 621 l 703 274 q 626 65 703 143 q 417 -14 550 -14 m 417 79 q 550 130 506 79 q 594 274 594 181 l 594 322 l 239 322 l 239 274 q 283 130 239 181 q 417 79 328 79 z "},"f":{"ha":833,"x_min":88,"x_max":739,"o":"m 313 0 l 313 588 l 88 588 l 88 688 l 313 688 l 313 825 q 367 963 313 913 q 518 1014 422 1014 l 739 1014 l 739 914 l 518 914 q 424 825 424 914 l 424 688 l 739 688 l 739 588 l 424 588 l 424 0 l 313 0 z "},"g":{"ha":833,"x_min":129,"x_max":697,"o":"m 228 -250 l 228 -150 l 460 -150 q 588 -26 588 -150 l 588 63 l 590 207 l 589 207 q 524 92 579 135 q 382 50 468 50 q 197 126 265 50 q 129 333 129 203 l 129 496 q 197 701 129 625 q 382 778 265 778 q 522 737 467 778 q 589 624 578 696 l 589 764 l 697 764 l 697 -26 q 635 -191 697 -132 q 460 -250 574 -250 l 228 -250 m 414 146 q 542 197 494 146 q 589 338 589 247 l 589 490 q 542 631 589 581 q 414 682 496 682 q 285 632 331 682 q 239 490 239 582 l 239 338 q 285 196 239 246 q 414 146 331 146 z "},"ǵ":{"ha":833,"x_min":129,"x_max":697,"o":"m 228 -250 l 228 -150 l 460 -150 q 588 -26 588 -150 l 588 63 l 590 207 l 589 207 q 524 92 579 135 q 382 50 468 50 q 197 126 265 50 q 129 333 129 203 l 129 496 q 197 701 129 625 q 382 778 265 778 q 522 737 467 778 q 589 624 578 696 l 589 764 l 697 764 l 697 -26 q 635 -191 697 -132 q 460 -250 574 -250 l 228 -250 m 414 146 q 542 197 494 146 q 589 338 589 247 l 589 490 q 542 631 589 581 q 414 682 496 682 q 285 632 331 682 q 239 490 239 582 l 239 338 q 285 196 239 246 q 414 146 331 146 m 344 896 l 492 1090 l 613 1090 l 457 896 l 344 896 z "},"ğ":{"ha":833,"x_min":129,"x_max":697,"o":"m 228 -250 l 228 -150 l 460 -150 q 588 -26 588 -150 l 588 63 l 590 207 l 589 207 q 524 92 579 135 q 382 50 468 50 q 197 126 265 50 q 129 333 129 203 l 129 496 q 197 701 129 625 q 382 778 265 778 q 522 737 467 778 q 589 624 578 696 l 589 764 l 697 764 l 697 -26 q 635 -191 697 -132 q 460 -250 574 -250 l 228 -250 m 414 146 q 542 197 494 146 q 589 338 589 247 l 589 490 q 542 631 589 581 q 414 682 496 682 q 285 632 331 682 q 239 490 239 582 l 239 338 q 285 196 239 246 q 414 146 331 146 m 413 890 q 255 945 314 890 q 196 1090 196 1000 l 285 1090 q 319 999 285 1033 q 411 964 354 964 q 505 999 469 964 q 540 1090 540 1033 l 629 1090 q 570 945 629 1000 q 413 890 511 890 z "},"ǧ":{"ha":833,"x_min":129,"x_max":697,"o":"m 228 -250 l 228 -150 l 460 -150 q 588 -26 588 -150 l 588 63 l 590 207 l 589 207 q 524 92 579 135 q 382 50 468 50 q 197 126 265 50 q 129 333 129 203 l 129 496 q 197 701 129 625 q 382 778 265 778 q 522 737 467 778 q 589 624 578 696 l 589 764 l 697 764 l 697 -26 q 635 -191 697 -132 q 460 -250 574 -250 l 228 -250 m 414 146 q 542 197 494 146 q 589 338 589 247 l 589 490 q 542 631 589 581 q 414 682 496 682 q 285 632 331 682 q 239 490 239 582 l 239 338 q 285 196 239 246 q 414 146 331 146 m 360 896 l 172 1090 l 292 1090 l 414 971 l 532 1090 l 653 1090 l 467 896 l 360 896 z "},"ĝ":{"ha":833,"x_min":129,"x_max":697,"o":"m 228 -250 l 228 -150 l 460 -150 q 588 -26 588 -150 l 588 63 l 590 207 l 589 207 q 524 92 579 135 q 382 50 468 50 q 197 126 265 50 q 129 333 129 203 l 129 496 q 197 701 129 625 q 382 778 265 778 q 522 737 467 778 q 589 624 578 696 l 589 764 l 697 764 l 697 -26 q 635 -191 697 -132 q 460 -250 574 -250 l 228 -250 m 414 146 q 542 197 494 146 q 589 338 589 247 l 589 490 q 542 631 589 581 q 414 682 496 682 q 285 632 331 682 q 239 490 239 582 l 239 338 q 285 196 239 246 q 414 146 331 146 m 172 896 l 358 1090 l 465 1090 l 653 896 l 533 896 l 413 1015 l 294 896 l 172 896 z "},"ģ":{"ha":833,"x_min":129,"x_max":697,"o":"m 228 -250 l 228 -150 l 460 -150 q 588 -26 588 -150 l 588 63 l 590 207 l 589 207 q 524 92 579 135 q 382 50 468 50 q 197 126 265 50 q 129 333 129 203 l 129 496 q 197 701 129 625 q 382 778 265 778 q 522 737 467 778 q 589 624 578 696 l 589 764 l 697 764 l 697 -26 q 635 -191 697 -132 q 460 -250 574 -250 l 228 -250 m 414 146 q 542 197 494 146 q 589 338 589 247 l 589 490 q 542 631 589 581 q 414 682 496 682 q 285 632 331 682 q 239 490 239 582 l 239 338 q 285 196 239 246 q 414 146 331 146 m 567 1222 l 450 896 l 299 896 l 474 1222 l 567 1222 z "},"ġ":{"ha":833,"x_min":129,"x_max":697,"o":"m 228 -250 l 228 -150 l 460 -150 q 588 -26 588 -150 l 588 63 l 590 207 l 589 207 q 524 92 579 135 q 382 50 468 50 q 197 126 265 50 q 129 333 129 203 l 129 496 q 197 701 129 625 q 382 778 265 778 q 522 737 467 778 q 589 624 578 696 l 589 764 l 697 764 l 697 -26 q 635 -191 697 -132 q 460 -250 574 -250 l 228 -250 m 414 146 q 542 197 494 146 q 589 338 589 247 l 589 490 q 542 631 589 581 q 414 682 496 682 q 285 632 331 682 q 239 490 239 582 l 239 338 q 285 196 239 246 q 414 146 331 146 m 413 904 q 344 926 369 904 q 318 988 318 949 q 344 1051 318 1028 q 413 1075 369 1075 q 481 1051 456 1075 q 507 988 507 1028 q 481 926 507 949 q 413 904 456 904 z "},"h":{"ha":833,"x_min":135,"x_max":701,"o":"m 135 0 l 135 1014 l 244 1014 l 244 628 l 246 628 q 313 738 258 699 q 451 778 367 778 q 633 706 565 778 q 701 513 701 635 l 701 0 l 592 0 l 592 500 q 546 636 592 588 q 421 685 500 685 q 292 633 339 685 q 244 490 244 582 l 244 0 l 135 0 z "},"ħ":{"ha":833,"x_min":3,"x_max":701,"o":"m 3 797 l 3 890 l 135 890 l 135 1014 l 244 1014 l 244 890 l 482 890 l 482 797 l 244 797 l 244 544 l 247 544 q 313 655 260 615 q 451 694 367 694 q 633 623 565 694 q 701 429 701 551 l 701 0 l 592 0 l 592 417 q 546 553 592 504 q 421 601 500 601 q 292 550 339 601 q 244 407 244 499 l 244 0 l 135 0 l 135 797 l 3 797 z "},"ĥ":{"ha":833,"x_min":-32,"x_max":701,"o":"m 135 0 l 135 1014 l 244 1014 l 244 628 l 246 628 q 313 738 258 699 q 451 778 367 778 q 633 706 565 778 q 701 513 701 635 l 701 0 l 592 0 l 592 500 q 546 636 592 588 q 421 685 500 685 q 292 633 339 685 q 244 490 244 582 l 244 0 l 135 0 m -32 1118 l 154 1313 l 261 1313 l 449 1118 l 329 1118 l 208 1238 l 90 1118 l -32 1118 z "},"i":{"ha":833,"x_min":122,"x_max":764,"o":"m 122 0 l 122 100 l 394 100 l 394 664 l 151 664 l 151 764 l 506 764 l 506 100 l 764 100 l 764 0 l 122 0 m 438 904 q 369 926 394 904 q 343 988 343 949 q 369 1051 343 1028 q 438 1075 394 1075 q 506 1051 481 1075 q 532 988 532 1028 q 506 926 532 949 q 438 904 481 904 z "},"ı":{"ha":833,"x_min":122,"x_max":764,"o":"m 122 0 l 122 100 l 394 100 l 394 664 l 151 664 l 151 764 l 506 764 l 506 100 l 764 100 l 764 0 l 122 0 z "},"í":{"ha":833,"x_min":122,"x_max":764,"o":"m 122 0 l 122 100 l 394 100 l 394 664 l 151 664 l 151 764 l 506 764 l 506 100 l 764 100 l 764 0 l 122 0 m 369 896 l 517 1090 l 638 1090 l 482 896 l 369 896 z "},"ĭ":{"ha":833,"x_min":122,"x_max":764,"o":"m 122 0 l 122 100 l 394 100 l 394 664 l 151 664 l 151 764 l 506 764 l 506 100 l 764 100 l 764 0 l 122 0 m 438 890 q 280 945 339 890 q 221 1090 221 1000 l 310 1090 q 344 999 310 1033 q 436 964 379 964 q 530 999 494 964 q 565 1090 565 1033 l 654 1090 q 595 945 654 1000 q 438 890 536 890 z "},"ǐ":{"ha":833,"x_min":122,"x_max":764,"o":"m 122 0 l 122 100 l 394 100 l 394 664 l 151 664 l 151 764 l 506 764 l 506 100 l 764 100 l 764 0 l 122 0 m 385 896 l 197 1090 l 317 1090 l 439 971 l 557 1090 l 678 1090 l 492 896 l 385 896 z "},"î":{"ha":833,"x_min":122,"x_max":764,"o":"m 122 0 l 122 100 l 394 100 l 394 664 l 151 664 l 151 764 l 506 764 l 506 100 l 764 100 l 764 0 l 122 0 m 197 896 l 383 1090 l 490 1090 l 678 896 l 558 896 l 438 1015 l 319 896 l 197 896 z "},"ï":{"ha":833,"x_min":122,"x_max":764,"o":"m 122 0 l 122 100 l 394 100 l 394 664 l 151 664 l 151 764 l 506 764 l 506 100 l 764 100 l 764 0 l 122 0 m 590 904 q 528 926 551 904 q 506 988 506 949 q 528 1051 506 1028 q 590 1075 551 1075 q 652 1051 629 1075 q 675 988 675 1028 q 652 926 675 949 q 590 904 629 904 m 285 904 q 223 926 246 904 q 200 988 200 949 q 223 1051 200 1028 q 285 1075 246 1075 q 347 1051 324 1075 q 369 988 369 1028 q 347 926 369 949 q 285 904 324 904 z "},"ị":{"ha":833,"x_min":122,"x_max":764,"o":"m 122 0 l 122 100 l 394 100 l 394 664 l 151 664 l 151 764 l 506 764 l 506 100 l 764 100 l 764 0 l 122 0 m 438 904 q 369 926 394 904 q 343 988 343 949 q 369 1051 343 1028 q 438 1075 394 1075 q 506 1051 481 1075 q 532 988 532 1028 q 506 926 532 949 q 438 904 481 904 m 438 -293 q 369 -270 394 -293 q 343 -208 343 -247 q 369 -145 343 -168 q 438 -122 394 -122 q 506 -145 481 -122 q 532 -208 532 -168 q 506 -270 532 -247 q 438 -293 481 -293 z "},"ì":{"ha":833,"x_min":122,"x_max":764,"o":"m 122 0 l 122 100 l 394 100 l 394 664 l 151 664 l 151 764 l 506 764 l 506 100 l 764 100 l 764 0 l 122 0 m 397 896 l 239 1090 l 364 1090 l 515 896 l 397 896 z "},"ỉ":{"ha":833,"x_min":122,"x_max":764,"o":"m 122 0 l 122 100 l 394 100 l 394 664 l 151 664 l 151 764 l 506 764 l 506 100 l 764 100 l 764 0 l 122 0 m 385 896 l 457 988 q 478 1035 478 1015 q 431 1065 478 1065 l 317 1065 l 317 1144 l 457 1144 q 540 1118 508 1144 q 572 1047 572 1092 q 547 972 572 1004 l 490 896 l 385 896 z "},"ī":{"ha":833,"x_min":122,"x_max":764,"o":"m 122 0 l 122 100 l 394 100 l 394 664 l 151 664 l 151 764 l 506 764 l 506 100 l 764 100 l 764 0 l 122 0 m 222 936 l 222 1028 l 653 1028 l 653 936 l 222 936 z "},"į":{"ha":833,"x_min":122,"x_max":764,"o":"m 438 904 q 369 926 394 904 q 343 988 343 949 q 369 1051 343 1028 q 438 1075 394 1075 q 506 1051 481 1075 q 532 988 532 1028 q 506 926 532 949 q 438 904 481 904 m 122 0 l 122 100 l 394 100 l 394 664 l 151 664 l 151 764 l 506 764 l 506 100 l 764 100 l 764 0 l 479 0 q 392 -133 392 -74 q 412 -183 392 -164 q 467 -203 432 -203 l 551 -203 l 551 -279 l 446 -279 q 331 -244 374 -279 q 288 -154 288 -210 q 311 -79 288 -118 q 386 0 335 -40 l 122 0 z "},"ĩ":{"ha":833,"x_min":122,"x_max":764,"o":"m 122 0 l 122 100 l 394 100 l 394 664 l 151 664 l 151 764 l 506 764 l 506 100 l 764 100 l 764 0 l 122 0 m 536 903 q 469 919 496 903 q 424 956 443 935 q 388 992 406 976 q 346 1008 369 1008 q 296 953 296 1008 l 296 910 l 215 910 l 215 953 q 249 1049 215 1015 q 340 1083 283 1083 q 408 1067 382 1083 q 453 1031 433 1051 q 490 994 472 1010 q 532 978 507 978 q 579 1033 579 978 l 579 1076 l 660 1076 l 660 1033 q 626 937 660 971 q 536 903 593 903 z "},"j":{"ha":833,"x_min":104,"x_max":632,"o":"m 104 -250 l 104 -149 l 303 -149 q 442 -101 393 -149 q 490 35 490 -53 l 490 664 l 132 664 l 132 764 l 600 764 l 600 35 q 520 -173 600 -96 q 303 -250 440 -250 l 104 -250 m 538 904 q 469 926 494 904 q 443 988 443 949 q 469 1051 443 1028 q 538 1075 494 1075 q 606 1051 581 1075 q 632 988 632 1028 q 606 926 632 949 q 538 904 581 904 z "},"ȷ":{"ha":833,"x_min":104,"x_max":600,"o":"m 104 -250 l 104 -149 l 303 -149 q 442 -101 393 -149 q 490 35 490 -53 l 490 664 l 132 664 l 132 764 l 600 764 l 600 35 q 520 -173 600 -96 q 303 -250 440 -250 l 104 -250 z "},"ĵ":{"ha":833,"x_min":104,"x_max":778,"o":"m 104 -250 l 104 -149 l 303 -149 q 442 -101 393 -149 q 490 35 490 -53 l 490 664 l 132 664 l 132 764 l 600 764 l 600 35 q 520 -173 600 -96 q 303 -250 440 -250 l 104 -250 m 297 896 l 483 1090 l 590 1090 l 778 896 l 658 896 l 538 1015 l 419 896 l 297 896 z "},"k":{"ha":833,"x_min":139,"x_max":764,"o":"m 139 0 l 139 1014 l 249 1014 l 249 443 l 406 443 l 632 764 l 760 764 l 503 400 l 764 0 l 635 0 l 407 347 l 249 347 l 249 0 l 139 0 z "},"ķ":{"ha":833,"x_min":139,"x_max":764,"o":"m 139 0 l 139 1014 l 249 1014 l 249 443 l 406 443 l 632 764 l 760 764 l 503 400 l 764 0 l 635 0 l 407 347 l 249 347 l 249 0 l 139 0 m 274 -333 l 403 -132 l 535 -132 l 389 -333 l 274 -333 z "},"ĸ":{"ha":833,"x_min":139,"x_max":764,"o":"m 139 0 l 139 764 l 249 764 l 249 443 l 406 443 l 632 764 l 760 764 l 503 400 l 764 0 l 635 0 l 407 347 l 249 347 l 249 0 l 139 0 z "},"l":{"ha":833,"x_min":49,"x_max":760,"o":"m 524 0 q 367 56 425 0 q 310 208 310 113 l 310 914 l 49 914 l 49 1014 l 419 1014 l 419 208 q 447 128 419 157 q 524 100 475 100 l 760 100 l 760 0 l 524 0 z "},"ĺ":{"ha":833,"x_min":49,"x_max":760,"o":"m 524 0 q 367 56 425 0 q 310 208 310 113 l 310 914 l 49 914 l 49 1014 l 419 1014 l 419 208 q 447 128 419 157 q 524 100 475 100 l 760 100 l 760 0 l 524 0 m 275 1125 l 422 1319 l 543 1319 l 388 1125 l 275 1125 z "},"ƛ":{"ha":833,"x_min":76,"x_max":757,"o":"m 76 0 l 364 750 l 353 779 l 125 665 l 125 764 l 321 861 l 261 1014 l 379 1014 l 418 911 l 653 1028 l 653 929 l 450 826 l 757 0 l 639 0 l 458 496 q 431 584 442 543 q 413 649 419 625 q 401 584 410 625 q 375 496 393 543 l 196 0 l 76 0 z "},"ľ":{"ha":833,"x_min":49,"x_max":953,"o":"m 524 0 q 367 56 425 0 q 310 208 310 113 l 310 914 l 49 914 l 49 1014 l 419 1014 l 419 208 q 447 128 419 157 q 524 100 475 100 l 760 100 l 760 0 l 524 0 m 833 1014 l 847 1264 l 953 1264 l 925 1014 l 833 1014 z "},"ļ":{"ha":833,"x_min":49,"x_max":760,"o":"m 524 0 q 367 56 425 0 q 310 208 310 113 l 310 914 l 49 914 l 49 1014 l 419 1014 l 419 208 q 447 128 419 157 q 524 100 475 100 l 760 100 l 760 0 l 524 0 m 301 -333 l 431 -132 l 563 -132 l 417 -333 l 301 -333 z "},"ŀ":{"ha":833,"x_min":21,"x_max":872,"o":"m 496 0 q 340 56 397 0 q 282 208 282 113 l 282 914 l 21 914 l 21 1014 l 392 1014 l 392 208 q 419 128 392 157 q 496 100 447 100 l 732 100 l 732 0 l 496 0 m 761 368 q 680 398 710 368 q 650 478 650 428 q 680 561 650 531 q 761 592 710 592 q 842 561 813 592 q 872 478 872 531 q 842 398 872 428 q 761 368 813 368 z "},"ł":{"ha":833,"x_min":49,"x_max":760,"o":"m 139 324 l 139 425 l 310 540 l 310 914 l 49 914 l 49 1014 l 419 1014 l 419 615 l 653 774 l 653 672 l 419 514 l 419 208 q 447 128 419 157 q 524 100 475 100 l 760 100 l 760 0 l 524 0 q 367 56 425 0 q 310 208 310 113 l 310 439 l 139 324 z "},"m":{"ha":833,"x_min":90,"x_max":743,"o":"m 90 0 l 90 764 l 188 764 l 188 669 l 194 669 q 237 748 203 718 q 322 778 271 778 q 405 749 371 778 q 453 669 439 719 l 458 669 q 503 748 468 718 q 590 778 538 778 q 701 725 658 778 q 743 585 743 672 l 743 0 l 640 0 l 640 585 q 617 663 640 635 q 553 692 594 692 q 486 663 510 692 q 463 585 463 635 l 463 0 l 371 0 l 371 585 q 347 663 371 635 q 282 692 324 692 q 217 663 240 692 q 193 585 193 635 l 193 0 l 90 0 z "},"n":{"ha":833,"x_min":135,"x_max":701,"o":"m 135 0 l 135 764 l 244 764 l 244 622 l 244 622 q 311 737 257 696 q 451 778 365 778 q 633 706 565 778 q 701 513 701 635 l 701 0 l 592 0 l 592 500 q 546 635 592 588 q 421 682 500 682 q 292 632 339 682 q 244 490 244 582 l 244 0 l 135 0 z "},"ń":{"ha":833,"x_min":135,"x_max":701,"o":"m 135 0 l 135 764 l 244 764 l 244 622 l 244 622 q 311 737 257 696 q 451 778 365 778 q 633 706 565 778 q 701 513 701 635 l 701 0 l 592 0 l 592 500 q 546 635 592 588 q 421 682 500 682 q 292 632 339 682 q 244 490 244 582 l 244 0 l 135 0 m 356 896 l 503 1090 l 624 1090 l 468 896 l 356 896 z "},"ŉ":{"ha":833,"x_min":-4,"x_max":701,"o":"m 135 0 l 135 764 l 244 764 l 244 622 l 244 622 q 311 737 257 696 q 451 778 365 778 q 633 706 565 778 q 701 513 701 635 l 701 0 l 592 0 l 592 500 q 546 635 592 588 q 421 682 500 682 q 292 632 339 682 q 244 490 244 582 l 244 0 l 135 0 m -4 896 l 125 1097 l 257 1097 l 111 896 l -4 896 z "},"ň":{"ha":833,"x_min":135,"x_max":701,"o":"m 135 0 l 135 764 l 244 764 l 244 622 l 244 622 q 311 737 257 696 q 451 778 365 778 q 633 706 565 778 q 701 513 701 635 l 701 0 l 592 0 l 592 500 q 546 635 592 588 q 421 682 500 682 q 292 632 339 682 q 244 490 244 582 l 244 0 l 135 0 m 371 896 l 183 1090 l 303 1090 l 425 971 l 543 1090 l 664 1090 l 478 896 l 371 896 z "},"ņ":{"ha":833,"x_min":135,"x_max":701,"o":"m 135 0 l 135 764 l 244 764 l 244 622 l 244 622 q 311 737 257 696 q 451 778 365 778 q 633 706 565 778 q 701 513 701 635 l 701 0 l 592 0 l 592 500 q 546 635 592 588 q 421 682 500 682 q 292 632 339 682 q 244 490 244 582 l 244 0 l 135 0 m 274 -333 l 403 -132 l 535 -132 l 389 -333 l 274 -333 z "},"ŋ":{"ha":833,"x_min":136,"x_max":700,"o":"m 335 -250 l 335 -150 l 414 -150 q 542 -104 496 -150 q 589 21 589 -58 l 589 500 q 544 636 589 588 q 421 685 500 685 q 293 633 339 685 q 247 490 247 582 l 247 0 l 136 0 l 136 764 l 247 764 l 247 622 l 247 622 q 312 737 258 696 q 451 778 365 778 q 633 706 565 778 q 700 513 700 635 l 700 21 q 622 -176 700 -103 q 414 -250 544 -250 l 335 -250 z "},"ñ":{"ha":833,"x_min":135,"x_max":701,"o":"m 135 0 l 135 764 l 244 764 l 244 622 l 244 622 q 311 737 257 696 q 451 778 365 778 q 633 706 565 778 q 701 513 701 635 l 701 0 l 592 0 l 592 500 q 546 635 592 588 q 421 682 500 682 q 292 632 339 682 q 244 490 244 582 l 244 0 l 135 0 m 522 903 q 456 919 482 903 q 410 956 429 935 q 374 992 392 976 q 332 1008 356 1008 q 282 953 282 1008 l 282 910 l 201 910 l 201 953 q 235 1049 201 1015 q 326 1083 269 1083 q 394 1067 368 1083 q 439 1031 419 1051 q 476 994 458 1010 q 518 978 493 978 q 565 1033 565 978 l 565 1076 l 646 1076 l 646 1033 q 613 937 646 971 q 522 903 579 903 z "},"o":{"ha":833,"x_min":125,"x_max":708,"o":"m 417 -12 q 203 65 282 -12 q 125 276 125 143 l 125 488 q 203 699 125 621 q 417 776 282 776 q 630 699 551 776 q 708 489 708 621 l 708 276 q 630 65 708 143 q 417 -12 551 -12 m 417 86 q 549 135 501 86 q 597 276 597 183 l 597 488 q 549 629 597 581 q 417 678 501 678 q 284 629 332 678 q 236 488 236 581 l 236 276 q 284 135 236 183 q 417 86 332 86 z "},"ó":{"ha":833,"x_min":125,"x_max":708,"o":"m 417 -12 q 203 65 282 -12 q 125 276 125 143 l 125 488 q 203 699 125 621 q 417 776 282 776 q 630 699 551 776 q 708 489 708 621 l 708 276 q 630 65 708 143 q 417 -12 551 -12 m 417 86 q 549 135 501 86 q 597 276 597 183 l 597 488 q 549 629 597 581 q 417 678 501 678 q 284 629 332 678 q 236 488 236 581 l 236 276 q 284 135 236 183 q 417 86 332 86 m 349 896 l 496 1090 l 617 1090 l 461 896 l 349 896 z "},"ŏ":{"ha":833,"x_min":125,"x_max":708,"o":"m 417 -12 q 203 65 282 -12 q 125 276 125 143 l 125 488 q 203 699 125 621 q 417 776 282 776 q 630 699 551 776 q 708 489 708 621 l 708 276 q 630 65 708 143 q 417 -12 551 -12 m 417 86 q 549 135 501 86 q 597 276 597 183 l 597 488 q 549 629 597 581 q 417 678 501 678 q 284 629 332 678 q 236 488 236 581 l 236 276 q 284 135 236 183 q 417 86 332 86 m 417 890 q 259 945 318 890 q 200 1090 200 1000 l 289 1090 q 324 999 289 1033 q 415 964 358 964 q 509 999 474 964 q 544 1090 544 1033 l 633 1090 q 574 945 633 1000 q 417 890 515 890 z "},"ǒ":{"ha":833,"x_min":125,"x_max":708,"o":"m 417 -12 q 203 65 282 -12 q 125 276 125 143 l 125 488 q 203 699 125 621 q 417 776 282 776 q 630 699 551 776 q 708 489 708 621 l 708 276 q 630 65 708 143 q 417 -12 551 -12 m 417 86 q 549 135 501 86 q 597 276 597 183 l 597 488 q 549 629 597 581 q 417 678 501 678 q 284 629 332 678 q 236 488 236 581 l 236 276 q 284 135 236 183 q 417 86 332 86 m 364 896 l 176 1090 l 296 1090 l 418 971 l 536 1090 l 657 1090 l 471 896 l 364 896 z "},"ô":{"ha":833,"x_min":125,"x_max":708,"o":"m 417 -12 q 203 65 282 -12 q 125 276 125 143 l 125 488 q 203 699 125 621 q 417 776 282 776 q 630 699 551 776 q 708 489 708 621 l 708 276 q 630 65 708 143 q 417 -12 551 -12 m 417 86 q 549 135 501 86 q 597 276 597 183 l 597 488 q 549 629 597 581 q 417 678 501 678 q 284 629 332 678 q 236 488 236 581 l 236 276 q 284 135 236 183 q 417 86 332 86 m 176 896 l 363 1090 l 469 1090 l 657 896 l 538 896 l 417 1015 l 299 896 l 176 896 z "},"ố":{"ha":833,"x_min":125,"x_max":851,"o":"m 417 -12 q 203 65 282 -12 q 125 276 125 143 l 125 488 q 203 699 125 621 q 417 776 282 776 q 630 699 551 776 q 708 489 708 621 l 708 276 q 630 65 708 143 q 417 -12 551 -12 m 417 86 q 549 135 501 86 q 597 276 597 183 l 597 488 q 549 629 597 581 q 417 678 501 678 q 284 629 332 678 q 236 488 236 581 l 236 276 q 284 135 236 183 q 417 86 332 86 m 568 1056 l 728 1250 l 851 1250 l 683 1056 l 568 1056 m 178 896 l 363 1090 l 471 1090 l 657 896 l 536 896 l 417 1015 l 297 896 l 178 896 z "},"ộ":{"ha":833,"x_min":125,"x_max":708,"o":"m 417 -12 q 203 65 282 -12 q 125 276 125 143 l 125 488 q 203 699 125 621 q 417 776 282 776 q 630 699 551 776 q 708 489 708 621 l 708 276 q 630 65 708 143 q 417 -12 551 -12 m 417 86 q 549 135 501 86 q 597 276 597 183 l 597 488 q 549 629 597 581 q 417 678 501 678 q 284 629 332 678 q 236 488 236 581 l 236 276 q 284 135 236 183 q 417 86 332 86 m 417 -293 q 348 -270 374 -293 q 322 -208 322 -247 q 348 -145 322 -168 q 417 -122 374 -122 q 485 -145 460 -122 q 511 -208 511 -168 q 485 -270 511 -247 q 417 -293 460 -293 m 176 896 l 363 1090 l 469 1090 l 657 896 l 538 896 l 417 1015 l 299 896 l 176 896 z "},"ồ":{"ha":833,"x_min":125,"x_max":742,"o":"m 417 -12 q 203 65 282 -12 q 125 276 125 143 l 125 488 q 203 699 125 621 q 417 776 282 776 q 630 699 551 776 q 708 489 708 621 l 708 276 q 630 65 708 143 q 417 -12 551 -12 m 417 86 q 549 135 501 86 q 597 276 597 183 l 597 488 q 549 629 597 581 q 417 678 501 678 q 284 629 332 678 q 236 488 236 581 l 236 276 q 284 135 236 183 q 417 86 332 86 m 626 1056 l 447 1250 l 571 1250 l 742 1056 l 626 1056 m 178 896 l 363 1090 l 471 1090 l 657 896 l 536 896 l 417 1015 l 297 896 l 178 896 z "},"ổ":{"ha":833,"x_min":125,"x_max":757,"o":"m 417 -12 q 203 65 282 -12 q 125 276 125 143 l 125 488 q 203 699 125 621 q 417 776 282 776 q 630 699 551 776 q 708 489 708 621 l 708 276 q 630 65 708 143 q 417 -12 551 -12 m 417 86 q 549 135 501 86 q 597 276 597 183 l 597 488 q 549 629 597 581 q 417 678 501 678 q 284 629 332 678 q 236 488 236 581 l 236 276 q 284 135 236 183 q 417 86 332 86 m 588 1056 l 651 1142 q 668 1181 668 1164 q 622 1217 668 1217 l 543 1217 l 543 1290 l 626 1290 q 722 1264 686 1290 q 757 1193 757 1238 q 729 1124 757 1161 l 681 1056 l 588 1056 m 178 896 l 363 1090 l 471 1090 l 657 896 l 536 896 l 417 1015 l 297 896 l 178 896 z "},"ỗ":{"ha":833,"x_min":125,"x_max":708,"o":"m 417 -12 q 203 65 282 -12 q 125 276 125 143 l 125 488 q 203 699 125 621 q 417 776 282 776 q 630 699 551 776 q 708 489 708 621 l 708 276 q 630 65 708 143 q 417 -12 551 -12 m 417 86 q 549 135 501 86 q 597 276 597 183 l 597 488 q 549 629 597 581 q 417 678 501 678 q 284 629 332 678 q 236 488 236 581 l 236 276 q 284 135 236 183 q 417 86 332 86 m 510 1129 q 442 1142 467 1129 q 400 1174 417 1156 q 367 1206 383 1192 q 326 1219 350 1219 q 281 1174 281 1219 l 281 1139 l 200 1139 l 200 1168 q 234 1256 200 1224 q 325 1288 268 1288 q 394 1274 368 1288 q 436 1243 419 1261 q 469 1211 453 1225 q 508 1197 485 1197 q 553 1243 553 1197 l 553 1278 l 633 1278 l 633 1249 q 600 1161 633 1193 q 510 1129 567 1129 m 178 896 l 363 1090 l 471 1090 l 657 896 l 536 896 l 417 1015 l 297 896 l 178 896 z "},"ö":{"ha":833,"x_min":125,"x_max":708,"o":"m 417 -12 q 203 65 282 -12 q 125 276 125 143 l 125 488 q 203 699 125 621 q 417 776 282 776 q 630 699 551 776 q 708 489 708 621 l 708 276 q 630 65 708 143 q 417 -12 551 -12 m 417 86 q 549 135 501 86 q 597 276 597 183 l 597 488 q 549 629 597 581 q 417 678 501 678 q 284 629 332 678 q 236 488 236 581 l 236 276 q 284 135 236 183 q 417 86 332 86 m 569 904 q 508 926 531 904 q 485 988 485 949 q 508 1051 485 1028 q 569 1075 531 1075 q 631 1051 608 1075 q 654 988 654 1028 q 631 926 654 949 q 569 904 608 904 m 264 904 q 202 926 225 904 q 179 988 179 949 q 202 1051 179 1028 q 264 1075 225 1075 q 326 1051 303 1075 q 349 988 349 1028 q 326 926 349 949 q 264 904 303 904 z "},"ọ":{"ha":833,"x_min":125,"x_max":708,"o":"m 417 -12 q 203 65 282 -12 q 125 276 125 143 l 125 488 q 203 699 125 621 q 417 776 282 776 q 630 699 551 776 q 708 489 708 621 l 708 276 q 630 65 708 143 q 417 -12 551 -12 m 417 86 q 549 135 501 86 q 597 276 597 183 l 597 488 q 549 629 597 581 q 417 678 501 678 q 284 629 332 678 q 236 488 236 581 l 236 276 q 284 135 236 183 q 417 86 332 86 m 417 -293 q 348 -270 374 -293 q 322 -208 322 -247 q 348 -145 322 -168 q 417 -122 374 -122 q 485 -145 460 -122 q 511 -208 511 -168 q 485 -270 511 -247 q 417 -293 460 -293 z "},"ò":{"ha":833,"x_min":125,"x_max":708,"o":"m 417 -12 q 203 65 282 -12 q 125 276 125 143 l 125 488 q 203 699 125 621 q 417 776 282 776 q 630 699 551 776 q 708 489 708 621 l 708 276 q 630 65 708 143 q 417 -12 551 -12 m 417 86 q 549 135 501 86 q 597 276 597 183 l 597 488 q 549 629 597 581 q 417 678 501 678 q 284 629 332 678 q 236 488 236 581 l 236 276 q 284 135 236 183 q 417 86 332 86 m 376 896 l 218 1090 l 343 1090 l 494 896 l 376 896 z "},"ỏ":{"ha":833,"x_min":125,"x_max":708,"o":"m 417 -12 q 203 65 282 -12 q 125 276 125 143 l 125 488 q 203 699 125 621 q 417 776 282 776 q 630 699 551 776 q 708 489 708 621 l 708 276 q 630 65 708 143 q 417 -12 551 -12 m 417 86 q 549 135 501 86 q 597 276 597 183 l 597 488 q 549 629 597 581 q 417 678 501 678 q 284 629 332 678 q 236 488 236 581 l 236 276 q 284 135 236 183 q 417 86 332 86 m 364 896 l 436 988 q 457 1035 457 1015 q 410 1065 457 1065 l 296 1065 l 296 1144 l 436 1144 q 519 1118 488 1144 q 551 1047 551 1092 q 526 972 551 1004 l 469 896 l 364 896 z "},"ơ":{"ha":833,"x_min":125,"x_max":739,"o":"m 417 -12 q 203 65 282 -12 q 125 276 125 143 l 125 488 q 203 699 125 621 q 417 776 282 776 q 579 736 511 776 l 596 736 q 647 790 647 736 l 647 889 l 739 889 l 739 785 q 717 710 739 742 q 657 667 694 679 q 708 489 708 594 l 708 276 q 630 65 708 143 q 417 -12 551 -12 m 417 86 q 549 135 501 86 q 597 276 597 183 l 597 488 q 549 629 597 581 q 417 678 501 678 q 284 629 332 678 q 236 488 236 581 l 236 276 q 284 135 236 183 q 417 86 332 86 z "},"ớ":{"ha":833,"x_min":125,"x_max":739,"o":"m 417 -12 q 203 65 282 -12 q 125 276 125 143 l 125 488 q 203 699 125 621 q 417 776 282 776 q 579 736 511 776 l 596 736 q 647 790 647 736 l 647 889 l 739 889 l 739 785 q 717 710 739 742 q 657 667 694 679 q 708 489 708 594 l 708 276 q 630 65 708 143 q 417 -12 551 -12 m 417 86 q 549 135 501 86 q 597 276 597 183 l 597 488 q 549 629 597 581 q 417 678 501 678 q 284 629 332 678 q 236 488 236 581 l 236 276 q 284 135 236 183 q 417 86 332 86 m 335 896 l 482 1090 l 603 1090 l 447 896 l 335 896 z "},"ợ":{"ha":833,"x_min":125,"x_max":739,"o":"m 417 -12 q 203 65 282 -12 q 125 276 125 143 l 125 488 q 203 699 125 621 q 417 776 282 776 q 579 736 511 776 l 596 736 q 647 790 647 736 l 647 889 l 739 889 l 739 785 q 717 710 739 742 q 657 667 694 679 q 708 489 708 594 l 708 276 q 630 65 708 143 q 417 -12 551 -12 m 417 86 q 549 135 501 86 q 597 276 597 183 l 597 488 q 549 629 597 581 q 417 678 501 678 q 284 629 332 678 q 236 488 236 581 l 236 276 q 284 135 236 183 q 417 86 332 86 m 417 -293 q 348 -270 374 -293 q 322 -208 322 -247 q 348 -145 322 -168 q 417 -122 374 -122 q 485 -145 460 -122 q 511 -208 511 -168 q 485 -270 511 -247 q 417 -293 460 -293 z "},"ờ":{"ha":833,"x_min":125,"x_max":739,"o":"m 417 -12 q 203 65 282 -12 q 125 276 125 143 l 125 488 q 203 699 125 621 q 417 776 282 776 q 579 736 511 776 l 596 736 q 647 790 647 736 l 647 889 l 739 889 l 739 785 q 717 710 739 742 q 657 667 694 679 q 708 489 708 594 l 708 276 q 630 65 708 143 q 417 -12 551 -12 m 417 86 q 549 135 501 86 q 597 276 597 183 l 597 488 q 549 629 597 581 q 417 678 501 678 q 284 629 332 678 q 236 488 236 581 l 236 276 q 284 135 236 183 q 417 86 332 86 m 363 896 l 204 1090 l 329 1090 l 481 896 l 363 896 z "},"ở":{"ha":833,"x_min":125,"x_max":739,"o":"m 417 -12 q 203 65 282 -12 q 125 276 125 143 l 125 488 q 203 699 125 621 q 417 776 282 776 q 579 736 511 776 l 596 736 q 647 790 647 736 l 647 889 l 739 889 l 739 785 q 717 710 739 742 q 657 667 694 679 q 708 489 708 594 l 708 276 q 630 65 708 143 q 417 -12 551 -12 m 417 86 q 549 135 501 86 q 597 276 597 183 l 597 488 q 549 629 597 581 q 417 678 501 678 q 284 629 332 678 q 236 488 236 581 l 236 276 q 284 135 236 183 q 417 86 332 86 m 350 896 l 422 988 q 443 1035 443 1015 q 396 1065 443 1065 l 282 1065 l 282 1144 l 422 1144 q 506 1118 474 1144 q 538 1047 538 1092 q 513 972 538 1004 l 456 896 l 350 896 z "},"ỡ":{"ha":833,"x_min":125,"x_max":739,"o":"m 417 -12 q 203 65 282 -12 q 125 276 125 143 l 125 488 q 203 699 125 621 q 417 776 282 776 q 579 736 511 776 l 596 736 q 647 790 647 736 l 647 889 l 739 889 l 739 785 q 717 710 739 742 q 657 667 694 679 q 708 489 708 594 l 708 276 q 630 65 708 143 q 417 -12 551 -12 m 417 86 q 549 135 501 86 q 597 276 597 183 l 597 488 q 549 629 597 581 q 417 678 501 678 q 284 629 332 678 q 236 488 236 581 l 236 276 q 284 135 236 183 q 417 86 332 86 m 501 903 q 435 919 461 903 q 390 956 408 935 q 353 992 371 976 q 311 1008 335 1008 q 261 953 261 1008 l 261 910 l 181 910 l 181 953 q 215 1049 181 1015 q 306 1083 249 1083 q 373 1067 347 1083 q 418 1031 399 1051 q 455 994 438 1010 q 497 978 472 978 q 544 1033 544 978 l 544 1076 l 625 1076 l 625 1033 q 592 937 625 971 q 501 903 558 903 z "},"ő":{"ha":833,"x_min":125,"x_max":722,"o":"m 417 -12 q 203 65 282 -12 q 125 276 125 143 l 125 488 q 203 699 125 621 q 417 776 282 776 q 630 699 551 776 q 708 489 708 621 l 708 276 q 630 65 708 143 q 417 -12 551 -12 m 417 86 q 549 135 501 86 q 597 276 597 183 l 597 488 q 549 629 597 581 q 417 678 501 678 q 284 629 332 678 q 236 488 236 581 l 236 276 q 284 135 236 183 q 417 86 332 86 m 456 896 l 607 1090 l 722 1090 l 564 896 l 456 896 m 215 896 l 367 1090 l 482 1090 l 322 896 l 215 896 z "},"ō":{"ha":833,"x_min":125,"x_max":708,"o":"m 417 -12 q 203 65 282 -12 q 125 276 125 143 l 125 488 q 203 699 125 621 q 417 776 282 776 q 630 699 551 776 q 708 489 708 621 l 708 276 q 630 65 708 143 q 417 -12 551 -12 m 417 86 q 549 135 501 86 q 597 276 597 183 l 597 488 q 549 629 597 581 q 417 678 501 678 q 284 629 332 678 q 236 488 236 581 l 236 276 q 284 135 236 183 q 417 86 332 86 m 201 936 l 201 1028 l 632 1028 l 632 936 l 201 936 z "},"ǫ":{"ha":833,"x_min":129,"x_max":704,"o":"m 517 -279 q 403 -244 446 -279 q 360 -154 360 -210 q 378 -90 360 -124 q 443 -12 396 -56 q 417 -14 432 -14 q 206 63 283 -14 q 129 274 129 140 l 129 490 q 206 701 129 624 q 417 778 283 778 q 627 701 550 778 q 704 490 704 624 l 704 274 q 674 128 704 190 q 586 31 643 67 l 551 1 q 464 -133 464 -74 q 484 -183 464 -164 q 539 -203 504 -203 l 624 -203 l 624 -279 l 517 -279 m 417 83 q 548 133 501 83 q 594 274 594 182 l 594 490 q 548 631 594 582 q 417 681 501 681 q 285 631 332 681 q 239 490 239 582 l 239 274 q 285 133 239 182 q 417 83 332 83 z "},"ø":{"ha":833,"x_min":57,"x_max":776,"o":"m 57 -42 l 167 114 q 129 274 129 181 l 129 490 q 206 701 129 624 q 417 778 283 778 q 599 725 525 778 l 665 819 l 776 819 l 661 658 q 704 490 704 589 l 704 274 q 627 63 704 140 q 417 -14 550 -14 q 228 44 303 -14 l 167 -42 l 57 -42 m 233 274 q 239 217 233 243 l 539 642 q 417 681 492 681 q 282 630 331 681 q 233 490 233 579 l 233 274 m 417 83 q 551 133 503 83 q 600 274 600 183 l 600 490 q 592 558 600 526 l 288 128 q 417 83 335 83 z "},"ǿ":{"ha":833,"x_min":57,"x_max":776,"o":"m 57 -42 l 167 114 q 129 274 129 181 l 129 490 q 206 701 129 624 q 417 778 283 778 q 599 725 525 778 l 665 819 l 776 819 l 661 658 q 704 490 704 589 l 704 274 q 627 63 704 140 q 417 -14 550 -14 q 228 44 303 -14 l 167 -42 l 57 -42 m 233 274 q 239 217 233 243 l 539 642 q 417 681 492 681 q 282 630 331 681 q 233 490 233 579 l 233 274 m 417 83 q 551 133 503 83 q 600 274 600 183 l 600 490 q 592 558 600 526 l 288 128 q 417 83 335 83 m 349 896 l 496 1090 l 617 1090 l 461 896 l 349 896 z "},"õ":{"ha":833,"x_min":125,"x_max":708,"o":"m 417 -12 q 203 65 282 -12 q 125 276 125 143 l 125 488 q 203 699 125 621 q 417 776 282 776 q 630 699 551 776 q 708 489 708 621 l 708 276 q 630 65 708 143 q 417 -12 551 -12 m 417 86 q 549 135 501 86 q 597 276 597 183 l 597 488 q 549 629 597 581 q 417 678 501 678 q 284 629 332 678 q 236 488 236 581 l 236 276 q 284 135 236 183 q 417 86 332 86 m 515 903 q 449 919 475 903 q 403 956 422 935 q 367 992 385 976 q 325 1008 349 1008 q 275 953 275 1008 l 275 910 l 194 910 l 194 953 q 228 1049 194 1015 q 319 1083 263 1083 q 387 1067 361 1083 q 432 1031 413 1051 q 469 994 451 1010 q 511 978 486 978 q 558 1033 558 978 l 558 1076 l 639 1076 l 639 1033 q 606 937 639 971 q 515 903 572 903 z "},"œ":{"ha":833,"x_min":49,"x_max":785,"o":"m 247 -14 q 102 45 156 -14 q 49 204 49 104 l 49 558 q 103 718 49 658 q 250 778 157 778 q 341 760 306 778 q 394 715 376 742 q 415 664 413 689 l 421 664 q 442 715 424 689 q 495 760 460 742 q 585 778 531 778 q 731 719 676 778 q 785 560 785 660 l 785 351 l 471 351 l 471 204 q 499 115 471 149 q 574 81 528 81 q 644 106 615 81 q 679 174 672 132 l 783 174 q 718 37 772 88 q 586 -14 664 -14 q 495 4 531 -14 q 442 49 460 22 q 421 99 424 75 l 415 99 q 394 49 413 75 q 340 4 375 22 q 247 -14 304 -14 m 261 81 q 337 115 308 81 q 365 204 365 149 l 365 560 q 337 649 365 615 q 261 683 308 683 q 183 649 213 683 q 154 558 154 615 l 154 204 q 183 114 154 147 q 261 81 213 81 m 471 444 l 679 444 l 679 560 q 651 649 679 615 q 574 683 622 683 q 499 649 526 683 q 471 560 471 615 l 471 444 z "},"p":{"ha":833,"x_min":136,"x_max":708,"o":"m 136 -250 l 136 764 l 246 764 l 246 629 l 246 629 q 317 738 261 699 q 456 778 372 778 q 640 702 571 778 q 708 496 708 626 l 708 269 q 640 63 708 139 q 456 -14 571 -14 q 317 26 374 -14 q 247 135 261 67 l 243 135 l 246 -21 l 246 -250 l 136 -250 m 422 82 q 551 132 504 82 q 599 274 599 182 l 599 490 q 551 632 599 582 q 422 682 504 682 q 293 631 340 682 q 246 490 246 581 l 246 274 q 293 133 246 183 q 422 82 340 82 z "},"þ":{"ha":833,"x_min":129,"x_max":703,"o":"m 129 -240 l 129 1014 l 239 1014 l 239 796 l 238 629 l 240 629 q 311 738 256 699 q 449 778 367 778 q 633 701 564 778 q 703 494 703 625 l 703 268 q 633 62 703 138 q 449 -14 564 -14 q 310 26 365 -14 q 240 135 254 65 l 239 135 l 239 -240 l 129 -240 m 415 82 q 545 132 497 82 q 593 274 593 182 l 593 490 q 545 632 593 582 q 415 682 497 682 q 286 631 333 682 q 239 490 239 581 l 239 274 q 286 133 239 183 q 415 82 333 82 z "},"q":{"ha":833,"x_min":129,"x_max":699,"o":"m 589 -250 l 589 -32 l 590 135 l 588 135 q 517 26 574 65 q 379 -14 461 -14 q 197 63 264 -14 q 129 269 129 139 l 129 496 q 197 702 129 626 q 379 778 265 778 q 518 738 463 778 q 588 629 574 699 l 589 629 l 589 764 l 699 764 l 699 -250 l 589 -250 m 414 82 q 542 133 496 82 q 589 274 589 183 l 589 490 q 542 631 589 581 q 414 682 494 682 q 285 632 331 682 q 239 490 239 582 l 239 274 q 285 132 239 182 q 414 82 331 82 z "},"r":{"ha":833,"x_min":158,"x_max":736,"o":"m 158 0 l 158 764 l 268 764 l 268 625 q 335 738 282 697 q 474 778 389 778 q 665 702 593 778 q 736 499 736 626 l 736 446 l 624 446 l 624 490 q 577 632 624 582 q 443 682 531 682 q 313 633 358 682 q 268 490 268 583 l 268 0 l 158 0 z "},"ŕ":{"ha":833,"x_min":158,"x_max":736,"o":"m 158 0 l 158 764 l 268 764 l 268 625 q 335 738 282 697 q 474 778 389 778 q 665 702 593 778 q 736 499 736 626 l 736 446 l 624 446 l 624 490 q 577 632 624 582 q 443 682 531 682 q 313 633 358 682 q 268 490 268 583 l 268 0 l 158 0 m 376 896 l 524 1090 l 644 1090 l 489 896 l 376 896 z "},"ř":{"ha":833,"x_min":158,"x_max":736,"o":"m 158 0 l 158 764 l 268 764 l 268 625 q 335 738 282 697 q 474 778 389 778 q 665 702 593 778 q 736 499 736 626 l 736 446 l 624 446 l 624 490 q 577 632 624 582 q 443 682 531 682 q 313 633 358 682 q 268 490 268 583 l 268 0 l 158 0 m 392 896 l 204 1090 l 324 1090 l 446 971 l 564 1090 l 685 1090 l 499 896 l 392 896 z "},"ŗ":{"ha":833,"x_min":54,"x_max":736,"o":"m 158 0 l 158 764 l 268 764 l 268 625 q 335 738 282 697 q 474 778 389 778 q 665 702 593 778 q 736 499 736 626 l 736 446 l 624 446 l 624 490 q 577 632 624 582 q 443 682 531 682 q 313 633 358 682 q 268 490 268 583 l 268 0 l 158 0 m 54 -333 l 183 -132 l 315 -132 l 169 -333 l 54 -333 z "},"s":{"ha":833,"x_min":126,"x_max":718,"o":"m 389 -12 q 202 42 275 -12 q 126 190 129 97 l 239 190 q 284 115 242 143 q 392 86 326 86 l 458 86 q 572 119 533 86 q 610 206 610 151 q 575 289 610 257 q 478 331 540 321 l 363 349 q 144 563 144 383 q 212 720 144 664 q 401 776 279 776 l 456 776 q 638 724 568 776 q 710 586 707 672 l 597 586 q 556 653 594 628 q 453 678 517 678 l 399 678 q 291 647 329 678 q 253 563 253 617 q 379 451 253 471 l 493 433 q 663 362 607 415 q 718 213 718 308 q 651 48 718 108 q 457 -12 585 -12 l 389 -12 z "},"ś":{"ha":833,"x_min":126,"x_max":718,"o":"m 389 -12 q 202 42 275 -12 q 126 190 129 97 l 239 190 q 284 115 242 143 q 392 86 326 86 l 458 86 q 572 119 533 86 q 610 206 610 151 q 575 289 610 257 q 478 331 540 321 l 363 349 q 144 563 144 383 q 212 720 144 664 q 401 776 279 776 l 456 776 q 638 724 568 776 q 710 586 707 672 l 597 586 q 556 653 594 628 q 453 678 517 678 l 399 678 q 291 647 329 678 q 253 563 253 617 q 379 451 253 471 l 493 433 q 663 362 607 415 q 718 213 718 308 q 651 48 718 108 q 457 -12 585 -12 l 389 -12 m 349 896 l 496 1090 l 617 1090 l 461 896 l 349 896 z "},"š":{"ha":833,"x_min":126,"x_max":718,"o":"m 389 -12 q 202 42 275 -12 q 126 190 129 97 l 239 190 q 284 115 242 143 q 392 86 326 86 l 458 86 q 572 119 533 86 q 610 206 610 151 q 575 289 610 257 q 478 331 540 321 l 363 349 q 144 563 144 383 q 212 720 144 664 q 401 776 279 776 l 456 776 q 638 724 568 776 q 710 586 707 672 l 597 586 q 556 653 594 628 q 453 678 517 678 l 399 678 q 291 647 329 678 q 253 563 253 617 q 379 451 253 471 l 493 433 q 663 362 607 415 q 718 213 718 308 q 651 48 718 108 q 457 -12 585 -12 l 389 -12 m 364 896 l 176 1090 l 296 1090 l 418 971 l 536 1090 l 657 1090 l 471 896 l 364 896 z "},"ş":{"ha":833,"x_min":126,"x_max":718,"o":"m 300 -279 l 300 -210 l 401 -210 q 451 -194 432 -210 q 471 -158 471 -178 q 431 -113 471 -132 q 321 -94 392 -94 l 351 -10 q 190 52 253 -1 q 126 190 128 106 l 239 190 q 284 115 242 143 q 392 86 326 86 l 458 86 q 572 119 533 86 q 610 206 610 151 q 575 289 610 257 q 478 331 540 321 l 363 349 q 144 563 144 383 q 212 720 144 664 q 401 776 279 776 l 456 776 q 638 724 568 776 q 710 586 707 672 l 597 586 q 556 653 594 628 q 453 678 517 678 l 399 678 q 291 647 329 678 q 253 563 253 617 q 379 451 253 471 l 493 433 q 663 362 607 415 q 718 213 718 308 q 651 48 718 108 q 457 -12 585 -12 l 426 -12 l 413 -49 q 486 -65 449 -51 q 550 -104 524 -79 q 576 -165 576 -129 q 533 -246 576 -212 q 417 -279 489 -279 l 300 -279 z "},"ŝ":{"ha":833,"x_min":126,"x_max":718,"o":"m 389 -12 q 202 42 275 -12 q 126 190 129 97 l 239 190 q 284 115 242 143 q 392 86 326 86 l 458 86 q 572 119 533 86 q 610 206 610 151 q 575 289 610 257 q 478 331 540 321 l 363 349 q 144 563 144 383 q 212 720 144 664 q 401 776 279 776 l 456 776 q 638 724 568 776 q 710 586 707 672 l 597 586 q 556 653 594 628 q 453 678 517 678 l 399 678 q 291 647 329 678 q 253 563 253 617 q 379 451 253 471 l 493 433 q 663 362 607 415 q 718 213 718 308 q 651 48 718 108 q 457 -12 585 -12 l 389 -12 m 176 896 l 363 1090 l 469 1090 l 657 896 l 538 896 l 417 1015 l 299 896 l 176 896 z "},"ș":{"ha":833,"x_min":126,"x_max":718,"o":"m 389 -12 q 202 42 275 -12 q 126 190 129 97 l 239 190 q 284 115 242 143 q 392 86 326 86 l 458 86 q 572 119 533 86 q 610 206 610 151 q 575 289 610 257 q 478 331 540 321 l 363 349 q 144 563 144 383 q 212 720 144 664 q 401 776 279 776 l 456 776 q 638 724 568 776 q 710 586 707 672 l 597 586 q 556 653 594 628 q 453 678 517 678 l 399 678 q 291 647 329 678 q 253 563 253 617 q 379 451 253 471 l 493 433 q 663 362 607 415 q 718 213 718 308 q 651 48 718 108 q 457 -12 585 -12 l 389 -12 m 274 -333 l 403 -132 l 535 -132 l 389 -333 l 274 -333 z "},"ß":{"ha":833,"x_min":135,"x_max":731,"o":"m 135 0 l 135 744 q 170 894 135 831 q 270 992 206 957 q 422 1028 335 1028 q 632 960 553 1028 q 711 768 711 892 q 668 621 711 682 q 551 538 625 560 q 683 451 635 517 q 731 289 731 386 q 694 138 731 203 q 590 37 657 74 q 433 0 524 0 l 343 0 l 343 100 l 424 100 q 565 151 514 100 q 615 289 615 203 q 565 424 615 375 q 424 472 515 472 l 364 472 l 364 568 l 422 568 q 549 619 503 568 q 596 747 596 669 q 549 880 596 832 q 422 928 503 928 q 292 878 340 928 q 244 744 244 829 l 244 0 l 135 0 z "},"ſ":{"ha":833,"x_min":235,"x_max":703,"o":"m 235 0 l 235 801 q 296 956 235 897 q 457 1014 357 1014 l 703 1014 l 703 915 l 457 915 q 376 884 407 915 q 344 801 344 853 l 344 0 l 235 0 z "},"t":{"ha":833,"x_min":82,"x_max":717,"o":"m 500 0 q 353 52 407 0 q 299 194 299 104 l 299 664 l 82 664 l 82 764 l 299 764 l 299 979 l 410 979 l 410 764 l 717 764 l 717 664 l 410 664 l 410 194 q 434 125 410 150 q 500 100 458 100 l 703 100 l 703 0 l 500 0 z "},"ŧ":{"ha":833,"x_min":82,"x_max":717,"o":"m 121 340 l 121 432 l 299 432 l 299 664 l 82 664 l 82 764 l 299 764 l 299 979 l 410 979 l 410 764 l 717 764 l 717 664 l 410 664 l 410 432 l 656 432 l 656 340 l 410 340 l 410 194 q 434 125 410 150 q 500 100 458 100 l 703 100 l 703 0 l 500 0 q 353 52 407 0 q 299 194 299 104 l 299 340 l 121 340 z "},"ť":{"ha":833,"x_min":82,"x_max":760,"o":"m 524 861 l 644 1078 l 760 1078 l 621 861 l 524 861 m 500 0 q 353 52 407 0 q 299 194 299 104 l 299 664 l 82 664 l 82 764 l 299 764 l 299 979 l 410 979 l 410 764 l 717 764 l 717 664 l 410 664 l 410 194 q 434 125 410 150 q 500 100 458 100 l 703 100 l 703 0 l 500 0 z "},"ţ":{"ha":833,"x_min":82,"x_max":717,"o":"m 369 -279 l 369 -210 l 471 -210 q 521 -194 501 -210 q 540 -158 540 -178 q 501 -113 540 -132 q 390 -94 461 -94 l 429 10 q 333 76 368 28 q 299 194 299 124 l 299 664 l 82 664 l 82 764 l 299 764 l 299 979 l 410 979 l 410 764 l 717 764 l 717 664 l 410 664 l 410 194 q 434 125 410 150 q 500 100 458 100 l 703 100 l 703 0 l 500 0 l 500 0 l 482 -49 q 556 -65 518 -51 q 619 -104 593 -79 q 646 -165 646 -129 q 602 -246 646 -212 q 486 -279 558 -279 l 369 -279 z "},"ț":{"ha":833,"x_min":82,"x_max":717,"o":"m 500 0 q 353 52 407 0 q 299 194 299 104 l 299 664 l 82 664 l 82 764 l 299 764 l 299 979 l 410 979 l 410 764 l 717 764 l 717 664 l 410 664 l 410 194 q 434 125 410 150 q 500 100 458 100 l 703 100 l 703 0 l 500 0 m 357 -333 l 486 -132 l 618 -132 l 472 -333 l 357 -333 z "},"u":{"ha":833,"x_min":132,"x_max":701,"o":"m 415 -14 q 208 64 285 -14 q 132 275 132 142 l 132 764 l 242 764 l 242 275 q 288 134 242 185 q 415 83 335 83 q 544 134 497 83 q 592 275 592 185 l 592 764 l 701 764 l 701 275 q 624 64 701 142 q 415 -14 546 -14 z "},"ú":{"ha":833,"x_min":132,"x_max":701,"o":"m 415 -14 q 208 64 285 -14 q 132 275 132 142 l 132 764 l 242 764 l 242 275 q 288 134 242 185 q 415 83 335 83 q 544 134 497 83 q 592 275 592 185 l 592 764 l 701 764 l 701 275 q 624 64 701 142 q 415 -14 546 -14 m 349 896 l 496 1090 l 617 1090 l 461 896 l 349 896 z "},"ŭ":{"ha":833,"x_min":132,"x_max":701,"o":"m 415 -14 q 208 64 285 -14 q 132 275 132 142 l 132 764 l 242 764 l 242 275 q 288 134 242 185 q 415 83 335 83 q 544 134 497 83 q 592 275 592 185 l 592 764 l 701 764 l 701 275 q 624 64 701 142 q 415 -14 546 -14 m 417 890 q 259 945 318 890 q 200 1090 200 1000 l 289 1090 q 324 999 289 1033 q 415 964 358 964 q 509 999 474 964 q 544 1090 544 1033 l 633 1090 q 574 945 633 1000 q 417 890 515 890 z "},"ǔ":{"ha":833,"x_min":132,"x_max":701,"o":"m 415 -14 q 208 64 285 -14 q 132 275 132 142 l 132 764 l 242 764 l 242 275 q 288 134 242 185 q 415 83 335 83 q 544 134 497 83 q 592 275 592 185 l 592 764 l 701 764 l 701 275 q 624 64 701 142 q 415 -14 546 -14 m 364 896 l 176 1090 l 296 1090 l 418 971 l 536 1090 l 657 1090 l 471 896 l 364 896 z "},"û":{"ha":833,"x_min":132,"x_max":701,"o":"m 415 -14 q 208 64 285 -14 q 132 275 132 142 l 132 764 l 242 764 l 242 275 q 288 134 242 185 q 415 83 335 83 q 544 134 497 83 q 592 275 592 185 l 592 764 l 701 764 l 701 275 q 624 64 701 142 q 415 -14 546 -14 m 176 896 l 363 1090 l 469 1090 l 657 896 l 538 896 l 417 1015 l 299 896 l 176 896 z "},"ü":{"ha":833,"x_min":132,"x_max":701,"o":"m 415 -14 q 208 64 285 -14 q 132 275 132 142 l 132 764 l 242 764 l 242 275 q 288 134 242 185 q 415 83 335 83 q 544 134 497 83 q 592 275 592 185 l 592 764 l 701 764 l 701 275 q 624 64 701 142 q 415 -14 546 -14 m 569 904 q 508 926 531 904 q 485 988 485 949 q 508 1051 485 1028 q 569 1075 531 1075 q 631 1051 608 1075 q 654 988 654 1028 q 631 926 654 949 q 569 904 608 904 m 264 904 q 202 926 225 904 q 179 988 179 949 q 202 1051 179 1028 q 264 1075 225 1075 q 326 1051 303 1075 q 349 988 349 1028 q 326 926 349 949 q 264 904 303 904 z "},"ǘ":{"ha":833,"x_min":132,"x_max":701,"o":"m 415 -14 q 208 64 285 -14 q 132 275 132 142 l 132 764 l 242 764 l 242 275 q 288 134 242 185 q 415 83 335 83 q 544 134 497 83 q 592 275 592 185 l 592 764 l 701 764 l 701 275 q 624 64 701 142 q 415 -14 546 -14 m 569 904 q 508 926 531 904 q 485 988 485 949 q 508 1051 485 1028 q 569 1075 531 1075 q 631 1051 608 1075 q 654 988 654 1028 q 631 926 654 949 q 569 904 608 904 m 264 904 q 202 926 225 904 q 179 988 179 949 q 202 1051 179 1028 q 264 1075 225 1075 q 326 1051 303 1075 q 349 988 349 1028 q 326 926 349 949 q 264 904 303 904 m 349 1207 l 496 1401 l 617 1401 l 461 1207 l 349 1207 z "},"ǚ":{"ha":833,"x_min":132,"x_max":701,"o":"m 415 -14 q 208 64 285 -14 q 132 275 132 142 l 132 764 l 242 764 l 242 275 q 288 134 242 185 q 415 83 335 83 q 544 134 497 83 q 592 275 592 185 l 592 764 l 701 764 l 701 275 q 624 64 701 142 q 415 -14 546 -14 m 569 904 q 508 926 531 904 q 485 988 485 949 q 508 1051 485 1028 q 569 1075 531 1075 q 631 1051 608 1075 q 654 988 654 1028 q 631 926 654 949 q 569 904 608 904 m 264 904 q 202 926 225 904 q 179 988 179 949 q 202 1051 179 1028 q 264 1075 225 1075 q 326 1051 303 1075 q 349 988 349 1028 q 326 926 349 949 q 264 904 303 904 m 364 1207 l 176 1401 l 296 1401 l 418 1282 l 536 1401 l 657 1401 l 471 1207 l 364 1207 z "},"ǜ":{"ha":833,"x_min":132,"x_max":701,"o":"m 415 -14 q 208 64 285 -14 q 132 275 132 142 l 132 764 l 242 764 l 242 275 q 288 134 242 185 q 415 83 335 83 q 544 134 497 83 q 592 275 592 185 l 592 764 l 701 764 l 701 275 q 624 64 701 142 q 415 -14 546 -14 m 569 904 q 508 926 531 904 q 485 988 485 949 q 508 1051 485 1028 q 569 1075 531 1075 q 631 1051 608 1075 q 654 988 654 1028 q 631 926 654 949 q 569 904 608 904 m 264 904 q 202 926 225 904 q 179 988 179 949 q 202 1051 179 1028 q 264 1075 225 1075 q 326 1051 303 1075 q 349 988 349 1028 q 326 926 349 949 q 264 904 303 904 m 376 1207 l 218 1401 l 343 1401 l 494 1207 l 376 1207 z "},"ǖ":{"ha":833,"x_min":132,"x_max":701,"o":"m 415 -14 q 208 64 285 -14 q 132 275 132 142 l 132 764 l 242 764 l 242 275 q 288 134 242 185 q 415 83 335 83 q 544 134 497 83 q 592 275 592 185 l 592 764 l 701 764 l 701 275 q 624 64 701 142 q 415 -14 546 -14 m 569 904 q 508 926 531 904 q 485 988 485 949 q 508 1051 485 1028 q 569 1075 531 1075 q 631 1051 608 1075 q 654 988 654 1028 q 631 926 654 949 q 569 904 608 904 m 264 904 q 202 926 225 904 q 179 988 179 949 q 202 1051 179 1028 q 264 1075 225 1075 q 326 1051 303 1075 q 349 988 349 1028 q 326 926 349 949 q 264 904 303 904 m 201 1247 l 201 1339 l 632 1339 l 632 1247 l 201 1247 z "},"ụ":{"ha":833,"x_min":132,"x_max":701,"o":"m 415 -14 q 208 64 285 -14 q 132 275 132 142 l 132 764 l 242 764 l 242 275 q 288 134 242 185 q 415 83 335 83 q 544 134 497 83 q 592 275 592 185 l 592 764 l 701 764 l 701 275 q 624 64 701 142 q 415 -14 546 -14 m 417 -293 q 348 -270 374 -293 q 322 -208 322 -247 q 348 -145 322 -168 q 417 -122 374 -122 q 485 -145 460 -122 q 511 -208 511 -168 q 485 -270 511 -247 q 417 -293 460 -293 z "},"ù":{"ha":833,"x_min":132,"x_max":701,"o":"m 415 -14 q 208 64 285 -14 q 132 275 132 142 l 132 764 l 242 764 l 242 275 q 288 134 242 185 q 415 83 335 83 q 544 134 497 83 q 592 275 592 185 l 592 764 l 701 764 l 701 275 q 624 64 701 142 q 415 -14 546 -14 m 376 896 l 218 1090 l 343 1090 l 494 896 l 376 896 z "},"ủ":{"ha":833,"x_min":132,"x_max":701,"o":"m 415 -14 q 208 64 285 -14 q 132 275 132 142 l 132 764 l 242 764 l 242 275 q 288 134 242 185 q 415 83 335 83 q 544 134 497 83 q 592 275 592 185 l 592 764 l 701 764 l 701 275 q 624 64 701 142 q 415 -14 546 -14 m 364 896 l 436 988 q 457 1035 457 1015 q 410 1065 457 1065 l 296 1065 l 296 1144 l 436 1144 q 519 1118 488 1144 q 551 1047 551 1092 q 526 972 551 1004 l 469 896 l 364 896 z "},"ư":{"ha":833,"x_min":132,"x_max":825,"o":"m 132 275 l 132 764 l 242 764 l 242 275 q 288 134 242 185 q 415 83 335 83 q 544 134 497 83 q 592 275 592 185 l 592 764 l 681 764 q 733 818 733 764 l 733 917 l 825 917 l 825 813 q 794 720 825 756 q 701 685 764 685 l 701 275 q 624 64 701 142 q 415 -14 546 -14 q 208 64 285 -14 q 132 275 132 142 z "},"ứ":{"ha":833,"x_min":132,"x_max":825,"o":"m 132 275 l 132 764 l 242 764 l 242 275 q 288 134 242 185 q 415 83 335 83 q 544 134 497 83 q 592 275 592 185 l 592 764 l 681 764 q 733 818 733 764 l 733 917 l 825 917 l 825 813 q 794 720 825 756 q 701 685 764 685 l 701 275 q 624 64 701 142 q 415 -14 546 -14 q 208 64 285 -14 q 132 275 132 142 m 349 896 l 496 1090 l 617 1090 l 461 896 l 349 896 z "},"ự":{"ha":833,"x_min":132,"x_max":825,"o":"m 132 275 l 132 764 l 242 764 l 242 275 q 288 134 242 185 q 415 83 335 83 q 544 134 497 83 q 592 275 592 185 l 592 764 l 681 764 q 733 818 733 764 l 733 917 l 825 917 l 825 813 q 794 720 825 756 q 701 685 764 685 l 701 275 q 624 64 701 142 q 415 -14 546 -14 q 208 64 285 -14 q 132 275 132 142 m 415 -293 q 347 -270 372 -293 q 321 -208 321 -247 q 347 -145 321 -168 q 415 -122 372 -122 q 484 -145 458 -122 q 510 -208 510 -168 q 484 -270 510 -247 q 415 -293 458 -293 z "},"ừ":{"ha":833,"x_min":132,"x_max":825,"o":"m 132 275 l 132 764 l 242 764 l 242 275 q 288 134 242 185 q 415 83 335 83 q 544 134 497 83 q 592 275 592 185 l 592 764 l 681 764 q 733 818 733 764 l 733 917 l 825 917 l 825 813 q 794 720 825 756 q 701 685 764 685 l 701 275 q 624 64 701 142 q 415 -14 546 -14 q 208 64 285 -14 q 132 275 132 142 m 376 896 l 218 1090 l 343 1090 l 494 896 l 376 896 z "},"ử":{"ha":833,"x_min":132,"x_max":825,"o":"m 132 275 l 132 764 l 242 764 l 242 275 q 288 134 242 185 q 415 83 335 83 q 544 134 497 83 q 592 275 592 185 l 592 764 l 681 764 q 733 818 733 764 l 733 917 l 825 917 l 825 813 q 794 720 825 756 q 701 685 764 685 l 701 275 q 624 64 701 142 q 415 -14 546 -14 q 208 64 285 -14 q 132 275 132 142 m 364 896 l 436 988 q 457 1035 457 1015 q 410 1065 457 1065 l 296 1065 l 296 1144 l 436 1144 q 519 1118 488 1144 q 551 1047 551 1092 q 526 972 551 1004 l 469 896 l 364 896 z "},"ữ":{"ha":833,"x_min":132,"x_max":825,"o":"m 132 275 l 132 764 l 242 764 l 242 275 q 288 134 242 185 q 415 83 335 83 q 544 134 497 83 q 592 275 592 185 l 592 764 l 681 764 q 733 818 733 764 l 733 917 l 825 917 l 825 813 q 794 720 825 756 q 701 685 764 685 l 701 275 q 624 64 701 142 q 415 -14 546 -14 q 208 64 285 -14 q 132 275 132 142 m 515 903 q 449 919 475 903 q 403 956 422 935 q 367 992 385 976 q 325 1008 349 1008 q 275 953 275 1008 l 275 910 l 194 910 l 194 953 q 228 1049 194 1015 q 319 1083 263 1083 q 387 1067 361 1083 q 432 1031 413 1051 q 469 994 451 1010 q 511 978 486 978 q 558 1033 558 978 l 558 1076 l 639 1076 l 639 1033 q 606 937 639 971 q 515 903 572 903 z "},"ű":{"ha":833,"x_min":132,"x_max":722,"o":"m 415 -14 q 208 64 285 -14 q 132 275 132 142 l 132 764 l 242 764 l 242 275 q 288 134 242 185 q 415 83 335 83 q 544 134 497 83 q 592 275 592 185 l 592 764 l 701 764 l 701 275 q 624 64 701 142 q 415 -14 546 -14 m 456 896 l 607 1090 l 722 1090 l 564 896 l 456 896 m 215 896 l 367 1090 l 482 1090 l 322 896 l 215 896 z "},"ū":{"ha":833,"x_min":132,"x_max":701,"o":"m 415 -14 q 208 64 285 -14 q 132 275 132 142 l 132 764 l 242 764 l 242 275 q 288 134 242 185 q 415 83 335 83 q 544 134 497 83 q 592 275 592 185 l 592 764 l 701 764 l 701 275 q 624 64 701 142 q 415 -14 546 -14 m 201 936 l 201 1028 l 632 1028 l 632 936 l 201 936 z "},"ų":{"ha":833,"x_min":132,"x_max":701,"o":"m 517 -279 q 403 -244 446 -279 q 360 -154 360 -210 q 378 -90 360 -124 q 443 -12 396 -56 q 417 -14 432 -14 q 208 63 283 -14 q 132 274 132 140 l 132 764 l 242 764 l 242 274 q 287 133 242 182 q 417 83 332 83 q 547 133 501 83 q 592 274 592 182 l 592 764 l 701 764 l 701 274 q 586 31 701 103 l 551 1 q 464 -133 464 -74 q 484 -183 464 -164 q 539 -203 504 -203 l 624 -203 l 624 -279 l 517 -279 z "},"ů":{"ha":833,"x_min":132,"x_max":701,"o":"m 415 -14 q 208 64 285 -14 q 132 275 132 142 l 132 764 l 242 764 l 242 275 q 288 134 242 185 q 415 83 335 83 q 544 134 497 83 q 592 275 592 185 l 592 764 l 701 764 l 701 275 q 624 64 701 142 q 415 -14 546 -14 m 417 847 q 300 890 344 847 q 256 1000 256 932 q 300 1111 256 1069 q 417 1153 344 1153 q 533 1111 489 1153 q 578 1000 578 1069 q 533 890 578 932 q 417 847 489 847 m 417 914 q 478 938 456 914 q 501 1000 501 961 q 478 1063 501 1039 q 417 1088 456 1088 q 355 1063 378 1088 q 332 1000 332 1039 q 355 938 332 961 q 417 914 378 914 z "},"ũ":{"ha":833,"x_min":132,"x_max":701,"o":"m 415 -14 q 208 64 285 -14 q 132 275 132 142 l 132 764 l 242 764 l 242 275 q 288 134 242 185 q 415 83 335 83 q 544 134 497 83 q 592 275 592 185 l 592 764 l 701 764 l 701 275 q 624 64 701 142 q 415 -14 546 -14 m 515 903 q 449 919 475 903 q 403 956 422 935 q 367 992 385 976 q 325 1008 349 1008 q 275 953 275 1008 l 275 910 l 194 910 l 194 953 q 228 1049 194 1015 q 319 1083 263 1083 q 387 1067 361 1083 q 432 1031 413 1051 q 469 994 451 1010 q 511 978 486 978 q 558 1033 558 978 l 558 1076 l 639 1076 l 639 1033 q 606 937 639 971 q 515 903 572 903 z "},"v":{"ha":833,"x_min":79,"x_max":754,"o":"m 344 0 l 79 764 l 193 764 l 375 235 q 401 149 390 192 q 419 83 413 107 q 436 149 425 107 q 463 235 447 192 l 640 764 l 754 764 l 489 0 l 344 0 z "},"w":{"ha":833,"x_min":54,"x_max":779,"o":"m 178 0 l 54 764 l 151 764 l 232 215 q 240 147 236 185 q 247 85 244 108 l 251 85 q 259 147 254 108 q 269 215 264 185 l 361 764 l 472 764 l 564 215 q 575 147 569 183 q 582 85 581 110 l 588 85 q 594 147 590 108 q 604 215 599 185 l 686 764 l 779 764 l 650 0 l 525 0 l 440 532 q 427 610 433 569 q 418 676 421 651 l 414 676 q 406 610 411 651 q 393 532 400 569 l 304 0 l 178 0 z "},"ẃ":{"ha":833,"x_min":54,"x_max":779,"o":"m 178 0 l 54 764 l 151 764 l 232 215 q 240 147 236 185 q 247 85 244 108 l 251 85 q 259 147 254 108 q 269 215 264 185 l 361 764 l 472 764 l 564 215 q 575 147 569 183 q 582 85 581 110 l 588 85 q 594 147 590 108 q 604 215 599 185 l 686 764 l 779 764 l 650 0 l 525 0 l 440 532 q 427 610 433 569 q 418 676 421 651 l 414 676 q 406 610 411 651 q 393 532 400 569 l 304 0 l 178 0 m 349 896 l 496 1090 l 617 1090 l 461 896 l 349 896 z "},"ŵ":{"ha":833,"x_min":54,"x_max":779,"o":"m 178 0 l 54 764 l 151 764 l 232 215 q 240 147 236 185 q 247 85 244 108 l 251 85 q 259 147 254 108 q 269 215 264 185 l 361 764 l 472 764 l 564 215 q 575 147 569 183 q 582 85 581 110 l 588 85 q 594 147 590 108 q 604 215 599 185 l 686 764 l 779 764 l 650 0 l 525 0 l 440 532 q 427 610 433 569 q 418 676 421 651 l 414 676 q 406 610 411 651 q 393 532 400 569 l 304 0 l 178 0 m 176 896 l 363 1090 l 469 1090 l 657 896 l 538 896 l 417 1015 l 299 896 l 176 896 z "},"ẅ":{"ha":833,"x_min":54,"x_max":779,"o":"m 178 0 l 54 764 l 151 764 l 232 215 q 240 147 236 185 q 247 85 244 108 l 251 85 q 259 147 254 108 q 269 215 264 185 l 361 764 l 472 764 l 564 215 q 575 147 569 183 q 582 85 581 110 l 588 85 q 594 147 590 108 q 604 215 599 185 l 686 764 l 779 764 l 650 0 l 525 0 l 440 532 q 427 610 433 569 q 418 676 421 651 l 414 676 q 406 610 411 651 q 393 532 400 569 l 304 0 l 178 0 m 569 904 q 508 926 531 904 q 485 988 485 949 q 508 1051 485 1028 q 569 1075 531 1075 q 631 1051 608 1075 q 654 988 654 1028 q 631 926 654 949 q 569 904 608 904 m 264 904 q 202 926 225 904 q 179 988 179 949 q 202 1051 179 1028 q 264 1075 225 1075 q 326 1051 303 1075 q 349 988 349 1028 q 326 926 349 949 q 264 904 303 904 z "},"ẁ":{"ha":833,"x_min":54,"x_max":779,"o":"m 178 0 l 54 764 l 151 764 l 232 215 q 240 147 236 185 q 247 85 244 108 l 251 85 q 259 147 254 108 q 269 215 264 185 l 361 764 l 472 764 l 564 215 q 575 147 569 183 q 582 85 581 110 l 588 85 q 594 147 590 108 q 604 215 599 185 l 686 764 l 779 764 l 650 0 l 525 0 l 440 532 q 427 610 433 569 q 418 676 421 651 l 414 676 q 406 610 411 651 q 393 532 400 569 l 304 0 l 178 0 m 376 896 l 218 1090 l 343 1090 l 494 896 l 376 896 z "},"x":{"ha":833,"x_min":79,"x_max":754,"o":"m 79 0 l 350 393 l 96 764 l 225 764 l 386 517 q 403 486 394 503 q 418 458 413 469 q 431 486 422 469 q 450 517 440 503 l 611 764 l 739 764 l 485 392 l 754 0 l 625 0 l 453 261 q 433 295 443 276 q 418 325 424 314 q 401 295 411 314 q 381 261 390 276 l 207 0 l 79 0 z "},"y":{"ha":833,"x_min":79,"x_max":754,"o":"m 256 -250 l 368 49 l 79 764 l 200 764 l 386 288 q 408 226 397 260 q 425 169 419 192 q 442 226 431 192 q 464 289 453 260 l 638 764 l 754 764 l 371 -250 l 256 -250 z "},"ý":{"ha":833,"x_min":79,"x_max":754,"o":"m 256 -250 l 368 49 l 79 764 l 200 764 l 386 288 q 408 226 397 260 q 425 169 419 192 q 442 226 431 192 q 464 289 453 260 l 638 764 l 754 764 l 371 -250 l 256 -250 m 349 896 l 496 1090 l 617 1090 l 461 896 l 349 896 z "},"ŷ":{"ha":833,"x_min":79,"x_max":754,"o":"m 256 -250 l 368 49 l 79 764 l 200 764 l 386 288 q 408 226 397 260 q 425 169 419 192 q 442 226 431 192 q 464 289 453 260 l 638 764 l 754 764 l 371 -250 l 256 -250 m 176 896 l 363 1090 l 469 1090 l 657 896 l 538 896 l 417 1015 l 299 896 l 176 896 z "},"ÿ":{"ha":833,"x_min":79,"x_max":754,"o":"m 256 -250 l 368 49 l 79 764 l 200 764 l 386 288 q 408 226 397 260 q 425 169 419 192 q 442 226 431 192 q 464 289 453 260 l 638 764 l 754 764 l 371 -250 l 256 -250 m 569 904 q 508 926 531 904 q 485 988 485 949 q 508 1051 485 1028 q 569 1075 531 1075 q 631 1051 608 1075 q 654 988 654 1028 q 631 926 654 949 q 569 904 608 904 m 264 904 q 202 926 225 904 q 179 988 179 949 q 202 1051 179 1028 q 264 1075 225 1075 q 326 1051 303 1075 q 349 988 349 1028 q 326 926 349 949 q 264 904 303 904 z "},"ỵ":{"ha":833,"x_min":79,"x_max":754,"o":"m 256 -250 l 368 49 l 79 764 l 200 764 l 386 288 q 408 226 397 260 q 425 169 419 192 q 442 226 431 192 q 464 289 453 260 l 638 764 l 754 764 l 371 -250 l 256 -250 m 635 -293 q 566 -270 592 -293 q 540 -208 540 -247 q 566 -145 540 -168 q 635 -122 592 -122 q 703 -145 678 -122 q 729 -208 729 -168 q 703 -270 729 -247 q 635 -293 678 -293 z "},"ỳ":{"ha":833,"x_min":79,"x_max":754,"o":"m 256 -250 l 368 49 l 79 764 l 200 764 l 386 288 q 408 226 397 260 q 425 169 419 192 q 442 226 431 192 q 464 289 453 260 l 638 764 l 754 764 l 371 -250 l 256 -250 m 376 896 l 218 1090 l 343 1090 l 494 896 l 376 896 z "},"ỷ":{"ha":833,"x_min":79,"x_max":754,"o":"m 256 -250 l 368 49 l 79 764 l 200 764 l 386 288 q 408 226 397 260 q 425 169 419 192 q 442 226 431 192 q 464 289 453 260 l 638 764 l 754 764 l 371 -250 l 256 -250 m 364 896 l 436 988 q 457 1035 457 1015 q 410 1065 457 1065 l 296 1065 l 296 1144 l 436 1144 q 519 1118 488 1144 q 551 1047 551 1092 q 526 972 551 1004 l 469 896 l 364 896 z "},"ȳ":{"ha":833,"x_min":79,"x_max":754,"o":"m 256 -250 l 368 49 l 79 764 l 200 764 l 386 288 q 408 226 397 260 q 425 169 419 192 q 442 226 431 192 q 464 289 453 260 l 638 764 l 754 764 l 371 -250 l 256 -250 m 201 936 l 201 1028 l 632 1028 l 632 936 l 201 936 z "},"ỹ":{"ha":833,"x_min":79,"x_max":754,"o":"m 256 -250 l 368 49 l 79 764 l 200 764 l 386 288 q 408 226 397 260 q 425 169 419 192 q 442 226 431 192 q 464 289 453 260 l 638 764 l 754 764 l 371 -250 l 256 -250 m 515 903 q 449 919 475 903 q 403 956 422 935 q 367 992 385 976 q 325 1008 349 1008 q 275 953 275 1008 l 275 910 l 194 910 l 194 953 q 228 1049 194 1015 q 319 1083 263 1083 q 387 1067 361 1083 q 432 1031 413 1051 q 469 994 451 1010 q 511 978 486 978 q 558 1033 558 978 l 558 1076 l 639 1076 l 639 1033 q 606 937 639 971 q 515 903 572 903 z "},"z":{"ha":833,"x_min":129,"x_max":704,"o":"m 129 0 l 129 108 l 564 664 l 142 664 l 142 764 l 688 764 l 688 654 l 247 100 l 704 100 l 704 0 l 129 0 z "},"ź":{"ha":833,"x_min":129,"x_max":704,"o":"m 129 0 l 129 108 l 564 664 l 142 664 l 142 764 l 688 764 l 688 654 l 247 100 l 704 100 l 704 0 l 129 0 m 349 896 l 496 1090 l 617 1090 l 461 896 l 349 896 z "},"ž":{"ha":833,"x_min":129,"x_max":704,"o":"m 129 0 l 129 108 l 564 664 l 142 664 l 142 764 l 688 764 l 688 654 l 247 100 l 704 100 l 704 0 l 129 0 m 364 896 l 176 1090 l 296 1090 l 418 971 l 536 1090 l 657 1090 l 471 896 l 364 896 z "},"ż":{"ha":833,"x_min":129,"x_max":704,"o":"m 129 0 l 129 108 l 564 664 l 142 664 l 142 764 l 688 764 l 688 654 l 247 100 l 704 100 l 704 0 l 129 0 m 417 904 q 348 926 374 904 q 322 988 322 949 q 348 1051 322 1028 q 417 1075 374 1075 q 485 1051 460 1075 q 511 988 511 1028 q 485 926 511 949 q 417 904 460 904 z "},"ª":{"ha":833,"x_min":244,"x_max":582,"o":"m 381 625 q 281 658 318 625 q 244 744 244 690 q 283 831 244 799 q 388 863 322 863 l 518 863 l 518 903 q 492 956 518 936 q 424 976 467 976 q 360 960 386 976 q 329 917 335 943 l 265 917 q 315 999 274 969 q 424 1028 357 1028 q 539 994 496 1028 q 582 903 582 961 l 582 632 l 522 632 l 522 708 l 518 708 q 466 647 503 669 q 381 625 429 625 m 399 674 q 486 700 454 674 q 518 771 518 726 l 518 810 l 388 810 q 329 792 350 810 q 308 744 308 775 q 333 692 308 711 q 399 674 357 674 z "},"º":{"ha":833,"x_min":260,"x_max":574,"o":"m 417 618 q 303 657 346 618 q 260 760 260 696 l 260 881 q 303 983 260 944 q 417 1022 346 1022 q 531 983 488 1022 q 574 881 574 944 l 574 760 q 531 657 574 696 q 417 618 488 618 m 417 669 q 485 694 458 669 q 511 760 511 719 l 511 881 q 485 946 511 921 q 417 971 458 971 q 349 946 375 971 q 322 881 322 921 l 322 760 q 349 694 322 719 q 417 669 375 669 z "},"А":{"ha":833,"x_min":76,"x_max":757,"o":"m 76 0 l 344 1014 l 490 1014 l 757 0 l 646 0 l 575 275 l 258 275 l 189 0 l 76 0 m 281 369 l 551 369 l 465 708 q 432 850 444 793 q 417 925 419 907 q 401 850 414 907 q 368 708 389 793 l 281 369 z "},"Б":{"ha":833,"x_min":136,"x_max":731,"o":"m 136 0 l 136 1014 l 689 1014 l 689 914 l 247 914 l 247 586 l 424 586 q 648 506 565 586 q 731 293 731 426 q 648 80 731 160 q 424 0 565 0 l 136 0 m 247 100 l 424 100 q 566 151 514 100 q 618 293 618 203 q 566 435 618 383 q 424 486 514 486 l 247 486 l 247 100 z "},"В":{"ha":833,"x_min":136,"x_max":731,"o":"m 136 0 l 136 1014 l 415 1014 q 629 944 551 1014 q 707 751 707 874 q 666 610 707 668 q 553 532 625 551 q 683 445 636 511 q 731 281 731 379 q 651 76 731 151 q 432 0 571 0 l 136 0 m 243 574 l 415 574 q 549 619 500 574 q 597 744 597 665 q 549 869 597 824 q 415 914 500 914 l 243 914 l 243 574 m 243 100 l 422 100 q 569 149 515 100 q 622 283 622 199 q 569 424 622 371 q 422 478 515 478 l 243 478 l 243 100 z "},"Г":{"ha":833,"x_min":185,"x_max":767,"o":"m 185 0 l 185 1014 l 767 1014 l 767 914 l 294 914 l 294 0 l 185 0 z "},"Ѓ":{"ha":833,"x_min":185,"x_max":767,"o":"m 185 0 l 185 1014 l 767 1014 l 767 914 l 294 914 l 294 0 l 185 0 m 372 1125 l 519 1319 l 640 1319 l 485 1125 l 372 1125 z "},"Ґ":{"ha":833,"x_min":185,"x_max":767,"o":"m 185 0 l 185 1014 l 663 1014 l 663 1146 l 767 1146 l 767 914 l 294 914 l 294 0 l 185 0 z "},"Д":{"ha":833,"x_min":43,"x_max":789,"o":"m 43 -194 l 43 94 l 101 94 q 136 169 118 122 q 167 277 154 217 q 182 406 181 338 l 193 1014 l 692 1014 l 692 94 l 789 94 l 789 -194 l 692 -194 l 692 0 l 142 0 l 142 -194 l 43 -194 m 217 94 l 581 94 l 581 915 l 299 915 l 290 406 q 265 214 289 297 q 217 94 240 131 z "},"Е":{"ha":833,"x_min":146,"x_max":718,"o":"m 146 0 l 146 1014 l 718 1014 l 718 914 l 256 914 l 256 579 l 669 579 l 669 481 l 256 481 l 256 100 l 718 100 l 718 0 l 146 0 z "},"Ё":{"ha":833,"x_min":146,"x_max":718,"o":"m 146 0 l 146 1014 l 718 1014 l 718 914 l 256 914 l 256 579 l 669 579 l 669 481 l 256 481 l 256 100 l 718 100 l 718 0 l 146 0 m 599 1138 q 537 1160 560 1138 q 514 1222 514 1183 q 537 1285 514 1263 q 599 1308 560 1308 q 660 1285 638 1308 q 683 1222 683 1263 q 660 1160 683 1183 q 599 1138 638 1138 m 293 1138 q 231 1160 254 1138 q 208 1222 208 1183 q 231 1285 208 1263 q 293 1308 254 1308 q 355 1285 332 1308 q 378 1222 378 1263 q 355 1160 378 1183 q 293 1138 332 1138 z "},"Ж":{"ha":833,"x_min":24,"x_max":810,"o":"m 24 0 l 207 524 l 36 1014 l 151 1014 l 300 560 l 369 560 l 369 1014 l 463 1014 l 463 560 l 533 560 l 682 1014 l 796 1014 l 628 522 l 810 0 l 696 0 l 535 479 l 463 479 l 463 0 l 369 0 l 369 479 l 297 479 l 136 0 l 24 0 z "},"З":{"ha":833,"x_min":79,"x_max":731,"o":"m 401 -14 q 233 22 306 -14 q 120 120 161 57 q 79 267 79 183 l 189 267 q 249 135 190 185 q 401 85 308 85 q 560 138 500 85 q 619 281 619 192 q 560 422 619 368 q 401 476 500 476 l 282 476 l 282 575 l 399 575 q 542 624 488 575 q 597 753 597 674 q 542 881 597 832 q 399 931 488 931 q 255 880 310 931 q 200 747 200 829 l 90 747 q 129 894 90 832 q 238 992 168 957 q 401 1028 308 1028 q 562 994 493 1028 q 669 900 631 961 q 707 758 707 839 q 662 611 707 671 q 538 533 617 551 q 678 449 626 515 q 731 282 731 382 q 690 126 731 193 q 574 23 649 60 q 401 -14 500 -14 z "},"И":{"ha":833,"x_min":132,"x_max":701,"o":"m 132 0 l 132 1014 l 239 1014 l 239 389 q 235 244 239 319 q 229 128 232 169 l 553 1014 l 701 1014 l 701 0 l 594 0 l 594 625 q 597 714 594 665 q 601 808 599 763 q 607 886 604 854 l 279 0 l 132 0 z "},"Й":{"ha":833,"x_min":132,"x_max":701,"o":"m 132 0 l 132 1014 l 239 1014 l 239 389 q 235 244 239 319 q 229 128 232 169 l 553 1014 l 701 1014 l 701 0 l 594 0 l 594 625 q 597 714 594 665 q 601 808 599 763 q 607 886 604 854 l 279 0 l 132 0 m 417 1119 q 259 1174 318 1119 q 200 1319 200 1229 l 289 1319 q 324 1228 289 1263 q 415 1193 358 1193 q 509 1228 474 1193 q 544 1319 544 1263 l 633 1319 q 574 1174 633 1229 q 417 1119 515 1119 z "},"К":{"ha":833,"x_min":135,"x_max":771,"o":"m 135 0 l 135 1014 l 244 1014 l 244 574 l 411 574 l 636 1014 l 757 1014 l 508 528 l 771 0 l 643 0 l 408 476 l 244 476 l 244 0 l 135 0 z "},"Ќ":{"ha":833,"x_min":135,"x_max":771,"o":"m 135 0 l 135 1014 l 244 1014 l 244 574 l 411 574 l 636 1014 l 757 1014 l 508 528 l 771 0 l 643 0 l 408 476 l 244 476 l 244 0 l 135 0 m 344 1125 l 492 1319 l 613 1319 l 457 1125 l 344 1125 z "},"Л":{"ha":833,"x_min":29,"x_max":697,"o":"m 29 -7 l 29 97 l 60 97 q 146 149 118 97 q 176 319 174 201 l 188 1014 l 697 1014 l 697 0 l 586 0 l 586 914 l 296 914 l 286 319 q 229 74 283 154 q 64 -7 175 -7 l 29 -7 z "},"М":{"ha":833,"x_min":111,"x_max":722,"o":"m 111 0 l 111 1014 l 260 1014 l 376 669 q 402 588 390 629 q 419 522 414 546 q 436 588 425 546 q 461 671 447 629 l 574 1014 l 722 1014 l 722 0 l 614 0 l 614 514 q 622 749 614 633 q 643 958 631 864 l 471 446 l 363 446 l 189 958 q 210 755 201 867 q 219 514 219 643 l 219 0 l 111 0 z "},"Н":{"ha":833,"x_min":136,"x_max":697,"o":"m 136 0 l 136 1014 l 246 1014 l 246 575 l 588 575 l 588 1014 l 697 1014 l 697 0 l 588 0 l 588 474 l 246 474 l 246 0 l 136 0 z "},"О":{"ha":833,"x_min":129,"x_max":704,"o":"m 417 -14 q 206 63 283 -14 q 129 274 129 140 l 129 740 q 206 951 129 874 q 417 1028 283 1028 q 627 951 550 1028 q 704 740 704 874 l 704 274 q 627 63 704 140 q 417 -14 550 -14 m 417 85 q 548 134 501 85 q 594 274 594 183 l 594 740 q 548 880 594 831 q 417 929 501 929 q 285 880 332 929 q 239 740 239 831 l 239 274 q 285 134 239 183 q 417 85 332 85 z "},"П":{"ha":833,"x_min":136,"x_max":697,"o":"m 136 0 l 136 1014 l 697 1014 l 697 0 l 586 0 l 586 914 l 247 914 l 247 0 l 136 0 z "},"Р":{"ha":833,"x_min":135,"x_max":758,"o":"m 135 0 l 135 1014 l 453 1014 q 676 934 593 1014 q 758 719 758 854 q 676 506 758 586 q 453 425 593 425 l 244 425 l 244 0 l 135 0 m 244 525 l 453 525 q 592 578 540 525 q 644 719 644 631 q 593 862 644 810 q 453 914 542 914 l 244 914 l 244 525 z "},"С":{"ha":833,"x_min":129,"x_max":717,"o":"m 424 -14 q 208 63 288 -14 q 129 274 129 140 l 129 740 q 208 951 129 874 q 424 1028 288 1028 q 637 949 557 1028 q 717 736 717 871 l 607 736 q 558 878 607 828 q 424 929 508 929 q 288 880 336 929 q 239 740 239 831 l 239 274 q 288 134 239 183 q 424 85 336 85 q 558 135 510 85 q 607 278 607 186 l 717 278 q 637 65 717 143 q 424 -14 557 -14 z "},"Т":{"ha":833,"x_min":78,"x_max":756,"o":"m 363 0 l 363 914 l 78 914 l 78 1014 l 756 1014 l 756 914 l 472 914 l 472 0 l 363 0 z "},"У":{"ha":833,"x_min":76,"x_max":757,"o":"m 272 0 l 375 264 l 76 1014 l 197 1014 l 382 518 q 412 426 399 471 q 429 360 425 382 q 446 426 435 382 q 472 518 457 471 l 638 1014 l 757 1014 l 390 0 l 272 0 z "},"Ў":{"ha":833,"x_min":76,"x_max":757,"o":"m 272 0 l 375 264 l 76 1014 l 197 1014 l 382 518 q 412 426 399 471 q 429 360 425 382 q 446 426 435 382 q 472 518 457 471 l 638 1014 l 757 1014 l 390 0 l 272 0 m 417 1119 q 259 1174 318 1119 q 200 1319 200 1229 l 289 1319 q 324 1228 289 1263 q 415 1193 358 1193 q 509 1228 474 1193 q 544 1319 544 1263 l 633 1319 q 574 1174 633 1229 q 417 1119 515 1119 z "},"Ф":{"ha":833,"x_min":79,"x_max":754,"o":"m 365 -35 l 365 63 q 157 140 235 63 q 79 349 79 218 l 79 681 q 156 893 79 814 q 365 972 233 972 l 365 1069 l 468 1069 l 468 972 q 677 893 600 972 q 754 681 754 814 l 754 349 q 676 140 754 218 q 468 63 599 63 l 468 -35 l 365 -35 m 365 157 l 365 878 q 232 824 281 878 q 183 681 183 771 l 183 349 q 233 209 183 261 q 365 157 282 157 m 468 157 q 601 209 551 157 q 650 349 650 261 l 650 681 q 601 824 650 771 q 468 878 553 878 l 468 157 z "},"Х":{"ha":833,"x_min":60,"x_max":774,"o":"m 60 0 l 354 518 l 78 1014 l 204 1014 l 364 711 q 392 658 376 688 q 418 608 408 628 q 444 658 428 628 q 472 711 460 688 l 635 1014 l 756 1014 l 479 525 l 774 0 l 647 0 l 469 329 q 442 383 457 353 q 417 433 426 414 q 390 383 406 414 q 363 331 375 353 l 182 0 l 60 0 z "},"Ч":{"ha":833,"x_min":110,"x_max":696,"o":"m 586 0 l 586 407 q 502 393 558 399 q 393 388 446 388 q 110 642 110 388 l 110 1014 l 219 1014 l 219 642 q 413 485 219 485 q 513 490 463 485 q 586 504 563 496 l 586 1014 l 696 1014 l 696 0 l 586 0 z "},"Ц":{"ha":833,"x_min":136,"x_max":779,"o":"m 679 -194 l 679 0 l 136 0 l 136 1014 l 247 1014 l 247 99 l 564 99 l 564 1014 l 674 1014 l 674 99 l 779 99 l 779 -194 l 679 -194 z "},"Ш":{"ha":833,"x_min":93,"x_max":740,"o":"m 96 0 l 93 1014 l 197 1014 l 197 85 l 372 85 l 372 1014 l 464 1014 l 464 85 l 638 85 l 638 1014 l 740 1014 l 740 0 l 96 0 z "},"Щ":{"ha":833,"x_min":93,"x_max":794,"o":"m 694 -194 l 694 0 l 93 0 l 93 1014 l 193 1014 l 193 93 l 367 93 l 367 1014 l 456 1014 l 456 93 l 629 93 l 629 1014 l 729 1014 l 729 93 l 794 93 l 794 -194 l 694 -194 z "},"Џ":{"ha":833,"x_min":136,"x_max":697,"o":"m 361 -174 l 361 0 l 136 0 l 136 1014 l 249 1014 l 249 101 l 585 101 l 585 1014 l 697 1014 l 697 0 l 472 0 l 472 -174 l 361 -174 z "},"Ь":{"ha":833,"x_min":136,"x_max":754,"o":"m 136 0 l 136 1014 l 247 1014 l 247 593 l 451 593 q 610 556 542 593 q 717 453 679 519 q 754 297 754 386 q 717 141 754 208 q 610 37 679 74 q 451 0 542 0 l 136 0 m 247 100 l 446 100 q 588 154 533 100 q 642 297 642 208 q 588 440 642 386 q 446 493 533 493 l 247 493 l 247 100 z "},"Ъ":{"ha":833,"x_min":-1,"x_max":754,"o":"m 189 0 l 189 913 l -1 913 l -1 1014 l 300 1014 l 300 593 l 451 593 q 610 556 542 593 q 717 453 679 519 q 754 297 754 386 q 717 141 754 208 q 610 37 679 74 q 451 0 542 0 l 189 0 m 300 100 l 446 100 q 588 154 533 100 q 642 297 642 208 q 588 440 642 386 q 446 493 533 493 l 300 493 l 300 100 z "},"Ы":{"ha":833,"x_min":96,"x_max":738,"o":"m 96 0 l 96 1014 l 200 1014 l 200 593 l 263 593 q 460 522 388 593 q 533 329 533 451 l 533 263 q 461 70 533 140 q 263 0 389 0 l 96 0 m 633 0 l 633 1014 l 738 1014 l 738 0 l 633 0 m 200 97 l 263 97 q 384 142 340 97 q 428 264 428 186 l 428 329 q 384 452 428 408 q 263 496 340 496 l 200 496 l 200 97 z "},"Љ":{"ha":833,"x_min":-7,"x_max":800,"o":"m -7 -7 l -7 93 l 21 93 q 81 137 58 93 q 104 256 103 181 l 113 1014 l 496 1014 l 496 593 l 582 593 q 740 535 681 593 q 800 381 800 476 l 800 214 q 740 58 800 117 q 582 0 681 0 l 396 0 l 396 921 l 211 921 l 203 256 q 151 64 201 135 q 18 -7 101 -7 l -7 -7 m 496 93 l 582 93 q 667 126 635 93 q 700 214 700 158 l 700 381 q 667 467 700 435 q 582 500 635 500 l 496 500 l 496 93 z "},"Њ":{"ha":833,"x_min":76,"x_max":800,"o":"m 76 0 l 76 1014 l 176 1014 l 176 593 l 396 593 l 396 1014 l 496 1014 l 496 593 l 579 593 q 740 535 681 593 q 800 381 800 478 l 800 214 q 740 58 800 115 q 579 0 681 0 l 396 0 l 396 500 l 176 500 l 176 0 l 76 0 m 496 93 l 579 93 q 668 125 636 93 q 700 214 700 157 l 700 381 q 668 468 700 436 q 579 500 636 500 l 496 500 l 496 93 z "},"Ѕ":{"ha":833,"x_min":104,"x_max":729,"o":"m 422 -14 q 191 62 278 -14 q 104 264 104 138 l 215 264 q 272 134 215 183 q 422 85 328 85 q 567 133 514 85 q 621 261 621 181 q 585 376 621 326 q 489 443 550 425 l 349 488 q 190 591 247 518 q 132 763 132 664 q 212 956 132 883 q 425 1028 292 1028 q 636 955 557 1028 q 715 758 715 882 l 606 758 q 556 883 606 836 q 425 929 507 929 q 290 885 340 929 q 240 765 240 840 q 275 660 240 704 q 371 596 310 615 l 517 550 q 672 441 614 518 q 729 263 729 364 q 646 61 729 136 q 422 -14 563 -14 z "},"Є":{"ha":833,"x_min":131,"x_max":714,"o":"m 424 -14 q 209 63 288 -14 q 131 274 131 140 l 131 740 q 209 951 131 874 q 424 1028 288 1028 q 635 949 557 1028 q 714 736 714 871 l 604 736 q 556 878 604 828 q 424 929 508 929 q 288 880 336 929 q 240 740 240 831 l 240 561 l 557 561 l 557 461 l 240 461 l 240 274 q 288 134 240 183 q 424 85 336 85 q 557 135 510 85 q 604 278 604 186 l 714 278 q 635 65 714 143 q 424 -14 557 -14 z "},"Э":{"ha":833,"x_min":121,"x_max":704,"o":"m 413 -14 q 199 65 278 -14 q 121 278 121 143 l 231 278 q 278 135 231 186 q 413 85 326 85 q 547 134 499 85 q 594 274 594 183 l 594 461 l 278 461 l 278 561 l 594 561 l 594 740 q 547 880 594 831 q 413 929 499 929 q 278 878 326 929 q 231 736 231 828 l 121 736 q 199 949 121 871 q 413 1028 278 1028 q 626 951 547 1028 q 704 740 704 874 l 704 274 q 626 63 704 140 q 413 -14 547 -14 z "},"І":{"ha":833,"x_min":151,"x_max":682,"o":"m 151 0 l 151 100 l 361 100 l 361 914 l 151 914 l 151 1014 l 682 1014 l 682 914 l 474 914 l 474 100 l 682 100 l 682 0 l 151 0 z "},"Ї":{"ha":833,"x_min":151,"x_max":682,"o":"m 151 0 l 151 100 l 361 100 l 361 914 l 151 914 l 151 1014 l 682 1014 l 682 914 l 474 914 l 474 100 l 682 100 l 682 0 l 151 0 m 571 1138 q 509 1160 532 1138 q 486 1222 486 1183 q 509 1285 486 1263 q 571 1308 532 1308 q 633 1285 610 1308 q 656 1222 656 1263 q 633 1160 656 1183 q 571 1138 610 1138 m 265 1138 q 203 1160 226 1138 q 181 1222 181 1183 q 203 1285 181 1263 q 265 1308 226 1308 q 327 1285 304 1308 q 350 1222 350 1263 q 327 1160 350 1183 q 265 1138 304 1138 z "},"Ј":{"ha":833,"x_min":72,"x_max":682,"o":"m 376 -14 q 153 67 235 -14 q 72 288 72 147 l 182 288 q 233 138 182 192 q 376 85 285 85 q 520 138 468 85 q 572 288 572 192 l 572 913 l 279 913 l 279 1014 l 682 1014 l 682 288 q 600 67 682 147 q 376 -14 518 -14 z "},"Ћ":{"ha":833,"x_min":0,"x_max":736,"o":"m 160 0 l 160 917 l 0 917 l 0 1014 l 439 1014 l 439 917 l 271 917 l 271 539 l 304 575 q 529 688 410 688 q 679 623 622 688 q 736 450 736 558 l 736 0 l 625 0 l 625 426 q 594 551 625 508 q 504 594 563 594 q 343 507 425 594 l 271 431 l 271 0 l 160 0 z "},"Ю":{"ha":833,"x_min":89,"x_max":769,"o":"m 539 -14 q 374 55 435 -14 q 313 243 313 124 l 313 474 l 192 474 l 192 0 l 89 0 l 89 1014 l 192 1014 l 192 569 l 313 569 l 313 771 q 373 960 313 892 q 539 1028 433 1028 q 708 959 647 1028 q 769 771 769 890 l 769 243 q 708 55 769 124 q 539 -14 647 -14 m 539 82 q 633 124 600 82 q 667 243 667 167 l 667 771 q 633 890 667 847 q 539 932 600 932 q 444 890 478 932 q 411 771 411 847 l 411 243 q 444 124 411 167 q 539 82 478 82 z "},"Я":{"ha":833,"x_min":83,"x_max":696,"o":"m 83 0 l 299 449 q 148 547 203 474 q 93 725 93 619 q 130 877 93 813 q 234 978 167 942 q 392 1014 301 1014 l 696 1014 l 696 0 l 586 0 l 586 438 l 414 438 l 211 0 l 83 0 m 392 536 l 586 536 l 586 915 l 392 915 q 257 863 308 915 q 206 726 206 811 q 256 588 206 640 q 392 536 307 536 z "},"Ђ":{"ha":833,"x_min":0,"x_max":736,"o":"m 364 -250 l 364 -150 l 450 -150 q 578 -104 532 -150 q 625 21 625 -58 l 625 426 q 594 551 625 508 q 504 594 563 594 q 343 507 425 594 l 271 431 l 271 0 l 160 0 l 160 917 l 0 917 l 0 1014 l 439 1014 l 439 917 l 271 917 l 271 539 l 304 575 q 528 688 408 688 q 679 623 622 688 q 736 450 736 558 l 736 21 q 658 -176 736 -103 q 450 -250 581 -250 l 364 -250 z "},"Ғ":{"ha":833,"x_min":46,"x_max":771,"o":"m 188 0 l 188 461 l 46 461 l 46 558 l 188 558 l 188 1014 l 771 1014 l 771 914 l 299 914 l 299 558 l 524 558 l 524 461 l 299 461 l 299 0 l 188 0 z "},"Қ":{"ha":833,"x_min":121,"x_max":803,"o":"m 121 0 l 121 1014 l 232 1014 l 232 574 l 399 574 l 624 1014 l 743 1014 l 496 528 l 708 99 l 803 99 l 803 -194 l 703 -194 l 703 0 l 631 0 l 394 476 l 232 476 l 232 0 l 121 0 z "},"Ң":{"ha":833,"x_min":131,"x_max":758,"o":"m 131 0 l 131 1014 l 240 1014 l 240 575 l 583 575 l 583 1014 l 693 1014 l 693 99 l 758 99 l 758 -194 l 658 -194 l 658 0 l 583 0 l 583 474 l 240 474 l 240 0 l 131 0 z "},"Ү":{"ha":833,"x_min":54,"x_max":779,"o":"m 361 0 l 361 382 l 54 1014 l 168 1014 l 376 586 q 403 528 393 553 q 418 490 414 503 q 433 527 422 501 q 460 586 444 553 l 665 1014 l 779 1014 l 472 382 l 472 0 l 361 0 z "},"Ұ":{"ha":833,"x_min":54,"x_max":779,"o":"m 178 289 l 178 382 l 361 382 l 54 1014 l 168 1014 l 376 586 q 403 528 393 553 q 418 490 414 503 q 433 527 422 501 q 460 586 444 553 l 665 1014 l 779 1014 l 472 382 l 656 382 l 656 289 l 472 289 l 472 0 l 361 0 l 361 289 l 178 289 z "},"Ҷ":{"ha":833,"x_min":96,"x_max":747,"o":"m 572 0 l 572 407 q 488 393 544 399 q 379 388 432 388 q 96 642 96 388 l 96 1014 l 206 1014 l 206 642 q 399 485 206 485 q 499 490 449 485 q 572 504 549 496 l 572 1014 l 682 1014 l 682 99 l 747 99 l 747 -194 l 647 -194 l 647 0 l 572 0 z "},"Һ":{"ha":833,"x_min":138,"x_max":724,"o":"m 247 1014 l 247 607 q 331 621 275 615 q 440 626 388 626 q 724 372 724 626 l 724 0 l 614 0 l 614 372 q 421 529 614 529 q 321 524 371 529 q 247 510 271 518 l 247 0 l 138 0 l 138 1014 l 247 1014 z "},"Ә":{"ha":833,"x_min":121,"x_max":704,"o":"m 413 -14 q 199 65 278 -14 q 121 278 121 143 l 121 561 l 594 561 l 594 740 q 546 878 594 828 q 413 929 497 929 q 280 877 329 929 q 231 736 231 825 l 121 736 q 199 949 121 871 q 413 1028 278 1028 q 626 950 547 1028 q 704 740 704 872 l 704 274 q 626 64 704 142 q 413 -14 547 -14 m 413 85 q 546 135 497 85 q 594 274 594 186 l 594 461 l 231 461 l 231 278 q 280 137 231 189 q 413 85 329 85 z "},"Ө":{"ha":833,"x_min":131,"x_max":703,"o":"m 417 -14 q 207 64 283 -14 q 131 275 131 142 l 131 740 q 207 951 131 874 q 417 1028 283 1028 q 626 951 550 1028 q 703 740 703 874 l 703 275 q 626 64 703 142 q 417 -14 549 -14 m 240 568 l 593 568 l 593 740 q 548 881 593 832 q 417 931 503 931 q 285 881 331 931 q 240 740 240 832 l 240 568 m 417 83 q 547 133 501 83 q 593 275 593 183 l 593 469 l 240 469 l 240 275 q 286 133 240 183 q 417 83 332 83 z "},"а":{"ha":833,"x_min":97,"x_max":701,"o":"m 357 -14 q 167 48 236 -14 q 97 215 97 110 q 165 380 97 319 q 349 440 233 440 l 592 440 l 592 521 q 547 638 592 596 q 424 681 503 681 q 304 648 353 681 q 246 563 256 615 l 135 563 q 182 675 143 626 q 283 751 221 724 q 424 778 346 778 q 626 709 551 778 q 701 524 701 640 l 701 0 l 593 0 l 593 140 q 518 27 582 68 q 357 -14 454 -14 m 383 75 q 533 121 475 75 q 592 240 592 167 l 592 356 l 350 356 q 246 319 285 356 q 207 221 207 283 q 254 115 207 154 q 383 75 301 75 z "},"б":{"ha":833,"x_min":128,"x_max":711,"o":"m 419 -14 q 206 65 285 -14 q 128 283 128 144 l 128 639 q 222 914 128 814 q 482 1014 317 1014 l 671 1014 l 671 904 l 482 904 q 302 833 368 904 q 236 639 236 763 l 236 553 l 239 553 q 308 660 251 622 q 450 697 364 697 q 642 619 572 697 q 711 406 711 542 l 711 283 q 633 65 711 144 q 419 -14 556 -14 m 419 85 q 552 138 504 85 q 600 283 600 190 l 600 406 q 552 552 600 499 q 419 606 504 606 q 287 551 335 606 q 239 406 239 497 l 239 283 q 288 138 239 190 q 419 85 336 85 z "},"в":{"ha":833,"x_min":135,"x_max":725,"o":"m 135 0 l 135 764 l 457 764 q 635 712 569 764 q 700 571 700 660 q 657 457 700 500 q 540 410 614 414 l 540 404 q 674 350 624 401 q 725 214 725 299 q 656 58 725 115 q 468 0 586 0 l 135 0 m 243 440 l 457 440 q 554 470 518 440 q 590 554 590 500 q 554 636 590 606 q 457 667 518 667 l 243 667 l 243 440 m 243 97 l 468 97 q 576 131 536 97 q 615 224 615 164 q 576 315 615 281 q 468 349 536 349 l 243 349 l 243 97 z "},"г":{"ha":833,"x_min":186,"x_max":728,"o":"m 186 0 l 186 764 l 728 764 l 728 664 l 296 664 l 296 0 l 186 0 z "},"ѓ":{"ha":833,"x_min":186,"x_max":728,"o":"m 186 0 l 186 764 l 728 764 l 728 664 l 296 664 l 296 0 l 186 0 m 390 896 l 538 1090 l 658 1090 l 503 896 l 390 896 z "},"ґ":{"ha":833,"x_min":186,"x_max":728,"o":"m 186 0 l 186 764 l 622 764 l 622 910 l 728 910 l 728 664 l 296 664 l 296 0 l 186 0 z "},"д":{"ha":833,"x_min":47,"x_max":779,"o":"m 47 -194 l 47 94 l 110 94 q 158 190 133 122 q 186 357 183 258 l 194 764 l 681 764 l 681 94 l 779 94 l 779 -194 l 681 -194 l 681 0 l 146 0 l 146 -194 l 47 -194 m 228 94 l 571 94 l 571 665 l 299 665 l 293 356 q 269 185 292 251 q 228 94 247 118 z "},"е":{"ha":833,"x_min":125,"x_max":708,"o":"m 417 -14 q 204 65 283 -14 q 125 274 125 143 l 125 490 q 204 699 125 621 q 417 778 283 778 q 629 699 550 778 q 708 490 708 621 l 708 356 l 233 356 l 233 274 q 281 130 233 181 q 417 79 329 79 q 536 108 490 79 q 596 193 582 138 l 706 193 q 613 42 690 97 q 417 -14 535 -14 m 233 442 l 600 442 l 600 490 q 553 634 600 583 q 417 685 506 685 q 281 634 328 685 q 233 490 233 583 l 233 442 z "},"ё":{"ha":833,"x_min":125,"x_max":708,"o":"m 417 -14 q 204 65 283 -14 q 125 274 125 143 l 125 490 q 204 699 125 621 q 417 778 283 778 q 629 699 550 778 q 708 490 708 621 l 708 356 l 233 356 l 233 274 q 281 130 233 181 q 417 79 329 79 q 536 108 490 79 q 596 193 582 138 l 706 193 q 613 42 690 97 q 417 -14 535 -14 m 233 442 l 600 442 l 600 490 q 553 634 600 583 q 417 685 506 685 q 281 634 328 685 q 233 490 233 583 l 233 442 m 569 904 q 508 926 531 904 q 485 988 485 949 q 508 1051 485 1028 q 569 1075 531 1075 q 631 1051 608 1075 q 654 988 654 1028 q 631 926 654 949 q 569 904 608 904 m 264 904 q 202 926 225 904 q 179 988 179 949 q 202 1051 179 1028 q 264 1075 225 1075 q 326 1051 303 1075 q 349 988 349 1028 q 326 926 349 949 q 264 904 303 904 z "},"ж":{"ha":833,"x_min":32,"x_max":801,"o":"m 32 0 l 199 392 l 43 764 l 150 764 l 288 426 l 369 426 l 369 764 l 464 764 l 464 426 l 543 426 l 685 764 l 790 764 l 635 396 l 801 0 l 690 0 l 547 351 l 464 351 l 464 0 l 369 0 l 369 351 l 286 351 l 140 0 l 32 0 z "},"з":{"ha":833,"x_min":99,"x_max":717,"o":"m 375 -11 q 185 40 258 -11 q 99 179 113 90 l 214 179 q 265 113 222 138 q 375 88 307 88 l 449 88 q 560 124 519 88 q 601 215 601 161 q 563 310 601 274 q 451 347 524 347 l 271 347 l 271 443 l 443 443 q 544 475 508 443 q 579 560 579 507 q 542 645 579 614 q 440 676 504 676 l 372 676 q 268 650 307 676 q 219 581 229 624 l 104 581 q 188 723 118 671 q 372 775 257 775 l 440 775 q 626 719 558 775 q 694 567 694 663 q 655 453 694 496 q 539 407 615 411 l 539 401 q 673 344 629 394 q 717 211 717 293 q 644 50 717 111 q 449 -11 571 -11 l 375 -11 z "},"и":{"ha":833,"x_min":135,"x_max":699,"o":"m 135 0 l 135 764 l 240 764 l 240 329 q 236 205 240 271 q 228 99 232 139 l 557 764 l 699 764 l 699 0 l 593 0 l 593 435 q 597 560 593 493 q 606 667 601 626 l 276 0 l 135 0 z "},"й":{"ha":833,"x_min":135,"x_max":699,"o":"m 135 0 l 135 764 l 240 764 l 240 329 q 236 205 240 271 q 228 99 232 139 l 557 764 l 699 764 l 699 0 l 593 0 l 593 435 q 597 560 593 493 q 606 667 601 626 l 276 0 l 135 0 m 417 890 q 259 945 318 890 q 200 1090 200 1000 l 289 1090 q 324 999 289 1033 q 415 964 358 964 q 509 999 474 964 q 544 1090 544 1033 l 633 1090 q 574 945 633 1000 q 417 890 515 890 z "},"к":{"ha":833,"x_min":139,"x_max":764,"o":"m 139 0 l 139 764 l 249 764 l 249 443 l 406 443 l 632 764 l 760 764 l 503 400 l 764 0 l 635 0 l 407 347 l 249 347 l 249 0 l 139 0 z "},"ќ":{"ha":833,"x_min":139,"x_max":764,"o":"m 139 0 l 139 764 l 249 764 l 249 443 l 406 443 l 632 764 l 760 764 l 503 400 l 764 0 l 635 0 l 407 347 l 249 347 l 249 0 l 139 0 m 349 896 l 496 1090 l 617 1090 l 461 896 l 349 896 z "},"л":{"ha":833,"x_min":39,"x_max":699,"o":"m 39 -10 l 39 94 l 67 94 q 154 144 126 94 q 183 308 182 193 l 193 764 l 699 764 l 699 0 l 589 0 l 589 664 l 301 664 l 293 304 q 237 66 290 142 q 71 -10 183 -10 l 39 -10 z "},"м":{"ha":833,"x_min":111,"x_max":722,"o":"m 111 0 l 111 764 l 264 764 l 375 453 q 401 370 389 411 q 419 306 414 329 q 438 370 426 329 q 464 454 450 411 l 571 764 l 722 764 l 722 0 l 617 0 l 617 183 q 618 316 617 243 q 622 463 619 389 q 627 603 625 538 q 631 714 629 669 l 475 229 l 363 229 l 204 708 q 208 603 206 667 q 212 467 210 540 q 215 321 214 394 q 217 183 217 247 l 217 0 l 111 0 z "},"н":{"ha":833,"x_min":135,"x_max":699,"o":"m 135 0 l 135 764 l 244 764 l 244 442 l 589 442 l 589 764 l 699 764 l 699 0 l 589 0 l 589 342 l 244 342 l 244 0 l 135 0 z "},"о":{"ha":833,"x_min":125,"x_max":708,"o":"m 417 -12 q 203 65 282 -12 q 125 276 125 143 l 125 488 q 203 699 125 621 q 417 776 282 776 q 630 699 551 776 q 708 489 708 621 l 708 276 q 630 65 708 143 q 417 -12 551 -12 m 417 86 q 549 135 501 86 q 597 276 597 183 l 597 488 q 549 629 597 581 q 417 678 501 678 q 284 629 332 678 q 236 488 236 581 l 236 276 q 284 135 236 183 q 417 86 332 86 z "},"п":{"ha":833,"x_min":135,"x_max":699,"o":"m 135 0 l 135 764 l 699 764 l 699 0 l 589 0 l 589 664 l 244 664 l 244 0 l 135 0 z "},"р":{"ha":833,"x_min":136,"x_max":708,"o":"m 136 -250 l 136 764 l 246 764 l 246 629 l 246 629 q 317 738 261 699 q 456 778 372 778 q 640 702 571 778 q 708 496 708 626 l 708 269 q 640 63 708 139 q 456 -14 571 -14 q 317 26 374 -14 q 247 135 261 67 l 243 135 l 246 -21 l 246 -250 l 136 -250 m 422 82 q 551 132 504 82 q 599 274 599 182 l 599 490 q 551 632 599 582 q 422 682 504 682 q 293 631 340 682 q 246 490 246 581 l 246 274 q 293 133 246 183 q 422 82 340 82 z "},"с":{"ha":833,"x_min":125,"x_max":713,"o":"m 421 -14 q 206 63 286 -14 q 125 274 125 140 l 125 490 q 206 701 125 624 q 421 778 286 778 q 631 707 553 778 q 713 514 710 636 l 603 514 q 552 635 600 592 q 421 679 504 679 q 286 630 336 679 q 236 490 236 581 l 236 274 q 286 134 236 183 q 421 85 336 85 q 552 128 504 85 q 603 250 600 172 l 713 250 q 631 57 710 128 q 421 -14 553 -14 z "},"т":{"ha":833,"x_min":83,"x_max":750,"o":"m 361 0 l 361 664 l 83 664 l 83 764 l 750 764 l 750 664 l 472 664 l 472 0 l 361 0 z "},"у":{"ha":833,"x_min":79,"x_max":754,"o":"m 256 -250 l 368 49 l 79 764 l 200 764 l 386 288 q 408 226 397 260 q 425 169 419 192 q 442 226 431 192 q 464 289 453 260 l 638 764 l 754 764 l 371 -250 l 256 -250 z "},"ў":{"ha":833,"x_min":79,"x_max":754,"o":"m 256 -250 l 368 49 l 79 764 l 200 764 l 386 288 q 408 226 397 260 q 425 169 419 192 q 442 226 431 192 q 464 289 453 260 l 638 764 l 754 764 l 371 -250 l 256 -250 m 417 890 q 259 945 318 890 q 200 1090 200 1000 l 289 1090 q 324 999 289 1033 q 415 964 358 964 q 509 999 474 964 q 544 1090 544 1033 l 633 1090 q 574 945 633 1000 q 417 890 515 890 z "},"ф":{"ha":833,"x_min":81,"x_max":753,"o":"m 367 -250 l 367 0 q 157 75 233 0 q 81 281 81 150 l 81 486 q 158 690 81 615 q 367 764 235 764 l 367 1014 l 467 1014 l 467 764 q 676 690 600 764 q 753 486 753 615 l 753 281 q 676 75 753 150 q 467 0 600 0 l 467 -250 l 367 -250 m 369 89 l 369 675 q 233 625 282 675 q 183 486 183 575 l 183 281 q 233 140 183 190 q 369 89 282 89 m 464 89 q 601 140 551 89 q 650 281 650 190 l 650 486 q 601 625 650 575 q 464 675 551 675 l 464 89 z "}}}
